<?xml version="1.0" encoding="utf-8"?>
<!-- Generator: Adobe Illustrator 16.0.0, SVG Export Plug-In . SVG Version: 6.00 Build 0)  -->
<!DOCTYPE svg PUBLIC "-//W3C//DTD SVG 1.1//EN" "http://www.w3.org/Graphics/SVG/1.1/DTD/svg11.dtd">
<svg version="1.1" id="Layer_1" xmlns="http://www.w3.org/2000/svg" xmlns:xlink="http://www.w3.org/1999/xlink" x="0px" y="0px"
	 width="612px" height="792px" viewBox="0 0 612 792" enable-background="new 0 0 612 792" xml:space="preserve">
<g>
	<path fill="#EF43E3" d="M439.801,421.721c0,74.105-60.289,134.398-134.403,134.398C231.289,556.119,171,495.826,171,421.721
		c0-74.11,60.289-134.403,134.398-134.403C379.512,287.318,439.801,347.615,439.801,421.721L439.801,421.721z M439.801,421.721"/>
	<path fill="#FFFFFF" d="M407.801,421.721c0,56.461-45.938,102.398-102.403,102.398C248.934,524.119,203,478.182,203,421.721
		c0-56.465,45.934-102.403,102.398-102.403C361.863,319.318,407.801,365.256,407.801,421.721L407.801,421.721z M407.801,421.721"/>
	<g>
		<defs>
			<rect id="SVGID_1_" x="139" y="191" width="332.88" height="410.88"/>
		</defs>
		<clipPath id="SVGID_2_">
			<use xlink:href="#SVGID_1_"  overflow="visible"/>
		</clipPath>
		<path clip-path="url(#SVGID_2_)" fill="#5D647F" d="M377.285,282.061c2.309,0,4.531-1.246,5.676-3.426l13.133-25.027
			c1.645-3.129,0.438-7-2.695-8.645c-3.145-1.641-7-0.43-8.645,2.699l-13.129,25.028c-1.645,3.128-0.438,6.996,2.691,8.64
			C375.27,281.826,376.285,282.061,377.285,282.061L377.285,282.061z M377.285,282.061"/>
		<path clip-path="url(#SVGID_2_)" fill="#B4B6BC" d="M337.957,223.1c15.199-28.946,51.09-40.148,80.047-24.95
			c14.02,7.36,24.34,19.739,29.051,34.86c4.711,15.117,3.254,31.168-4.102,45.187c-1.145,2.184-3.367,3.426-5.676,3.426
			c-1,0-2.016-0.234-2.969-0.734l-93.66-49.149c-1.5-0.789-2.629-2.14-3.137-3.761C337.012,226.358,337.168,224.604,337.957,223.1
			L337.957,223.1z M337.957,223.1"/>
	</g>
	<path fill="#868491" d="M417.973,198.139c0.012,0.004,0.023,0.008,0.031,0.015c14.02,7.356,24.34,19.735,29.051,34.856
		c4.711,15.117,3.257,31.168-4.098,45.187c-1.145,2.184-3.371,3.426-5.676,3.426c-1,0-2.02-0.234-2.969-0.734l-46.859-24.59
		L417.973,198.139z M417.973,198.139"/>
	<path fill="#5D647F" d="M233.336,282.061c-2.305,0-4.531-1.246-5.672-3.426l-13.133-25.027c-1.644-3.129-0.437-7,2.696-8.645
		c3.14-1.641,7-0.43,8.64,2.699L239,272.69c1.645,3.128,0.438,6.996-2.695,8.64C235.355,281.826,234.336,282.061,233.336,282.061
		L233.336,282.061z M233.336,282.061"/>
	<path fill="#5D647F" d="M202.992,600.92c-1.105,0-2.23-0.289-3.254-0.895c-3.043-1.801-4.043-5.727-2.246-8.77l18.965-32
		c1.801-3.031,5.723-4.043,8.77-2.242c3.043,1.805,4.043,5.727,2.242,8.77l-18.961,32C207.312,599.803,205.18,600.92,202.992,600.92
		L202.992,600.92z M202.992,600.92"/>
	<path fill="#5D647F" d="M407.805,600.92c-2.188,0-4.316-1.117-5.512-3.137l-19.199-32.402c-1.801-3.039-0.801-6.965,2.242-8.766
		c3.059-1.801,6.976-0.797,8.77,2.242l19.199,32.398c1.801,3.043,0.801,6.969-2.242,8.77
		C410.035,600.631,408.91,600.92,407.805,600.92L407.805,600.92z M407.805,600.92"/>
	<path d="M305.398,255.318C213.645,255.318,139,329.967,139,421.721s74.645,166.398,166.398,166.398
		c91.758,0,166.403-74.645,166.403-166.398S397.156,255.318,305.398,255.318L305.398,255.318z M433.398,421.721
		c0,70.578-57.418,128-128,128c-70.578,0-128-57.422-128-128c0-70.578,57.422-128,128-128
		C375.98,293.721,433.398,351.143,433.398,421.721L433.398,421.721z M433.398,421.721"/>
	<path d="M305.227,549.713c-70.5-0.098-127.829-57.473-127.829-127.992s57.329-127.895,127.829-127.992v-38.403
		C213.547,255.42,139,330.025,139,421.721c0,91.695,74.547,166.301,166.227,166.395V549.713z M305.227,549.713"/>
	<path fill="#868491" d="M222.199,428.119h-25.597c-3.54,0-6.403-2.863-6.403-6.398s2.863-6.402,6.403-6.402h25.597
		c3.539,0,6.403,2.867,6.403,6.402S225.738,428.119,222.199,428.119L222.199,428.119z M222.199,428.119"/>
	<path fill="#868491" d="M414.199,428.119h-25.598c-3.54,0-6.402-2.863-6.402-6.398s2.862-6.402,6.402-6.402h25.598
		c3.539,0,6.402,2.867,6.402,6.402S417.738,428.119,414.199,428.119L414.199,428.119z M414.199,428.119"/>
	<path fill="#868491" d="M305.398,536.92c-3.535,0-6.398-2.867-6.398-6.398V504.92c0-3.535,2.863-6.398,6.398-6.398
		c3.54,0,6.403,2.863,6.403,6.398v25.602C311.801,534.053,308.938,536.92,305.398,536.92L305.398,536.92z M305.398,536.92"/>
	<g>
		<defs>
			<rect id="SVGID_3_" x="139" y="191" width="332.88" height="410.88"/>
		</defs>
		<clipPath id="SVGID_4_">
			<use xlink:href="#SVGID_3_"  overflow="visible"/>
		</clipPath>
		<path clip-path="url(#SVGID_4_)" fill="#868491" d="M305.398,344.92c-3.535,0-6.398-2.867-6.398-6.398V312.92
			c0-3.535,2.863-6.398,6.398-6.398c3.54,0,6.403,2.863,6.403,6.398v25.602C311.801,342.053,308.938,344.92,305.398,344.92
			L305.398,344.92z M305.398,344.92"/>
		<path clip-path="url(#SVGID_4_)" fill="#B4B6BC" d="M272.668,223.1c-15.199-28.946-51.094-40.148-80.047-24.95
			c-14.019,7.36-24.34,19.739-29.051,34.86c-4.711,15.117-3.258,31.168,4.098,45.187c1.144,2.184,3.371,3.426,5.676,3.426
			c1,0,2.019-0.234,2.968-0.734l93.661-49.149c1.5-0.789,2.632-2.14,3.14-3.761C273.613,226.358,273.457,224.604,272.668,223.1
			L272.668,223.1z M272.668,223.1"/>
	</g>
	<path fill="#5D647F" d="M311,440.521v32c0,3.535-2.863,6.398-6.398,6.398s-6.402-2.863-6.402-6.398v-32
		c0-3.539,2.867-6.402,6.402-6.402S311,436.982,311,440.521L311,440.521z M311,440.521"/>
	<path fill="#5D647F" d="M298.199,421.322c0,3.535-2.863,6.398-6.398,6.398H247c-3.535,0-6.398-2.863-6.398-6.398
		c0-3.539,2.863-6.402,6.398-6.402h44.801C295.336,414.92,298.199,417.783,298.199,421.322L298.199,421.322z M298.199,421.322"/>
	<path fill="#1CE5D1" d="M311.398,430.119c-1.637,0-3.273-0.625-4.523-1.875l-64-64c-2.5-2.5-2.5-6.551,0-9.051s6.551-2.5,9.051,0
		l64,64c2.5,2.5,2.5,6.551,0,9.051C314.676,429.494,313.035,430.119,311.398,430.119L311.398,430.119z M311.398,430.119"/>
	<path fill="#868491" d="M192.648,198.139c-0.007,0.004-0.019,0.008-0.031,0.015c-14.019,7.356-24.336,19.735-29.047,34.856
		c-4.715,15.117-3.258,31.168,4.098,45.187c1.144,2.184,3.371,3.426,5.676,3.426c1,0,2.019-0.234,2.968-0.734l46.86-24.59
		L192.648,198.139z M192.648,198.139"/>
	<path fill="#5C546A" d="M324.602,421.721c0,10.602-8.598,19.199-19.204,19.199c-10.601,0-19.199-8.598-19.199-19.199
		c0-10.605,8.598-19.199,19.199-19.199C316.004,402.521,324.602,411.115,324.602,421.721L324.602,421.721z M324.602,421.721"/>
</g>
</svg>
