<?xml version="1.0" encoding="utf-8"?>
<!-- Generator: Adobe Illustrator 16.0.0, SVG Export Plug-In . SVG Version: 6.00 Build 0)  -->
<!DOCTYPE svg PUBLIC "-//W3C//DTD SVG 1.1//EN" "http://www.w3.org/Graphics/SVG/1.1/DTD/svg11.dtd">
<svg version="1.1" id="Layer_1" xmlns="http://www.w3.org/2000/svg" xmlns:xlink="http://www.w3.org/1999/xlink" x="0px" y="0px"
	 width="612px" height="792px" viewBox="0 0 612 792" enable-background="new 0 0 612 792" xml:space="preserve">
<g>
	<g>
		<defs>
			<rect id="SVGID_1_" x="132" y="191" width="346.8" height="410.88"/>
		</defs>
		<clipPath id="SVGID_2_">
			<use xlink:href="#SVGID_1_"  overflow="visible"/>
		</clipPath>
		<path clip-path="url(#SVGID_2_)" fill="#7E5C62" d="M305.18,319.293c-3.535,0-6.399-2.863-6.399-6.398
			c0-40.453-6.191-93.691-23.648-110.602c-2.543-2.46-2.606-6.515-0.145-9.05c2.45-2.547,6.52-2.602,9.043-0.146
			c25.563,24.762,27.551,97.953,27.551,119.797C311.582,316.43,308.719,319.293,305.18,319.293L305.18,319.293z M305.18,319.293"/>
		<path clip-path="url(#SVGID_2_)" fill="#E3001E" d="M395.094,293.766c-22.738-3.465-40.586,1.746-56.324,6.336
			c-11.258,3.285-21.887,6.395-33.589,6.395c-11.7,0-22.328-3.11-33.586-6.395c-15.742-4.594-33.598-9.789-56.324-6.336
			C177.281,299.559,132,321.629,132,393.864c0,68.258,22.648,161.605,86.488,200.062c16.813,10.125,36.098,7.153,56.524,4.021
			c9.898-1.528,20.136-3.103,30.168-3.103c10.031,0,20.269,1.574,30.167,3.103c9.801,1.504,19.348,2.972,28.477,2.972
			c9.895,0,19.313-1.722,28.051-6.992c63.836-38.457,86.488-131.804,86.488-200.062
			C478.363,321.629,433.082,299.559,395.094,293.766L395.094,293.766z M395.094,293.766"/>
		<path clip-path="url(#SVGID_2_)" fill="#F4274A" d="M305.184,306.497h-0.004c-11.7,0-22.328-3.11-33.586-6.395
			c-15.742-4.594-33.598-9.789-56.324-6.336C177.281,299.559,132,321.629,132,393.864c0,68.258,22.648,161.605,86.488,200.062
			c16.813,10.125,36.098,7.153,56.524,4.021c9.898-1.528,20.136-3.103,30.168-3.103h0.004V306.497z M305.184,306.497"/>
	</g>
	<path fill="#60DC4D" d="M394.551,208.821c0.758-5.906,0.672-11.504-0.016-16.801c-5.297-0.687-10.895-0.773-16.801-0.016
		c-38.344,4.911-73.406,39.977-78.32,78.321c-0.754,5.906-0.668,11.504,0.02,16.797c5.296,0.687,10.894,0.773,16.796,0.019
		C354.574,282.227,389.641,247.165,394.551,208.821L394.551,208.821z M394.551,208.821"/>
	<path fill="#C6C6C6" d="M439.406,364.094c0,17.676-14.328,32-32,32s-32-14.324-32-32c0-17.672,14.328-32,32-32
		S439.406,346.422,439.406,364.094L439.406,364.094z M439.406,364.094"/>
	<path fill="#66E278" d="M394.02,191.985c-5.148-0.625-10.563-0.711-16.281,0.019c-38.344,4.911-73.41,39.977-78.324,78.321
		c-0.73,5.718-0.644,11.136-0.016,16.285L394.02,191.985z M394.02,191.985"/>
</g>
</svg>
