<?xml version="1.0" encoding="utf-8"?>
<!-- Generator: Adobe Illustrator 16.0.0, SVG Export Plug-In . SVG Version: 6.00 Build 0)  -->
<!DOCTYPE svg PUBLIC "-//W3C//DTD SVG 1.1//EN" "http://www.w3.org/Graphics/SVG/1.1/DTD/svg11.dtd">
<svg version="1.1" id="Layer_1" xmlns="http://www.w3.org/2000/svg" xmlns:xlink="http://www.w3.org/1999/xlink" x="0px" y="0px"
	 width="612px" height="792px" viewBox="0 0 612 792" enable-background="new 0 0 612 792" xml:space="preserve">
<g>
	<path fill="#A507A5" d="M395.398,223h32c7.07,0,12.801,5.73,12.801,12.801v73.597c0,2.704-1.691,5.114-4.238,6.028
		c-0.703,0.25-1.438,0.375-2.16,0.375c-1.875,0-3.699-0.824-4.938-2.332l-44.805-54.407c-0.945-1.144-1.457-2.582-1.457-4.062
		v-19.199C382.602,228.73,388.332,223,395.398,223L395.398,223z M395.398,223"/>
	<path fill="#A507A5" d="M216.375,223h-32c-7.07,0-12.801,5.73-12.801,12.801v73.597c0,2.704,1.696,5.114,4.238,6.028
		c0.708,0.25,1.438,0.375,2.165,0.375c1.875,0,3.699-0.824,4.937-2.332l44.805-54.407c0.941-1.144,1.457-2.582,1.457-4.062v-19.199
		C229.176,228.73,223.445,223,216.375,223L216.375,223z M216.375,223"/>
	<path d="M357.176,242.199c-3.539,0-6.402-2.863-6.402-6.398v-19.199c0-3.536-2.863-6.403-6.398-6.403h-76.801
		c-3.535,0-6.398,2.867-6.398,6.403v19.199c0,3.535-2.864,6.398-6.403,6.398c-3.535,0-6.398-2.863-6.398-6.398v-19.199
		c0-14.141,11.461-25.602,25.602-25.602h64c14.137,0,25.598,11.461,25.598,25.602v19.199
		C363.574,239.336,360.711,242.199,357.176,242.199L357.176,242.199z M357.176,242.199"/>
	<path fill="#7F7F7F" d="M165.176,408.602h-12.801c-10.586,0-19.199,8.609-19.199,19.199V543c0,10.586,8.613,19.199,19.199,19.199
		h12.801c3.535,0,6.398-2.863,6.398-6.398V415C171.574,411.465,168.711,408.602,165.176,408.602L165.176,408.602z M165.176,408.602"
		/>
	<rect x="133" y="447" fill="#A507A5" width="32" height="12.801"/>
	<path fill="#7F7F7F" d="M446.543,408.602h12.684c10.492,0,19.027,8.609,19.027,19.199V543c0,10.586-8.535,19.199-19.027,19.199
		h-12.684c-3.508,0-6.344-2.863-6.344-6.398V415C440.199,411.465,443.035,408.602,446.543,408.602L446.543,408.602z
		 M446.543,408.602"/>
	<rect x="446.715" y="447" fill="#A507A5" width="31.711" height="12.801"/>
	<path d="M305.977,223c-81.172,0-147.204,66.035-147.204,147.199V543c0,31.758,25.84,57.602,57.602,57.602h179.199
		c31.762,0,57.602-25.844,57.602-57.602V370.199C453.176,289.035,387.145,223,305.977,223L305.977,223z M305.977,223"/>
	<path fill="#7F7F7F" d="M395.574,408.602H216.375c-10.586,0-19.199,8.609-19.199,19.199V543c0,10.586,8.613,19.199,19.199,19.199
		h179.199c10.59,0,19.199-8.613,19.199-19.199V427.801C414.773,417.211,406.164,408.602,395.574,408.602L395.574,408.602z
		 M395.574,408.602"/>
	<path fill="#7F7F7F" d="M358.727,290.023c-15.684-10.351-33.926-15.824-52.75-15.824c-18.825,0-37.071,5.473-52.75,15.821
		c-7.047,4.644-11.25,12.589-11.25,21.25v58.929c0,3.535,2.859,6.403,6.398,6.403h115.199c3.539,0,6.402-2.868,6.402-6.403V311.27
		C369.977,302.609,365.77,294.664,358.727,290.023L358.727,290.023z M358.727,290.023"/>
	<path fill="#A507A5" d="M318.602,319h-25.25c-7.071,0-12.801-5.73-12.801-12.801c0-7.066,5.73-12.801,12.801-12.801h25.25
		c7.066,0,12.797,5.735,12.797,12.801C331.398,313.27,325.668,319,318.602,319L318.602,319z M318.602,319"/>
	<rect x="197" y="447" fill="#A507A5" width="217.602" height="12.801"/>
	<path fill="#5C546A" d="M241.977,485.398c-3.539,0-6.403-2.863-6.403-6.398v-25.602c0-3.531,2.864-6.398,6.403-6.398
		c3.535,0,6.398,2.867,6.398,6.398V479C248.375,482.535,245.512,485.398,241.977,485.398L241.977,485.398z M241.977,485.398"/>
	<path fill="#FFFFFF" d="M248.199,511h-12.801c-3.535,0-6.398-2.867-6.398-6.398v-19.203c0-7.066,5.73-12.797,12.801-12.797
		c7.066,0,12.797,5.73,12.797,12.797v19.203C254.598,508.133,251.734,511,248.199,511L248.199,511z M248.199,511"/>
	<path fill="#7F7F7F" d="M433.305,363.801c-3.273,0-6.004-2.559-6.348-5.949c-6.281-62.282-58.293-109.25-120.98-109.25
		c-62.688,0-114.704,46.968-120.985,109.25c-0.344,3.39-3.074,5.949-6.347,5.949h-19.707c-0.09,2.125-0.165,4.254-0.165,6.398v6.403
		h19.872c9.875,0,18.082-7.508,19.085-17.461c5.622-55.723,52.157-97.743,108.247-97.743c56.084,0,102.625,42.02,108.242,97.743
		c1.008,9.953,9.211,17.461,19.086,17.461H453c0.063,0,0.113-0.036,0.176-0.036v-6.367c0-2.144-0.07-4.273-0.164-6.398
		c-0.004,0-0.008,0-0.012,0H433.305z M433.305,363.801"/>
</g>
</svg>
