<?xml version="1.0" encoding="utf-8"?>
<!-- Generator: Adobe Illustrator 16.0.0, SVG Export Plug-In . SVG Version: 6.00 Build 0)  -->
<!DOCTYPE svg PUBLIC "-//W3C//DTD SVG 1.1//EN" "http://www.w3.org/Graphics/SVG/1.1/DTD/svg11.dtd">
<svg version="1.1" id="Layer_1" xmlns="http://www.w3.org/2000/svg" xmlns:xlink="http://www.w3.org/1999/xlink" x="0px" y="0px"
	 width="612px" height="792px" viewBox="0 0 612 792" enable-background="new 0 0 612 792" xml:space="preserve">
<g>
	<path fill="#FF9100" d="M498,396c0,106.039-85.961,192-192,192s-192-85.961-192-192s85.961-192,192-192S498,289.961,498,396
		L498,396z M498,396"/>
	<path fill="#FF9100" d="M306,588c53.02,0,101.02-21.488,135.766-56.234L170.234,260.234C135.488,294.98,114,342.98,114,396
		C114,502.039,199.961,588,306,588L306,588z M306,588"/>
	<path d="M376.562,402.398h121.274c0.07-2.129,0.164-4.254,0.164-6.398c0-2.145-0.094-4.27-0.164-6.398H376.562
		c1.794-52.5,25.489-99.524,62.208-132.223c-3.094-2.961-6.266-5.84-9.551-8.59c-38.742,35.004-63.676,85.023-65.457,140.813
		h-51.188V204.168C310.387,204.094,308.203,204,306,204c-2.09,0-4.152,0.09-6.227,0.156v185.446h-45.136
		c-1.828-57.247-28.028-108.422-68.516-143.528c-3.375,2.703-6.676,5.496-9.859,8.418c38.621,32.781,63.73,81.031,65.578,135.11
		H114.164C114.094,391.73,114,393.855,114,396c0,2.145,0.094,4.27,0.164,6.398H241.84c-1.848,54.078-26.957,102.328-65.578,135.109
		c3.183,2.922,6.484,5.715,9.859,8.418c40.488-35.105,66.688-86.281,68.516-143.523h45.136v185.441
		C301.848,587.91,303.91,588,306,588c2.203,0,4.387-0.094,6.574-0.168V402.398h51.188c1.781,55.789,26.715,105.809,65.457,140.813
		c3.285-2.75,6.457-5.629,9.551-8.59C402.051,501.922,378.355,454.898,376.562,402.398L376.562,402.398z M376.562,402.398"/>
	<path d="M429.219,543.211l0.008-0.004c3.277-2.746,6.445-5.621,9.535-8.578c0-0.004,0.004-0.004,0.008-0.008
		c-12.805-11.402-23.98-24.582-33.242-39.094l-28.738-28.738C388.098,496.266,406.191,522.406,429.219,543.211L429.219,543.211z
		 M429.219,543.211"/>
	<path d="M312.574,402.574l-12.972-12.972h-44.965c-0.606-18.957-3.934-37.219-9.516-54.481L221.48,311.48
		c12.129,23.582,19.399,50.051,20.356,78.122H114.164C114.094,391.73,114,393.855,114,396c0,2.145,0.094,4.27,0.164,6.398H241.84
		c-1.848,54.078-26.957,102.328-65.578,135.109c3.179,2.922,6.48,5.711,9.851,8.414c0,0,0.004,0,0.008,0.004
		c40.488-35.105,66.688-86.281,68.516-143.527h45.136v185.445C301.848,587.91,303.91,588,306,588c2.203,0,4.387-0.094,6.574-0.168
		V402.574z M312.574,402.574"/>
</g>
</svg>
