<?xml version="1.0" encoding="utf-8"?>
<!-- Generator: Adobe Illustrator 16.0.0, SVG Export Plug-In . SVG Version: 6.00 Build 0)  -->
<!DOCTYPE svg PUBLIC "-//W3C//DTD SVG 1.1//EN" "http://www.w3.org/Graphics/SVG/1.1/DTD/svg11.dtd">
<svg version="1.1" id="Layer_1" xmlns="http://www.w3.org/2000/svg" xmlns:xlink="http://www.w3.org/1999/xlink" x="0px" y="0px"
	 width="612px" height="792px" viewBox="0 0 612 792" enable-background="new 0 0 612 792" xml:space="preserve">
<g>
	<path d="M388.602,517.398H222.199c-3.535,0-6.398-2.863-6.398-6.398s2.863-6.398,6.398-6.398h166.402
		c3.535,0,6.398,2.863,6.398,6.398S392.137,517.398,388.602,517.398L388.602,517.398z M388.602,517.398"/>
	<path fill="#666666" d="M388.562,196.68c-0.366-3.235-3.104-5.68-6.362-5.68h-25.762c-1.824,0-3.555,0.777-4.773,2.133
		c-1.215,1.359-1.789,3.172-1.59,4.984l3.613,32c0.371,3.235,3.105,5.684,6.363,5.684h25.761c1.825,0,3.556-0.778,4.778-2.137
		c1.211-1.359,1.785-3.172,1.586-4.984L388.562,196.68z M388.562,196.68"/>
	<path fill="#666666" d="M415.301,433.48c-0.371-3.234-3.105-5.68-6.363-5.68h-25.762c-1.824,0-3.555,0.777-4.777,2.133
		c-1.211,1.359-1.785,3.172-1.587,4.984l18.063,160c0.367,3.234,3.105,5.68,6.363,5.68H427c1.824,0,3.555-0.777,4.773-2.133
		c1.215-1.359,1.789-3.172,1.59-4.984L415.301,433.48z M415.301,433.48"/>
	<path fill="#666666" d="M259.055,193.133c-1.219-1.356-2.95-2.133-4.774-2.133H228.52c-3.258,0-5.993,2.445-6.364,5.68l-3.613,32
		c-0.199,1.816,0.375,3.625,1.59,4.984c1.215,1.359,2.949,2.137,4.773,2.137h25.762c3.258,0,5.996-2.449,6.363-5.684l3.614-32
		C260.844,196.305,260.27,194.492,259.055,193.133L259.055,193.133z M259.055,193.133"/>
	<path fill="#666666" d="M232.32,429.934c-1.218-1.355-2.953-2.133-4.777-2.133h-25.762c-3.258,0-5.992,2.445-6.363,5.68
		l-18.063,160c-0.199,1.813,0.375,3.625,1.586,4.984c1.219,1.355,2.954,2.137,4.778,2.137h25.761c3.258,0,5.993-2.449,6.364-5.684
		l18.062-160C234.105,433.105,233.531,431.293,232.32,429.934L232.32,429.934z M232.32,429.934"/>
	<path fill="#EAEAEA" d="M452.602,223H158.199c-7.054,0-12.801,5.742-12.801,12.801v192c0,7.059,5.747,12.801,12.801,12.801h294.402
		c7.055,0,12.797-5.742,12.797-12.801v-192C465.398,228.742,459.656,223,452.602,223L452.602,223z M452.602,223"/>
	<path d="M465.398,466.199h-320c-3.535,0-6.398-2.863-6.398-6.398s2.863-6.402,6.398-6.402h320c3.539,0,6.402,2.867,6.402,6.402
		S468.938,466.199,465.398,466.199L465.398,466.199z M465.398,466.199"/>
	<path d="M215.801,600.602H171c-3.539,0-6.398-2.867-6.398-6.402s2.859-6.398,6.398-6.398h44.801c3.535,0,6.398,2.863,6.398,6.398
		S219.336,600.602,215.801,600.602L215.801,600.602z M215.801,600.602"/>
	<path d="M439.801,600.602H395c-3.539,0-6.398-2.867-6.398-6.402s2.859-6.398,6.398-6.398h44.801c3.535,0,6.398,2.863,6.398,6.398
		S443.336,600.602,439.801,600.602L439.801,600.602z M439.801,600.602"/>
	<path d="M375.801,274.199h-83.199c-2.801,0-5.278,1.821-6.11,4.492l-26.637,85.223l-18.914-47.293
		c-0.972-2.426-3.324-4.019-5.941-4.019h-25.602c-3.535,0-6.398,2.863-6.398,6.398c0,3.535,2.863,6.398,6.398,6.398h21.27
		l23.988,59.981c0.973,2.433,3.336,4.019,5.942,4.019c0.082,0,0.164,0,0.25-0.003c2.707-0.106,5.05-1.903,5.859-4.485L297.305,287
		h78.496c3.535,0,6.398-2.867,6.398-6.398C382.199,277.066,379.336,274.199,375.801,274.199L375.801,274.199z M375.801,274.199"/>
	<path d="M366.762,307.426c-2.867-2.086-6.863-1.453-8.938,1.41l-20.426,28.082l-20.422-28.082c-2.078-2.859-6.078-3.492-8.938-1.41
		c-2.863,2.078-3.496,6.082-1.414,8.941l22.863,31.434l-22.863,31.433c-2.082,2.86-1.449,6.864,1.414,8.942
		c1.137,0.828,2.449,1.222,3.754,1.222c1.98,0,3.934-0.91,5.184-2.632l20.422-28.086l20.426,28.086
		c1.25,1.722,3.199,2.632,5.184,2.632c1.304,0,2.617-0.394,3.754-1.222c2.863-2.078,3.496-6.082,1.414-8.942l-22.864-31.433
		l22.864-31.434C370.258,313.508,369.625,309.504,366.762,307.426L366.762,307.426z M366.762,307.426"/>
</g>
</svg>
