<?xml version="1.0" encoding="utf-8"?>
<!-- Generator: Adobe Illustrator 16.0.0, SVG Export Plug-In . SVG Version: 6.00 Build 0)  -->
<!DOCTYPE svg PUBLIC "-//W3C//DTD SVG 1.1//EN" "http://www.w3.org/Graphics/SVG/1.1/DTD/svg11.dtd">
<svg version="1.1" id="Layer_1" xmlns="http://www.w3.org/2000/svg" xmlns:xlink="http://www.w3.org/1999/xlink" x="0px" y="0px"
	 width="612px" height="792px" viewBox="0 0 612 792" enable-background="new 0 0 612 792" xml:space="preserve">
<g>
	<path fill="#FFEBB7" d="M487.824,575.199h-300c-32.254,0-58.398-26.145-58.398-58.398v-11.199
		c0-32.254,26.144-58.402,58.398-58.402h300V575.199z M487.824,575.199"/>
	<rect x="142.227" y="460" fill="#FEFDFF" width="32" height="102.398"/>
	<path fill="#FFEBB7" d="M457.426,428H116.625v-89.602h340.801c9.719,0,17.598,7.883,17.598,17.602v54.398
		C475.023,420.121,467.145,428,457.426,428L457.426,428z M457.426,428"/>
	<rect x="161.426" y="223.199" fill="#FFEBB7" width="326.398" height="96"/>
	<path fill="#E2D829" d="M488,588H193.602c-42.348,0-76.801-34.449-76.801-76.801s34.453-76.801,76.801-76.801H488
		c7.07,0,12.801,5.734,12.801,12.801c0,7.07-5.73,12.801-12.801,12.801H193.602c-28.235,0-51.204,22.969-51.204,51.199
		s22.969,51.199,51.204,51.199H488c7.07,0,12.801,5.734,12.801,12.801C500.801,582.27,495.07,588,488,588L488,588z M488,588"/>
	<path fill="#C92F00" d="M449.602,434.398H110.398c-3.535,0-6.398-2.859-6.398-6.398s2.863-6.398,6.398-6.398h339.204
		c10.586,0,19.199-8.613,19.199-19.203V364c0-10.586-8.613-19.199-19.199-19.199H110.398c-3.535,0-6.398-2.863-6.398-6.403
		c0-3.535,2.863-6.398,6.398-6.398h339.204c17.641,0,32,14.355,32,32v38.398C481.602,420.043,467.242,434.398,449.602,434.398
		L449.602,434.398z M449.602,434.398"/>
	<path fill="#E6BE94" d="M487.824,255.199H193.426c-3.535,0-6.403-2.863-6.403-6.398c0-3.535,2.868-6.403,6.403-6.403h294.398
		V255.199z M487.824,255.199"/>
	<path fill="#E6BE94" d="M487.824,280.801H193.426c-3.535,0-6.403-2.867-6.403-6.403c0-3.531,2.868-6.398,6.403-6.398h294.398
		V280.801z M487.824,280.801"/>
	<path fill="#E6BE94" d="M487.824,306.398H193.426c-3.535,0-6.403-2.863-6.403-6.398s2.868-6.398,6.403-6.398h294.398V306.398z
		 M487.824,306.398"/>
	<path fill="#E6BE94" d="M116.625,357.602h332.801c3.535,0,6.398,2.863,6.398,6.398s-2.863,6.398-6.398,6.398H116.625V357.602z
		 M116.625,357.602"/>
	<path fill="#E6BE94" d="M116.625,383.199h332.801c3.535,0,6.398,2.867,6.398,6.403c0,3.531-2.863,6.398-6.398,6.398H116.625
		V383.199z M116.625,383.199"/>
	<path fill="#E6BE94" d="M116.625,408.801h332.801c3.535,0,6.398,2.863,6.398,6.398s-2.863,6.402-6.398,6.402H116.625V408.801z
		 M116.625,408.801"/>
	<path fill="#772F13" d="M494.398,332H187.199c-21.176,0-38.398-17.227-38.398-38.398v-51.204c0-21.171,17.222-38.398,38.398-38.398
		h307.199c7.07,0,12.801,5.73,12.801,12.801c0,7.066-5.73,12.801-12.801,12.801H187.199c-7.058,0-12.801,5.738-12.801,12.796v51.204
		c0,7.054,5.743,12.796,12.801,12.796h307.199c7.07,0,12.801,5.735,12.801,12.801C507.199,326.27,501.469,332,494.398,332
		L494.398,332z M494.398,332"/>
	<path fill="#E6BE94" d="M193.426,549.602c-3.539,0-6.403,2.859-6.403,6.398s2.864,6.398,6.403,6.398h294.398v-12.797H193.426z
		 M193.426,549.602"/>
	<path fill="#E6BE94" d="M193.426,524c-3.539,0-6.403,2.863-6.403,6.398c0,3.539,2.864,6.402,6.403,6.402h294.398V524H193.426z
		 M193.426,524"/>
	<path fill="#E6BE94" d="M193.426,498.398c-3.539,0-6.403,2.863-6.403,6.402c0,3.535,2.864,6.398,6.403,6.398h294.398v-12.801
		H193.426z M193.426,498.398"/>
	<path fill="#E6BE94" d="M193.426,472.801c-3.539,0-6.403,2.863-6.403,6.398c0,3.539,2.864,6.402,6.403,6.402h294.398v-12.801
		H193.426z M193.426,472.801"/>
</g>
</svg>
