<?xml version="1.0" encoding="utf-8"?>
<!-- Generator: Adobe Illustrator 16.0.0, SVG Export Plug-In . SVG Version: 6.00 Build 0)  -->
<!DOCTYPE svg PUBLIC "-//W3C//DTD SVG 1.1//EN" "http://www.w3.org/Graphics/SVG/1.1/DTD/svg11.dtd">
<svg version="1.1" id="Layer_1" xmlns="http://www.w3.org/2000/svg" xmlns:xlink="http://www.w3.org/1999/xlink" x="0px" y="0px"
	 width="612px" height="792px" viewBox="0 0 612 792" enable-background="new 0 0 612 792" xml:space="preserve">
<g>
	<g>
		<defs>
			<rect id="SVGID_1_" x="146" y="191" width="319.92" height="410.88"/>
		</defs>
		<clipPath id="SVGID_2_">
			<use xlink:href="#SVGID_1_"  overflow="visible"/>
		</clipPath>
		<path clip-path="url(#SVGID_2_)" fill="#FF0808" d="M446.801,197.718H165.199c-10.586,0-19.199,8.614-19.199,19.204v364.796
			c0,10.59,8.613,19.204,19.199,19.204h281.602c10.586,0,19.199-8.614,19.199-19.204V216.922
			C466,206.332,457.387,197.718,446.801,197.718L446.801,197.718z M446.801,197.718"/>
	</g>
	<path fill="#106B10" d="M177.824,197.718h-12.625c-10.586,0-19.199,8.614-19.199,19.204v364.796
		c0,10.59,8.613,19.204,19.199,19.204h12.625V197.718z M177.824,197.718"/>
	<path fill="#F4F4F4" d="M421.199,191.32h-64c-3.535,0-6.398,2.867-6.398,6.398v96c0,2.305,1.238,4.434,3.242,5.567
		c2.008,1.137,4.469,1.113,6.453-0.082l28.703-17.223l28.707,17.227c1.012,0.609,2.156,0.91,3.293,0.91
		c1.09,0,2.176-0.274,3.156-0.832c2.008-1.133,3.246-3.262,3.246-5.567v-96C427.602,194.187,424.734,191.32,421.199,191.32
		L421.199,191.32z M421.199,191.32"/>
	<path fill="#043F0F" d="M178,575.32c-3.539,0-6.398-2.867-6.398-6.398V229.718c0-3.531,2.859-6.398,6.398-6.398
		s6.398,2.867,6.398,6.398v339.204C184.398,572.453,181.539,575.32,178,575.32L178,575.32z M178,575.32"/>
	<path fill="#FFCD00" d="M385.824,466.519h-0.457c-0.059-0.219-0.066-0.433-0.137-0.651L349.008,351.16
		c4.543-0.758,8.016-4.68,8.016-9.442c0-5.3-4.297-9.597-9.598-9.597h-51.199c-5.301,0-9.602,4.297-9.602,9.597
		c0,4.762,3.473,8.684,8.016,9.442l-36.223,114.707c-0.07,0.219-0.078,0.433-0.137,0.651h-0.457c-5.301,0-9.597,4.298-9.597,9.603
		c0,5.301,4.296,9.597,9.597,9.597h25.602c5.301,0,9.597-4.296,9.597-9.597c0-4.762-3.472-8.685-8.015-9.442l7.125-22.558h59.383
		l7.125,22.558c-4.543,0.758-8.016,4.681-8.016,9.442c0,5.301,4.301,9.597,9.598,9.597h25.602c5.301,0,9.602-4.296,9.602-9.597
		C395.426,470.816,391.125,466.519,385.824,466.519L385.824,466.519z M300.215,418.519l21.016-66.547
		c0.07-0.215,0.081-0.433,0.137-0.652h0.914c0.059,0.219,0.066,0.437,0.137,0.652l21.016,66.547H300.215z M300.215,418.519"/>
</g>
</svg>
