<?xml version="1.0" encoding="utf-8"?>
<!-- Generator: Adobe Illustrator 16.0.0, SVG Export Plug-In . SVG Version: 6.00 Build 0)  -->
<!DOCTYPE svg PUBLIC "-//W3C//DTD SVG 1.1//EN" "http://www.w3.org/Graphics/SVG/1.1/DTD/svg11.dtd">
<svg version="1.1" id="Layer_1" xmlns="http://www.w3.org/2000/svg" xmlns:xlink="http://www.w3.org/1999/xlink" x="0px" y="0px"
	 width="612px" height="792px" viewBox="0 0 612 792" enable-background="new 0 0 612 792" xml:space="preserve">
<g>
	<path fill="#B7B7B7" d="M366.426,278c-5.309,0-9.602-2.867-9.602-6.398V246c0-3.535,4.293-6.398,9.602-6.398
		c5.305,0,9.598,2.863,9.598,6.398v25.602C376.023,275.133,371.73,278,366.426,278L366.426,278z M366.426,278"/>
	<path fill="#B7B7B7" d="M244.824,278c-5.304,0-9.597-2.867-9.597-6.398V246c0-3.535,4.293-6.398,9.597-6.398
		c5.309,0,9.602,2.863,9.602,6.398v25.602C254.426,275.133,250.133,278,244.824,278L244.824,278z M244.824,278"/>
	<path d="M491.398,431.602H120.199c-3.535,0-6.398,2.863-6.398,6.398v108.801c0,17.644,14.355,32,32,32h320
		c17.645,0,32-14.356,32-32V438C497.801,434.465,494.938,431.602,491.398,431.602L491.398,431.602z M491.398,431.602"/>
	<path fill="#595958" d="M478.602,271.602H133c-17.645,0-32,14.355-32,32v111.363c0,12.871,7.73,24.479,19.699,29.578
		c52.684,22.444,108.414,35.02,165.903,37.387H325c0.086,0,0.176-0.004,0.262-0.008c57.227-2.359,112.957-14.935,165.645-37.379
		c11.961-5.099,19.695-16.707,19.695-29.578V303.602C510.602,285.957,496.242,271.602,478.602,271.602L478.602,271.602z
		 M478.602,271.602"/>
	<path fill="#B7B7B7" d="M382.602,412.397c0-14.112-11.484-25.597-25.602-25.597H254.602c-14.122,0-25.602,11.484-25.602,25.597
		v63.552c18.973,3.116,38.176,5.18,57.602,5.98H325c0.086,0,0.176-0.004,0.262-0.008c19.309-0.797,38.43-2.856,57.34-5.965V412.397z
		 M382.602,412.397"/>
	<path fill="#FFCD00" d="M312.199,502h-12.801c-7.066,0-12.796-5.73-12.796-12.801v-25.598c0-7.07,5.73-12.801,12.796-12.801h12.801
		c7.07,0,12.801,5.73,12.801,12.801v25.598C325,496.27,319.27,502,312.199,502L312.199,502z M312.199,502"/>
	<path d="M376.207,248.996c-1.227,0-2.465-0.176-3.699-0.547c-19.227-5.789-42.297-8.847-66.707-8.847
		c-24.414,0-47.481,3.058-66.711,8.847c-6.77,2.051-13.906-1.801-15.945-8.566c-2.04-6.77,1.796-13.91,8.562-15.945
		c21.594-6.5,47.215-9.938,74.094-9.938c26.875,0,52.5,3.438,74.09,9.938c6.77,2.039,10.602,9.179,8.566,15.949
		C386.789,245.422,381.707,248.996,376.207,248.996L376.207,248.996z M376.207,248.996"/>
	<path fill="#FFE671" d="M318.426,450.801h-25.602c-3.535,0-6.398,2.863-6.398,6.398V470c0,7.069,5.73,12.801,12.801,12.801h12.796
		c7.07,0,12.801-5.731,12.801-12.801v-12.801C324.824,453.664,321.961,450.801,318.426,450.801L318.426,450.801z M318.426,450.801"
		/>
</g>
</svg>
