<?xml version="1.0" encoding="utf-8"?>
<!-- Generator: Adobe Illustrator 16.0.0, SVG Export Plug-In . SVG Version: 6.00 Build 0)  -->
<!DOCTYPE svg PUBLIC "-//W3C//DTD SVG 1.1//EN" "http://www.w3.org/Graphics/SVG/1.1/DTD/svg11.dtd">
<svg version="1.1" id="Layer_1" xmlns="http://www.w3.org/2000/svg" xmlns:xlink="http://www.w3.org/1999/xlink" x="0px" y="0px"
	 width="612px" height="792px" viewBox="0 0 612 792" enable-background="new 0 0 612 792" xml:space="preserve">
<g>
	<g>
		<defs>
			<rect id="SVGID_1_" x="146" y="191" width="319.92" height="410.88"/>
		</defs>
		<clipPath id="SVGID_2_">
			<use xlink:href="#SVGID_1_"  overflow="visible"/>
		</clipPath>
		<path clip-path="url(#SVGID_2_)" d="M459.602,280.922h-12.801c-24.699,0-44.801-20.098-44.801-44.801c0-17.645-14.355-32-32-32
			h-44.801c-31.761,0-57.597,25.84-57.597,57.597c0,3.536-2.864,6.403-6.403,6.403c-3.535,0-6.398-2.867-6.398-6.403
			c0-38.816,31.582-70.398,70.398-70.398H370c24.699,0,44.801,20.098,44.801,44.801c0,17.644,14.355,32,32,32h12.801
			c3.535,0,6.398,2.863,6.398,6.398C466,278.054,463.137,280.922,459.602,280.922L459.602,280.922z M459.602,280.922"/>
	</g>
	<path d="M306,255.32h-89.602c-38.816,0-70.398,31.582-70.398,70.398v160c0,63.524,51.68,115.204,115.199,115.204
		c63.52,0,115.199-51.68,115.199-115.204v-160C376.398,286.902,344.82,255.32,306,255.32L306,255.32z M306,255.32"/>
	<path d="M306,255.32h-44.977v345.59c0.063,0,0.118,0.012,0.176,0.012c63.52,0,115.199-51.68,115.199-115.204v-160
		C376.398,286.902,344.82,255.32,306,255.32L306,255.32z M306,255.32"/>
	<path fill="#5C546A" d="M344.398,266.793c-11.055-7.231-24.23-11.473-38.398-11.473h-89.602c-14.164,0-27.343,4.242-38.398,11.473
		v110.129c0,24.703,20.102,44.796,44.801,44.796h76.801c24.699,0,44.796-20.093,44.796-44.796V266.793z M344.398,266.793"/>
	<path fill="#868491" d="M261.023,255.32v166.398h38.579c24.699,0,44.796-20.093,44.796-44.796V266.793
		c-11.055-7.231-24.23-11.473-38.398-11.473H261.023z M261.023,255.32"/>
	<path fill="#B4B6BC" d="M261.199,370.519c-7.07,0-12.801-5.73-12.801-12.801V319.32c0-7.07,5.731-12.801,12.801-12.801
		c7.071,0,12.801,5.731,12.801,12.801v38.398C274,364.789,268.27,370.519,261.199,370.519L261.199,370.519z M261.199,370.519"/>
	<path fill="#FFFFFF" d="M261.199,306.519c-0.058,0-0.113,0.02-0.176,0.02v63.965c0.063,0,0.118,0.015,0.176,0.015
		c7.071,0,12.801-5.73,12.801-12.801V319.32C274,312.25,268.27,306.519,261.199,306.519L261.199,306.519z M261.199,306.519"/>
</g>
</svg>
