<?xml version="1.0" encoding="utf-8"?>
<!-- Generator: Adobe Illustrator 16.0.0, SVG Export Plug-In . SVG Version: 6.00 Build 0)  -->
<!DOCTYPE svg PUBLIC "-//W3C//DTD SVG 1.1//EN" "http://www.w3.org/Graphics/SVG/1.1/DTD/svg11.dtd">
<svg version="1.1" id="Layer_1" xmlns="http://www.w3.org/2000/svg" xmlns:xlink="http://www.w3.org/1999/xlink" x="0px" y="0px"
	 width="612px" height="792px" viewBox="0 0 612 792" enable-background="new 0 0 612 792" xml:space="preserve">
<g>
	<g>
		<defs>
			<rect id="SVGID_1_" x="190" y="191" width="230.88" height="410.88"/>
		</defs>
		<clipPath id="SVGID_2_">
			<use xlink:href="#SVGID_1_"  overflow="visible"/>
		</clipPath>
		<path clip-path="url(#SVGID_2_)" d="M394.629,447.316H215.43c-3.539,0-6.403-2.866-6.403-6.398c0-3.535,2.864-6.402,6.403-6.402
			h179.199c3.535,0,6.398,2.867,6.398,6.402C401.027,444.45,398.164,447.316,394.629,447.316L394.629,447.316z M394.629,447.316"/>
		<path clip-path="url(#SVGID_2_)" d="M413.824,600.918c0.637,0,1.281-0.093,1.918-0.297c3.375-1.063,5.25-4.652,4.188-8.027
			l-15.355-48.777c-1.07-3.37-4.668-5.241-8.023-4.18c-3.379,1.06-5.254,4.652-4.188,8.024l15.355,48.776
			C408.582,599.168,411.105,600.918,413.824,600.918L413.824,600.918z M413.824,600.918"/>
		<path clip-path="url(#SVGID_2_)" fill="#B4B6BC" d="M307.723,300.118l81.266,257.286c1.715,5.465,6.766,8.961,12.203,8.961
			c1.273,0,2.57-0.192,3.848-0.595c6.746-2.121,10.488-9.309,8.367-16.055L329.16,282.989L307.723,300.118z M307.723,300.118"/>
		<path clip-path="url(#SVGID_2_)" d="M196.402,600.918c-0.636,0-1.281-0.093-1.918-0.297c-3.375-1.063-5.25-4.652-4.187-8.027
			l15.355-48.777c1.071-3.37,4.672-5.241,8.028-4.18c3.375,1.06,5.25,4.652,4.187,8.024l-15.359,48.776
			C201.645,599.168,199.121,600.918,196.402,600.918L196.402,600.918z M196.402,600.918"/>
	</g>
	<path fill="#B4B6BC" d="M302.504,300.118l-81.262,257.286c-1.719,5.465-6.765,8.961-12.207,8.961c-1.273,0-2.57-0.192-3.847-0.595
		c-6.747-2.121-10.489-9.309-8.368-16.055l84.246-266.726L302.504,300.118z M302.504,300.118"/>
	<path d="M305.203,248.918c-7.07,0-12.801-5.734-12.801-12.8v-32c0-7.071,5.731-12.801,12.801-12.801
		c7.066,0,12.801,5.73,12.801,12.801v32C318.004,243.184,312.27,248.918,305.203,248.918L305.203,248.918z M305.203,248.918"/>
	<path fill="#0008A0" d="M318.004,223.317h-25.602c-10.586,0-19.199,8.613-19.199,19.199v32c0,17.646,14.356,32,32,32
		c17.645,0,32-14.355,32-32v-32C337.203,231.93,328.59,223.317,318.004,223.317L318.004,223.317z M318.004,223.317"/>
	<path fill="#0008A0" d="M316.402,466.516h-22.398c-0.883,0-1.602-0.715-1.602-1.598v-48c0-0.886,0.719-1.602,1.602-1.602h22.398
		c0.887,0,1.602,0.716,1.602,1.602v48C318.004,465.801,317.285,466.516,316.402,466.516L316.402,466.516z M316.402,466.516"/>
	<path fill="#5C546A" d="M317.828,274.516c0,7.07-5.73,12.801-12.801,12.801c-7.07,0-12.8-5.731-12.8-12.801
		c0-7.07,5.73-12.801,12.8-12.801C312.098,261.715,317.828,267.446,317.828,274.516L317.828,274.516z M317.828,274.516"/>
</g>
</svg>
