<?xml version="1.0" encoding="utf-8"?>
<!-- Generator: Adobe Illustrator 16.0.0, SVG Export Plug-In . SVG Version: 6.00 Build 0)  -->
<!DOCTYPE svg PUBLIC "-//W3C//DTD SVG 1.1//EN" "http://www.w3.org/Graphics/SVG/1.1/DTD/svg11.dtd">
<svg version="1.1" id="Layer_1" xmlns="http://www.w3.org/2000/svg" xmlns:xlink="http://www.w3.org/1999/xlink" x="0px" y="0px"
	 width="612px" height="792px" viewBox="0 0 612 792" enable-background="new 0 0 612 792" xml:space="preserve">
<g>
	<rect x="427.398" y="249.398" fill="#FFEBB7" width="70.401" height="25.602"/>
	<rect x="414.602" y="287.801" fill="#FFEBB7" width="70.398" height="25.598"/>
	<path fill="#5C546A" d="M241.801,403c-3.539,0-6.403-2.862-6.403-6.398V371c0-3.539,2.864-6.398,6.403-6.398
		c3.535,0,6.398,2.859,6.398,6.398v25.602C248.199,400.138,245.336,403,241.801,403L241.801,403z M241.801,403"/>
	<path fill="#5C546A" d="M369.801,403c-3.539,0-6.402-2.862-6.402-6.398V371c0-3.539,2.863-6.398,6.402-6.398
		c3.535,0,6.398,2.859,6.398,6.398v25.602C376.199,400.138,373.336,403,369.801,403L369.801,403z M369.801,403"/>
	<path d="M376.199,262.199H235.398c-10.586,0-19.199,8.613-19.199,19.199v76.801c0,10.59,8.613,19.199,19.199,19.199h140.801
		c10.59,0,19.199-8.609,19.199-19.199v-76.801C395.398,270.812,386.789,262.199,376.199,262.199L376.199,262.199z M376.199,262.199"
		/>
	<path fill="#5C546A" d="M222.602,531c-3.54,0-6.403-2.863-6.403-6.397V422.199c0-3.535,2.863-6.398,6.403-6.398
		c3.535,0,6.398,2.863,6.398,6.398v102.403C229,528.137,226.137,531,222.602,531L222.602,531z M222.602,531"/>
	<path d="M126.602,531c-3.54,0-6.403-2.863-6.403-6.397V345.398c0-3.535,2.863-6.398,6.403-6.398c3.535,0,6.398,2.863,6.398,6.398
		v179.204C133,528.137,130.137,531,126.602,531L126.602,531z M126.602,531"/>
	<path fill="#868491" d="M126.602,518.199c-7.071,0-12.801,5.731-12.801,12.801v12.801c0,3.535,2.863,6.398,6.398,6.398H133
		c3.535,0,6.398-2.863,6.398-6.398V531C139.398,523.931,133.668,518.199,126.602,518.199L126.602,518.199z M126.602,518.199"/>
	<path d="M485,531c-3.539,0-6.402-2.863-6.402-6.397V345.398c0-3.535,2.863-6.398,6.402-6.398c3.535,0,6.398,2.863,6.398,6.398
		v179.204C491.398,528.137,488.535,531,485,531L485,531z M485,531"/>
	<path fill="#868491" d="M485,518.199c-7.07,0-12.801,5.731-12.801,12.801v12.801c0,3.535,2.867,6.398,6.402,6.398h12.797
		c3.535,0,6.402-2.863,6.402-6.398V531C497.801,523.931,492.07,518.199,485,518.199L485,518.199z M485,518.199"/>
	<path fill="#5C546A" d="M389,531c-3.539,0-6.402-2.863-6.402-6.397V422.199c0-3.535,2.863-6.398,6.402-6.398
		c3.535,0,6.398,2.863,6.398,6.398v102.403C395.398,528.137,392.535,531,389,531L389,531z M389,531"/>
	<path fill="#5C546A" d="M389,486.199H222.602c-3.54,0-6.403-2.863-6.403-6.398c0-3.539,2.863-6.402,6.403-6.402H389
		c3.539,0,6.398,2.863,6.398,6.402C395.398,483.336,392.535,486.199,389,486.199L389,486.199z M389,486.199"/>
	<path fill="#FF0000" d="M485.176,319.801h-57.602c-10.586,0-19.199-8.614-19.199-19.199c0-10.59,8.613-19.204,19.199-19.204h57.602
		c3.535,0,6.398,2.864,6.398,6.403c0,3.535-2.863,6.398-6.398,6.398h-57.602c-3.531,0-6.398,2.871-6.398,6.403
		c0,3.531,2.867,6.398,6.398,6.398h57.602c3.535,0,6.398,2.863,6.398,6.398C491.574,316.937,488.711,319.801,485.176,319.801
		L485.176,319.801z M485.176,319.801"/>
	<path fill="#0500D3" d="M497.977,281.398h-57.602c-10.586,0-19.199-8.609-19.199-19.199c0-10.586,8.613-19.199,19.199-19.199
		h57.602c3.535,0,6.398,2.863,6.398,6.398c0,3.539-2.863,6.403-6.398,6.403h-57.602c-3.531,0-6.398,2.867-6.398,6.398
		c0,3.531,2.867,6.403,6.398,6.403h57.602c3.535,0,6.398,2.859,6.398,6.398S501.512,281.398,497.977,281.398L497.977,281.398z
		 M497.977,281.398"/>
	<path fill="#0009AF" d="M177.801,287.801c-3.539,0-6.403-2.864-6.403-6.403v-32c0-3.535,2.864-6.398,6.403-6.398
		c3.535,0,6.398,2.863,6.398,6.398v32C184.199,284.937,181.336,287.801,177.801,287.801L177.801,287.801z M177.801,287.801"/>
	<path fill="#E0E510" d="M165,294.199c-3.539,0-6.398-2.863-6.398-6.398v-32c0-3.539,2.859-6.403,6.398-6.403
		s6.398,2.864,6.398,6.403v32C171.398,291.336,168.539,294.199,165,294.199L165,294.199z M165,294.199"/>
	<path fill="#E6BE94" d="M497.801,345.398h-384c-7.071,0-12.801-5.73-12.801-12.796c0-7.071,5.73-12.801,12.801-12.801h384
		c7.07,0,12.801,5.73,12.801,12.801C510.602,339.668,504.867,345.398,497.801,345.398L497.801,345.398z M497.801,345.398"/>
	<path fill="#868491" d="M222.426,518.199c-7.071,0-12.801,5.731-12.801,12.801v12.801c0,3.535,2.867,6.398,6.398,6.398h12.801
		c3.535,0,6.403-2.863,6.403-6.398V531C235.227,523.931,229.492,518.199,222.426,518.199L222.426,518.199z M222.426,518.199"/>
	<path fill="#868491" d="M388.824,518.199c-7.07,0-12.801,5.731-12.801,12.801v12.801c0,3.535,2.867,6.398,6.402,6.398h12.801
		c3.531,0,6.398-2.863,6.398-6.398V531C401.625,523.931,395.895,518.199,388.824,518.199L388.824,518.199z M388.824,518.199"/>
	<path d="M395.398,422.199H216.199c-7.07,0-12.801-5.73-12.801-12.801V403c0-3.535,2.868-6.398,6.403-6.398h192
		c3.535,0,6.398,2.863,6.398,6.398v6.398C408.199,416.469,402.469,422.199,395.398,422.199L395.398,422.199z M395.398,422.199"/>
	<path fill="#5C546A" d="M186.91,275h-37.422c-1.945,0-3.441,1.727-3.168,3.652l5.879,41.149h32l5.879-41.149
		C190.355,276.727,188.859,275,186.91,275L186.91,275z M186.91,275"/>
	<path fill="#868491" d="M186.91,275h-18.711v44.801h16l5.879-41.149C190.355,276.727,188.859,275,186.91,275L186.91,275z
		 M186.91,275"/>
</g>
</svg>
