<?xml version="1.0" encoding="utf-8"?>
<!-- Generator: Adobe Illustrator 16.0.0, SVG Export Plug-In . SVG Version: 6.00 Build 0)  -->
<!DOCTYPE svg PUBLIC "-//W3C//DTD SVG 1.1//EN" "http://www.w3.org/Graphics/SVG/1.1/DTD/svg11.dtd">
<svg version="1.1" id="Layer_1" xmlns="http://www.w3.org/2000/svg" xmlns:xlink="http://www.w3.org/1999/xlink" x="0px" y="0px"
	 width="612px" height="792px" viewBox="0 0 612 792" enable-background="new 0 0 612 792" xml:space="preserve">
<g>
	<path fill="#FFEBB7" d="M491.398,249H120.199C109.613,249,101,257.613,101,268.199v256c0,10.59,8.613,19.199,19.199,19.199h371.199
		c10.59,0,19.203-8.609,19.203-19.199v-256C510.602,257.613,501.988,249,491.398,249L491.398,249z M491.398,249"/>
	<path fill="#C10000" d="M133.02,319.398c-1.731,0-3.395-0.703-4.551-1.855c-1.211-1.215-1.852-2.816-1.852-4.543
		c0-1.664,0.641-3.328,1.852-4.543c2.367-2.371,6.656-2.371,9.093,0c1.149,1.215,1.856,2.879,1.856,4.543s-0.707,3.328-1.856,4.543
		C136.344,318.695,134.68,319.398,133.02,319.398L133.02,319.398z M133.02,319.398"/>
	<path d="M133,460.199c-3.539,0-6.398-2.863-6.398-6.398V338.598c0-3.535,2.859-6.403,6.398-6.403s6.398,2.868,6.398,6.403v115.203
		C139.398,457.336,136.539,460.199,133,460.199L133,460.199z M133,460.199"/>
	<path d="M478.602,460.199c-3.539,0-6.402-2.863-6.402-6.398V338.598c0-3.535,2.863-6.403,6.402-6.403
		c3.535,0,6.398,2.868,6.398,6.403v115.203C485,457.336,482.137,460.199,478.602,460.199L478.602,460.199z M478.602,460.199"/>
	<path d="M421,517.801H190.602c-3.54,0-6.403-2.867-6.403-6.402c0-3.531,2.863-6.398,6.403-6.398H421
		c3.539,0,6.398,2.867,6.398,6.398C427.398,514.934,424.539,517.801,421,517.801L421,517.801z M421,517.801"/>
	<path d="M421,287.398H190.602c-3.54,0-6.403-2.863-6.403-6.398c0-3.535,2.863-6.398,6.403-6.398H421
		c3.539,0,6.398,2.863,6.398,6.398C427.398,284.535,424.539,287.398,421,287.398L421,287.398z M421,287.398"/>
	<path fill="#C10000" d="M165.02,287.398c-1.731,0-3.332-0.703-4.551-1.855c-1.211-1.215-1.852-2.879-1.852-4.543
		s0.641-3.328,1.852-4.543c2.437-2.371,6.656-2.371,9.023,0c1.219,1.215,1.926,2.879,1.926,4.543s-0.707,3.328-1.856,4.543
		C168.344,286.695,166.68,287.398,165.02,287.398L165.02,287.398z M165.02,287.398"/>
	<path fill="#595959" d="M152.199,306.602c-1.637,0-3.273-0.625-4.523-1.875l-19.199-19.204c-2.5-2.5-2.5-6.55,0-9.05
		s6.546-2.5,9.046,0l19.204,19.203c2.5,2.5,2.5,6.551,0,9.051C155.477,305.977,153.836,306.602,152.199,306.602L152.199,306.602z
		 M152.199,306.602"/>
	<path fill="#C10000" d="M446.617,287.398c-1.73,0-3.391-0.703-4.551-1.855c-1.211-1.215-1.848-2.879-1.848-4.543
		s0.637-3.328,1.848-4.543c2.371-2.371,6.656-2.371,9.027,0c1.219,1.215,1.926,2.879,1.926,4.543s-0.707,3.328-1.859,4.543
		C449.945,286.695,448.281,287.398,446.617,287.398L446.617,287.398z M446.617,287.398"/>
	<path fill="#C10000" d="M478.617,319.398c-1.73,0-3.391-0.703-4.551-1.855c-1.211-1.215-1.848-2.879-1.848-4.543
		s0.637-3.328,1.848-4.543c2.371-2.371,6.727-2.371,9.027,0c1.219,1.215,1.926,2.879,1.926,4.543s-0.707,3.328-1.926,4.543
		C481.945,318.695,480.281,319.398,478.617,319.398L478.617,319.398z M478.617,319.398"/>
	<path fill="#595959" d="M459.398,306.602c-1.637,0-3.273-0.625-4.523-1.875c-2.5-2.5-2.5-6.551,0-9.051l19.199-19.203
		c2.5-2.5,6.551-2.5,9.051,0s2.5,6.55,0,9.05l-19.199,19.204C462.676,305.977,461.039,306.602,459.398,306.602L459.398,306.602z
		 M459.398,306.602"/>
	<path fill="#C10000" d="M478.617,485.801c-1.668,0-3.328-0.707-4.551-1.855c-1.211-1.219-1.848-2.883-1.848-4.547
		s0.637-3.328,1.848-4.543c2.371-2.367,6.656-2.367,9.027,0c1.219,1.215,1.926,2.879,1.926,4.543s-0.707,3.328-1.926,4.547
		C481.945,485.094,480.281,485.801,478.617,485.801L478.617,485.801z M478.617,485.801"/>
	<path fill="#C10000" d="M446.617,517.801c-1.73,0-3.391-0.707-4.551-1.855c-1.211-1.219-1.848-2.816-1.848-4.547
		c0-1.727,0.637-3.328,1.848-4.543c2.371-2.367,6.656-2.367,9.027,0c1.219,1.215,1.926,2.879,1.926,4.543s-0.707,3.328-1.926,4.547
		C449.945,517.094,448.281,517.801,446.617,517.801L446.617,517.801z M446.617,517.801"/>
	<path fill="#595959" d="M478.602,517.801c-1.641,0-3.277-0.625-4.527-1.875l-19.199-19.199c-2.5-2.5-2.5-6.551,0-9.051
		s6.551-2.5,9.051,0l19.199,19.199c2.5,2.5,2.5,6.551,0,9.051C481.875,517.176,480.238,517.801,478.602,517.801L478.602,517.801z
		 M478.602,517.801"/>
	<path fill="#C10000" d="M165.02,517.801c-1.672,0-3.332-0.707-4.551-1.855c-1.211-1.219-1.852-2.883-1.852-4.547
		s0.641-3.328,1.852-4.543c2.367-2.367,6.656-2.367,9.093,0c1.149,1.215,1.856,2.879,1.856,4.543s-0.707,3.328-1.856,4.547
		C168.344,517.094,166.68,517.801,165.02,517.801L165.02,517.801z M165.02,517.801"/>
	<path fill="#C10000" d="M133.02,485.801c-1.731,0-3.395-0.707-4.551-1.855c-1.211-1.219-1.852-2.816-1.852-4.547
		c0-1.664,0.641-3.328,1.852-4.543c2.367-2.367,6.656-2.367,9.093,0c1.149,1.215,1.856,2.879,1.856,4.543s-0.707,3.328-1.856,4.547
		C136.344,485.094,134.68,485.801,133.02,485.801L133.02,485.801z M133.02,485.801"/>
	<path fill="#595959" d="M133,517.801c-1.637,0-3.273-0.625-4.523-1.875c-2.5-2.5-2.5-6.551,0-9.051l19.199-19.199
		c2.5-2.5,6.551-2.5,9.051,0s2.5,6.551,0,9.051l-19.204,19.199C136.273,517.176,134.637,517.801,133,517.801L133,517.801z
		 M133,517.801"/>
	<path fill="#C10000" d="M357,325.801H254.602c-3.54,0-6.403-2.867-6.403-6.403c0-3.531,2.863-6.398,6.403-6.398H357
		c3.539,0,6.398,2.867,6.398,6.398C363.398,322.934,360.539,325.801,357,325.801L357,325.801z M357,325.801"/>
	<path d="M421,351.398H190.602c-3.54,0-6.403-2.863-6.403-6.398c0-3.535,2.863-6.398,6.403-6.398H421
		c3.539,0,6.398,2.863,6.398,6.398C427.398,348.535,424.539,351.398,421,351.398L421,351.398z M421,351.398"/>
	<path fill="#C9A07C" d="M331.398,396.199H190.602c-3.54,0-6.403-2.863-6.403-6.398c0-3.535,2.863-6.403,6.403-6.403h140.796
		c3.539,0,6.402,2.868,6.402,6.403C337.801,393.336,334.938,396.199,331.398,396.199L331.398,396.199z M331.398,396.199"/>
	<path fill="#C9A07C" d="M293,473H190.602c-3.54,0-6.403-2.867-6.403-6.398c0-3.535,2.863-6.402,6.403-6.402H293
		c3.539,0,6.398,2.867,6.398,6.402C299.398,470.133,296.539,473,293,473L293,473z M293,473"/>
	<path fill="#C9A07C" d="M318.602,447.398h-128c-3.54,0-6.403-2.863-6.403-6.398s2.863-6.398,6.403-6.398h128
		c3.535,0,6.398,2.863,6.398,6.398S322.137,447.398,318.602,447.398L318.602,447.398z M318.602,447.398"/>
	<path fill="#C9A07C" d="M267.398,421.801h-76.796c-3.54,0-6.403-2.867-6.403-6.402c0-3.531,2.863-6.398,6.403-6.398h76.796
		c3.54,0,6.403,2.867,6.403,6.398C273.801,418.934,270.938,421.801,267.398,421.801L267.398,421.801z M267.398,421.801"/>
	<path fill="#C9A07C" d="M305.801,421.801H293c-3.539,0-6.398-2.867-6.398-6.402c0-3.531,2.859-6.398,6.398-6.398h12.801
		c3.535,0,6.398,2.867,6.398,6.398C312.199,418.934,309.336,421.801,305.801,421.801L305.801,421.801z M305.801,421.801"/>
	<path fill="#E3001E" d="M422.363,433.359l14.703,35.508c1.094,2.633-1.547,5.27-4.18,4.18l-9.586-3.973l-3.973,9.586
		c-1.09,2.637-4.82,2.637-5.91,0L397.816,441"/>
	<path fill="#E3001E" d="M380.25,432.805l-14.938,36.063c-1.09,2.633,1.551,5.27,4.184,4.18l9.586-3.973l3.973,9.586
		c1.09,2.637,4.82,2.637,5.91,0L404.566,441"/>
	<path fill="#FFCD00" d="M433.625,409c0,17.672-14.328,32-32,32s-32-14.328-32-32c0-17.672,14.328-32,32-32
		S433.625,391.328,433.625,409L433.625,409z M433.625,409"/>
	<path fill="#FFE671" d="M401.625,396.199c-7.055,0-12.801,5.742-12.801,12.801s5.746,12.801,12.801,12.801
		s12.801-5.742,12.801-12.801S408.68,396.199,401.625,396.199L401.625,396.199z M401.625,396.199"/>
</g>
</svg>
