<?xml version="1.0" encoding="utf-8"?>
<!-- Generator: Adobe Illustrator 16.0.0, SVG Export Plug-In . SVG Version: 6.00 Build 0)  -->
<!DOCTYPE svg PUBLIC "-//W3C//DTD SVG 1.1//EN" "http://www.w3.org/Graphics/SVG/1.1/DTD/svg11.dtd">
<svg version="1.1" id="Layer_1" xmlns="http://www.w3.org/2000/svg" xmlns:xlink="http://www.w3.org/1999/xlink" x="0px" y="0px"
	 width="612px" height="792px" viewBox="0 0 612 792" enable-background="new 0 0 612 792" xml:space="preserve">
<g>
	<g>
		<defs>
			<rect id="SVGID_1_" x="101" y="334" width="409.92" height="124.8"/>
		</defs>
		<clipPath id="SVGID_2_">
			<use xlink:href="#SVGID_1_"  overflow="visible"/>
		</clipPath>
		<path clip-path="url(#SVGID_2_)" fill="#FFEBB7" d="M497.543,338.504c-1.023-2.602-3.66-4.153-6.387-4.047
			c-122.863,8.265-247.476,8.265-370.336,0c-3.031-0.118-5.621,1.64-6.527,4.425c-4.387,13.606-6.707,27.563-6.707,40.364
			c0,3.539,2.863,6.398,6.402,6.398h384c3.535,0,6.398-2.859,6.398-6.398C504.387,367.691,503.574,353.816,497.543,338.504
			L497.543,338.504z M497.543,338.504"/>
		<path clip-path="url(#SVGID_2_)" fill="#E6BE94" d="M510.594,378.742c-0.262-3.328-3.043-5.895-6.383-5.895H338.164
			c-3.539,0-6.402,2.864-6.402,6.399h-51.375c0-3.535-2.864-6.399-6.399-6.399H107.586c-3.336,0-6.109,2.563-6.379,5.895
			c-0.113,1.441-2.625,35.762,13.473,67.406c1.101,2.156,3.316,3.5,5.707,3.5c0.144,0,0.289-0.008,0.433-0.016
			c49.614-3.335,99.856-5.347,149.297-5.984l29.477-0.233l42.23,0.233c49.465,0.638,99.695,2.649,149.289,5.981
			c3.168,0.261,5.906-1.856,6.668-4.758C513.145,413.589,510.707,380.164,510.594,378.742L510.594,378.742z M510.594,378.742"/>
	</g>
	<path fill="#E3001E" d="M350.301,439.195l-17.664-42.642c-1.348-3.265-5.113-4.808-8.359-3.465
		c-3.074,1.274-4.535,4.665-3.578,7.786l-12.383,3.854l-0.223-0.539c-1.352-3.266-5.114-4.801-8.364-3.465
		c-3.261,1.353-4.812,5.095-3.46,8.363l18.554,44.801c0.987,2.396,3.324,3.949,5.914,3.949c2.586,0,4.926-1.562,5.914-3.949
		l4.473-10.812l10.813,4.479c2.395,1,5.145,0.449,6.977-1.386C350.742,444.339,351.293,441.589,350.301,439.195L350.301,439.195z
		 M350.301,439.195"/>
	<path fill="#E3001E" d="M312.078,400.726c-3.254-1.344-7.016,0.203-8.363,3.465l-0.168,0.402l-12.242-4.129
		c1.054-3.16-0.426-6.64-3.547-7.929c-3.242-1.352-7.012,0.191-8.363,3.461l-17.891,43.2c-0.996,2.394-0.445,5.144,1.387,6.977
		c1.836,1.835,4.586,2.394,6.972,1.386l10.813-4.479l4.484,10.812c0.992,2.396,3.324,3.949,5.91,3.949
		c2.59,0,4.926-1.562,5.914-3.949l18.555-44.801C316.891,405.824,315.34,402.078,312.078,400.726L312.078,400.726z M312.078,400.726
		"/>
	<path fill="#FFCD00" d="M344.387,379.246c0,21.208-17.191,38.402-38.399,38.402c-21.207,0-38.402-17.194-38.402-38.402
		c0-21.207,17.195-38.399,38.402-38.399C327.195,340.847,344.387,358.039,344.387,379.246L344.387,379.246z M344.387,379.246"/>
	<path fill="#FFE671" d="M331.6,379.246c0,12.151-11.461,22.001-25.599,22.001c-14.14,0-25.601-9.851-25.601-22.001
		c0-12.148,11.461-21.999,25.601-21.999C320.139,357.247,331.6,367.098,331.6,379.246L331.6,379.246z M331.6,379.246"/>
</g>
</svg>
