<?xml version="1.0" encoding="utf-8"?>
<!-- Generator: Adobe Illustrator 16.0.0, SVG Export Plug-In . SVG Version: 6.00 Build 0)  -->
<!DOCTYPE svg PUBLIC "-//W3C//DTD SVG 1.1//EN" "http://www.w3.org/Graphics/SVG/1.1/DTD/svg11.dtd">
<svg version="1.1" id="Layer_1" xmlns="http://www.w3.org/2000/svg" xmlns:xlink="http://www.w3.org/1999/xlink" x="0px" y="0px"
	 width="612px" height="792px" viewBox="0 0 612 792" enable-background="new 0 0 612 792" xml:space="preserve">
<g>
	<rect x="305.027" y="504.602" fill="#868491" width="25.598" height="38.398"/>
	<rect x="305.027" y="504.602" fill="#5C546A" width="12.797" height="38.398"/>
	<path fill="#24232D" d="M279.602,568.602v-12.801c0-7.07,5.73-12.801,12.8-12.801h51.2c7.07,0,12.801,5.73,12.801,12.801v12.801"/>
	<path fill="#5C546A" d="M318,229.398c-3.539,0-6.398-2.863-6.398-6.398v-25.602c0-3.531,2.859-6.398,6.398-6.398
		s6.398,2.867,6.398,6.398V223C324.398,226.535,321.539,229.398,318,229.398L318,229.398z M318,229.398"/>
	<path fill="#5C546A" d="M318,511c-3.539,0-6.398-2.867-6.398-6.398V479c0-3.535,2.859-6.398,6.398-6.398s6.398,2.863,6.398,6.398
		v25.602C324.398,508.133,321.539,511,318,511L318,511z M318,511"/>
	<path d="M362.801,562.199h-89.602c-17.644,0-32,14.355-32,32c0,3.535,2.863,6.402,6.403,6.402h140.796
		c3.539,0,6.402-2.867,6.402-6.402C394.801,576.555,380.445,562.199,362.801,562.199L362.801,562.199z M362.801,562.199"/>
	<path fill="#2F3CDD" d="M452.227,351c0,74.227-60.176,134.398-134.402,134.398c-74.226,0-134.398-60.172-134.398-134.398
		c0-74.227,60.172-134.398,134.398-134.398C392.051,216.602,452.227,276.773,452.227,351L452.227,351z M452.227,351"/>
	<path fill="#2F3CDD" d="M317.824,485.398c37.113,0,70.715-15.043,95.035-39.363l-190.07-190.07
		c-24.32,24.32-39.363,57.922-39.363,95.035C183.426,425.227,243.598,485.398,317.824,485.398L317.824,485.398z M317.824,485.398"/>
	<path fill="#57DD6A" d="M451.227,334.859c-7.23-60.379-54.465-108.437-114.457-116.906l-7.508,12.227
		c-0.289,0.531-0.773,0.918-1.355,1.082c-0.59,0.156-1.199,0.082-1.727-0.219l-19.637-11.313c-0.805-0.46-1.809-0.382-2.523,0.2
		l-28.055,22.625c-4.774,3.847-7.508,9.566-7.508,15.691v6.141c0,0.668,0.301,1.304,0.82,1.73c0.516,0.422,1.2,0.59,1.856,0.469
		l19.91-3.91l-3.066,5.351c-0.754,1.321-1.75,2.453-2.969,3.371l-17.809,13.442c-0.566,0.422-0.894,1.086-0.894,1.785v10.59
		l-5.965,0.633c-5.93,0.629-10.32,5.785-10.004,11.738l0.324,5.984c0.258,4.805,3.543,8.903,8.184,10.192l6.086,1.695
		c-6.664,2.027-11.215,8.195-11.059,15.336l0.102,4.617l-6.856,13.223c-5.656,10.902-4.922,24.008,1.926,34.203l3.258,4.852
		c4.457,6.637,12.445,10.027,20.277,8.609l29.777-5.316l6.93,8.586c4.695,5.809,10.859,10.297,17.832,12.98l3.027,1.164v18.699
		c0,2.035,0.734,5.688,2.25,11.176c1.91,6.926,6.426,12.68,12.715,16.203c4.086,2.293,8.59,3.457,13.145,3.457
		c2.5,0,5.016-0.348,7.488-1.059c0.668-0.191,1.211-0.684,1.465-1.328l19.613-49.578l26.25-24.734
		c0.352-0.324,0.582-0.758,0.668-1.227l2.617-14.422c0.121-0.679-0.074-1.378-0.535-1.894c-0.461-0.516-1.137-0.77-1.824-0.742
		l-6.359,0.437c-4.141,0.285-8.063-1.058-11.109-3.594l-38.383-48.503l42.883,41.597l18.348-10.008
		c3.973-2.945,6.344-7.656,6.344-12.601v-12.172c0-0.719-0.348-1.395-0.93-1.816c-0.586-0.426-1.328-0.54-2.016-0.309l-4.984,1.648
		c-1.82,0.602-3.742,0.418-5.414-0.531c-1.672-0.945-2.828-2.496-3.25-4.371l-2.016-8.945l43.16,13.715
		C450.586,334.902,450.91,334.898,451.227,334.859L451.227,334.859z M355.973,324.406l-3.461,3.125l-20.695,6.918
		c-2.613,0.875-5.488,0.496-7.785-1.023l-11.504-7.617c-4.074-2.696-8.773-4.098-13.57-4.098c-1.437,0-2.879,0.129-4.316,0.383
		l-20.871,3.683l6.187-4.621c1.328-0.992,2.352-2.328,2.965-3.867l3.898-9.789c3.512-3.254,8.653-3.914,12.844-1.703l12.195,10.812
		c0.695,0.618,1.703,0.739,2.527,0.305c0.828-0.434,1.293-1.332,1.18-2.254l-1.262-9.973c0.063-1.316,1.074-1.835,1.383-1.96
		c0.305-0.129,1.391-0.481,2.367,0.414l14.688,13.445c0.578,0.531,1.398,0.719,2.152,0.496l21.867-6.488
		c1.559,1.773,2.445,4.074,2.457,6.468C359.227,319.855,358.043,322.535,355.973,324.406L355.973,324.406z"/>
	<path fill="#E6BE8A" d="M255.906,287"/>
	<path fill="#57DD6A" d="M289.777,322.949l-16.007,2.824l6.187-4.621c1.324-0.988,2.352-2.328,2.965-3.863l0.34-0.852
		l-19.004-19.003l-3.922,0.414c-5.926,0.629-10.32,5.785-10,11.738l0.324,5.984c0.258,4.809,3.543,8.903,8.184,10.196l6.086,1.691
		c-6.664,2.027-11.215,8.199-11.059,15.336l0.102,4.617l-6.856,13.223c-5.656,10.902-4.922,24.008,1.926,34.203l3.258,4.855
		c4.457,6.637,12.449,10.023,20.277,8.609l29.777-5.316l6.93,8.582c4.695,5.813,10.859,10.301,17.836,12.98l3.023,1.164v18.699
		c0,2.035,0.738,5.691,2.25,11.18c1.914,6.922,6.43,12.676,12.715,16.203c4.086,2.289,8.594,3.457,13.148,3.457
		c2.496,0,5.012-0.352,7.484-1.063c0.668-0.188,1.211-0.68,1.465-1.328l19.613-49.578l1.691-1.594L289.777,322.949z
		 M289.777,322.949"/>
	<path d="M343.602,511H318c-88.227,0-160-71.773-160-160c0-88.227,71.773-160,160-160h25.602c3.535,0,6.398,2.867,6.398,6.398
		c0,3.536-2.863,6.403-6.398,6.403H318c-81.168,0-147.199,66.035-147.199,147.199S236.832,498.199,318,498.199h25.602
		c3.535,0,6.398,2.867,6.398,6.402C350,508.133,347.137,511,343.602,511L343.602,511z M343.602,511"/>
</g>
</svg>
