<?xml version="1.0" encoding="utf-8"?>
<!-- Generator: Adobe Illustrator 16.0.0, SVG Export Plug-In . SVG Version: 6.00 Build 0)  -->
<!DOCTYPE svg PUBLIC "-//W3C//DTD SVG 1.1//EN" "http://www.w3.org/Graphics/SVG/1.1/DTD/svg11.dtd">
<svg version="1.1" id="Layer_1" xmlns="http://www.w3.org/2000/svg" xmlns:xlink="http://www.w3.org/1999/xlink" x="0px" y="0px"
	 width="612px" height="792px" viewBox="0 0 612 792" enable-background="new 0 0 612 792" xml:space="preserve">
<g>
	<g>
		<defs>
			<rect id="SVGID_1_" x="101" y="217" width="409.92" height="359.76"/>
		</defs>
		<clipPath id="SVGID_2_">
			<use xlink:href="#SVGID_1_"  overflow="visible"/>
		</clipPath>
		<path clip-path="url(#SVGID_2_)" fill="#E242A1" d="M228.844,345.267l153.867,153.868l114.598-114.598
			c17.465-17.469,17.465-45.895,0-63.356l-90.512-90.511c-17.457-17.457-45.887-17.469-63.355,0L228.844,345.267z M228.844,345.267"
			/>
		<path clip-path="url(#SVGID_2_)" fill="#E242A1" d="M114.098,460.013c-17.465,17.469-17.465,45.896,0,63.356l50.554,50.555
			c1.2,1.203,2.825,1.875,4.524,1.875h134.219c1.703,0,3.328-0.672,4.527-1.875l74.789-74.789L228.844,345.267L114.098,460.013z
			 M114.098,460.013"/>
	</g>
	<path fill="#E2005C" d="M472.18,575.799h-19.203c-3.535,0-6.398-2.86-6.398-6.399s2.863-6.397,6.398-6.397h19.203
		c3.535,0,6.398,2.858,6.398,6.397S475.715,575.799,472.18,575.799L472.18,575.799z M472.18,575.799"/>
	<path fill="#E2005C" d="M369.785,550.201c-2.352,0-4.609-1.293-5.73-3.539c-1.582-3.16-0.301-7.004,2.859-8.586l12.801-6.402
		c3.164-1.575,7-0.297,8.586,2.863c1.582,3.164,0.301,7.008-2.859,8.59l-12.801,6.397
		C371.723,549.981,370.746,550.201,369.785,550.201L369.785,550.201z M369.785,550.201"/>
	<path fill="#E2005C" d="M414.578,550.201h-6.398c-3.539,0-6.402-2.863-6.402-6.402c0-3.536,2.863-6.399,6.402-6.399h6.398
		c3.539,0,6.398,2.863,6.398,6.399C420.977,547.338,418.113,550.201,414.578,550.201L414.578,550.201z M414.578,550.201"/>
	<path fill="#E2005C" d="M395.379,524.599c-1.637,0-3.277-0.625-4.523-1.875c-2.5-2.5-2.5-6.55,0-9.05l6.398-6.399
		c2.5-2.5,6.551-2.5,9.051,0s2.5,6.552,0,9.052l-6.402,6.397C398.652,523.974,397.016,524.599,395.379,524.599L395.379,524.599z
		 M395.379,524.599"/>
	<path fill="#E2005C" d="M427.398,531.002c-1.734,0-3.395-0.707-4.551-1.86c-1.215-1.215-1.852-2.879-1.852-4.543
		c0-1.66,0.637-3.332,1.789-4.479c2.5-2.435,6.719-2.435,9.086-0.063c1.219,1.211,1.926,2.883,1.926,4.543
		c0,1.664-0.707,3.325-1.926,4.543C430.723,530.295,429.059,531.002,427.398,531.002L427.398,531.002z M427.398,531.002"/>
	<path fill="#E2005C" d="M427.398,499.002c-1.734,0-3.395-0.707-4.551-1.86c-1.215-1.215-1.852-2.879-1.852-4.543
		c0-1.66,0.637-3.332,1.789-4.479c2.5-2.435,6.719-2.435,9.086-0.063c1.219,1.211,1.926,2.883,1.926,4.543
		c0,1.664-0.707,3.325-1.926,4.543C430.723,498.295,429.059,499.002,427.398,499.002L427.398,499.002z M427.398,499.002"/>
	<path fill="#E2005C" d="M427.379,563.002H153.727l10.925,10.922c1.2,1.203,2.825,1.875,4.524,1.875h258.203
		c3.535,0,6.398-2.86,6.398-6.399S430.914,563.002,427.379,563.002L427.379,563.002z M427.379,563.002"/>
</g>
</svg>
