<?xml version="1.0" encoding="utf-8"?>
<!-- Generator: Adobe Illustrator 16.0.0, SVG Export Plug-In . SVG Version: 6.00 Build 0)  -->
<!DOCTYPE svg PUBLIC "-//W3C//DTD SVG 1.1//EN" "http://www.w3.org/Graphics/SVG/1.1/DTD/svg11.dtd">
<svg version="1.1" id="Layer_1" xmlns="http://www.w3.org/2000/svg" xmlns:xlink="http://www.w3.org/1999/xlink" x="0px" y="0px"
	 width="612px" height="792px" viewBox="0 0 612 792" enable-background="new 0 0 612 792" xml:space="preserve">
<g>
	<g>
		<defs>
			<rect id="SVGID_1_" x="153" y="191" width="306" height="410.88"/>
		</defs>
		<clipPath id="SVGID_2_">
			<use xlink:href="#SVGID_1_"  overflow="visible"/>
		</clipPath>
		<path clip-path="url(#SVGID_2_)" fill="#4CD7FF" d="M452.129,541.386L344.164,377.582v-160.66h-76.801v160.66L159.402,541.386
			c-16.828,25.532,1.485,59.536,32.063,59.536h228.602C450.645,600.922,468.953,566.918,452.129,541.386L452.129,541.386z
			 M452.129,541.386"/>
		<path clip-path="url(#SVGID_2_)" fill="#4CD7FF" d="M305.59,216.922h-38.227v160.66L159.402,541.386
			c-16.828,25.532,1.485,59.536,32.063,59.536H305.59V216.922z M305.59,216.922"/>
	</g>
	<path fill="#7B0BAA" d="M436.094,551.953l-45.973-69.754c-1.184-1.797-3.195-2.879-5.344-2.879H226.75
		c-2.148,0-4.16,1.082-5.344,2.879l-45.972,69.754c-3.965,6.004-4.289,13.358-0.875,19.664c3.394,6.323,9.718,10.101,16.906,10.101
		h228.597c7.188,0,13.517-3.777,16.903-10.086C440.383,565.312,440.059,557.957,436.094,551.953L436.094,551.953z M436.094,551.953"
		/>
	<path fill="#7B0BAA" d="M390.121,482.199c-1.184-1.797-3.195-2.879-5.344-2.879H305.59v102.397h114.477
		c7.184,0,13.512-3.777,16.898-10.086c3.418-6.315,3.094-13.675-0.867-19.679L390.121,482.199z M390.121,482.199"/>
	<path fill="#4BB9EC" d="M344.164,216.922h-76.801c-7.066,0-12.797-5.731-12.797-12.801c0-7.071,5.731-12.801,12.797-12.801h76.801
		c7.07,0,12.801,5.73,12.801,12.801C356.965,211.191,351.234,216.922,344.164,216.922L344.164,216.922z M344.164,216.922"/>
	<path fill="#037503" d="M273.766,524.121c0,7.07-5.731,12.801-12.801,12.801c-7.07,0-12.801-5.73-12.801-12.801
		c0-7.071,5.731-12.801,12.801-12.801C268.035,511.32,273.766,517.05,273.766,524.121L273.766,524.121z M273.766,524.121"/>
	<path fill="#037503" d="M376.164,536.922c0,7.066-5.73,12.796-12.801,12.796c-7.066,0-12.797-5.729-12.797-12.796
		c0-7.071,5.73-12.801,12.797-12.801C370.434,524.121,376.164,529.851,376.164,536.922L376.164,536.922z M376.164,536.922"/>
	<path fill="#037503" d="M324.984,524.121c-1.734,0-3.332-0.707-4.551-1.856c-1.215-1.218-1.852-2.883-1.852-4.547
		s0.637-3.328,1.852-4.543c2.367-2.367,6.656-2.367,9.023,0c1.219,1.215,1.926,2.817,1.926,4.543c0,1.731-0.707,3.329-1.926,4.547
		C328.309,523.414,326.645,524.121,324.984,524.121L324.984,524.121z M324.984,524.121"/>
	<path fill="#AEEFFF" d="M286.391,453.718c-1.735,0-3.332-0.703-4.551-1.854c-1.215-1.216-1.852-2.879-1.852-4.543
		s0.637-3.328,1.852-4.543c2.367-2.371,6.594-2.371,9.023,0c1.219,1.215,1.926,2.879,1.926,4.543s-0.707,3.327-1.855,4.543
		C289.715,453.015,288.051,453.718,286.391,453.718L286.391,453.718z M286.391,453.718"/>
	<path fill="#4CD7FF" d="M324.789,402.519c-1.73,0-3.332-0.707-4.551-1.854c-1.211-1.215-1.852-2.883-1.852-4.543
		c0-1.668,0.641-3.328,1.852-4.543c2.371-2.371,6.594-2.371,9.027,0c1.215,1.215,1.922,2.875,1.922,4.543
		c0,1.66-0.707,3.328-1.922,4.543C328.113,401.812,326.453,402.519,324.789,402.519L324.789,402.519z M324.789,402.519"/>
	<path fill="#AEEFFF" d="M286.391,357.718c-1.735,0-3.395-0.703-4.551-1.921c-1.215-1.149-1.852-2.813-1.852-4.477
		s0.637-3.328,1.852-4.543c2.367-2.371,6.656-2.371,9.023,0c1.219,1.215,1.926,2.879,1.926,4.543s-0.707,3.328-1.926,4.543
		C289.715,357.015,288.051,357.718,286.391,357.718L286.391,357.718z M286.391,357.718"/>
	<path fill="#037503" d="M286.391,562.441c-1.735,0-3.332-0.707-4.551-1.855c-1.215-1.219-1.852-2.883-1.852-4.547
		s0.637-3.328,1.852-4.543c2.367-2.367,6.656-2.367,9.023,0c1.219,1.215,1.926,2.879,1.926,4.543s-0.707,3.328-1.926,4.547
		C289.715,561.734,288.051,562.441,286.391,562.441L286.391,562.441z M286.391,562.441"/>
	<path fill="#037503" d="M222.582,556.121c-1.73,0-3.394-0.707-4.551-1.856c-1.211-1.218-1.847-2.883-1.847-4.547
		s0.636-3.328,1.847-4.543c2.371-2.367,6.657-2.367,9.028,0c1.218,1.215,1.921,2.879,1.921,4.543s-0.703,3.329-1.921,4.547
		C225.906,555.414,224.246,556.121,222.582,556.121L222.582,556.121z M222.582,556.121"/>
</g>
</svg>
