<?xml version="1.0" encoding="utf-8"?>
<!-- Generator: Adobe Illustrator 16.0.0, SVG Export Plug-In . SVG Version: 6.00 Build 0)  -->
<!DOCTYPE svg PUBLIC "-//W3C//DTD SVG 1.1//EN" "http://www.w3.org/Graphics/SVG/1.1/DTD/svg11.dtd">
<svg version="1.1" id="Layer_1" xmlns="http://www.w3.org/2000/svg" xmlns:xlink="http://www.w3.org/1999/xlink" x="0px" y="0px"
	 width="612px" height="792px" viewBox="0 0 612 792" enable-background="new 0 0 612 792" xml:space="preserve">
<g>
	<path fill="#0E00C1" d="M296.375,191c-21.176,0-38.402,17.227-38.402,38.398v6.403c0,3.535,2.863,6.398,6.402,6.398h64
		c3.535,0,6.398-2.863,6.398-6.398v-6.403C334.773,208.227,317.547,191,296.375,191L296.375,191z M296.375,191"/>
	<path fill="#6B6A64" d="M321.973,466.199h-51.2l-12.8,64l25.601,70.402h6.399v-59.383c-3.805-2.223-6.399-6.305-6.399-11.02
		c0-7.055,5.746-12.801,12.801-12.801s12.801,5.746,12.801,12.801c0,4.715-2.594,8.801-6.403,11.02v59.383h6.403l25.598-70.402
		L321.973,466.199z M321.973,466.199"/>
	<path fill="#1E1E1E" d="M257.973,235.801v108.801l5.82,115.199c0.324,6.824,5.953,12.191,12.785,12.191h39.59
		c6.832,0,12.461-5.367,12.785-12.191l5.82-115.199V235.801"/>
	<path fill="#1E1E1E" d="M296.199,235.801h-38.222v108.801l5.816,115.199c0.324,6.824,5.953,12.191,12.785,12.191h19.621V235.801z
		 M296.199,235.801"/>
	<path d="M251.398,235.801h44.801V351h-44c-0.441,0-0.801-0.359-0.801-0.801V235.801z M251.398,235.801"/>
	<path d="M296.199,235.801H341v114.398c0,0.442-0.359,0.801-0.801,0.801h-44V235.801z M296.199,235.801"/>
	<path fill="#6B6A64" d="M360.375,370.199c-3.539,0-6.402-2.863-6.402-6.398V248.602c0-3.532-2.867-6.403-6.398-6.403h-96.176
		c-3.535,0-6.398-2.863-6.398-6.398c0-3.539,2.863-6.403,6.398-6.403h96.176c10.59,0,19.199,8.614,19.199,19.204v115.199
		C366.773,367.336,363.91,370.199,360.375,370.199L360.375,370.199z M360.375,370.199"/>
</g>
</svg>
