<?xml version="1.0" encoding="utf-8"?>
<!-- Generator: Adobe Illustrator 16.0.0, SVG Export Plug-In . SVG Version: 6.00 Build 0)  -->
<!DOCTYPE svg PUBLIC "-//W3C//DTD SVG 1.1//EN" "http://www.w3.org/Graphics/SVG/1.1/DTD/svg11.dtd">
<svg version="1.1" id="Layer_1" xmlns="http://www.w3.org/2000/svg" xmlns:xlink="http://www.w3.org/1999/xlink" x="0px" y="0px"
	 width="612px" height="792px" viewBox="0 0 612 792" enable-background="new 0 0 612 792" xml:space="preserve">
<g>
	<g>
		<defs>
			<rect id="SVGID_1_" x="101" y="278" width="409.92" height="237.84"/>
		</defs>
		<clipPath id="SVGID_2_">
			<use xlink:href="#SVGID_1_"  overflow="visible"/>
		</clipPath>
		<path clip-path="url(#SVGID_2_)" d="M101,386.881v-66.199c0-8.481,3.371-16.617,9.367-22.617l18.11-18.11
			c2.5-2.5,6.546-2.5,9.046,0c2.5,2.496,2.5,6.551,0,9.051l-18.097,18.105c-3.602,3.602-5.625,8.489-5.625,13.582v46.989
			c0,3.531,2.863,6.398,6.398,6.398h32c2.426,0,4.637,1.367,5.727,3.539c1.082,2.168,0.847,4.762-0.606,6.703l-19.203,25.598
			c-1.207,1.613-3.105,2.559-5.117,2.559h-6.398C112.461,412.479,101,401.018,101,386.881L101,386.881z M101,386.881"/>
	</g>
	<path fill="#AEEFFF" d="M401.801,354.881c-42.348,0-76.801,34.449-76.801,76.801c0,42.348,34.453,76.797,76.801,76.797
		s76.801-34.449,76.801-76.797C478.602,389.33,444.148,354.881,401.801,354.881L401.801,354.881z M401.801,354.881"/>
	<path fill="#FFFFFF" d="M417.711,390.166c-14.113,0-25.598,11.485-25.598,25.602c0,14.117,11.484,25.602,25.598,25.602
		c14.117,0,25.602-11.484,25.602-25.602C443.313,401.651,431.828,390.166,417.711,390.166L417.711,390.166z M417.711,390.166"/>
	<path fill="#AEEFFF" d="M209.977,354.881c-42.348,0-76.801,34.449-76.801,76.801c0,42.348,34.453,76.797,76.801,76.797
		c42.347,0,76.796-34.449,76.796-76.797C286.773,389.33,252.324,354.881,209.977,354.881L209.977,354.881z M209.977,354.881"/>
	<g>
		<defs>
			<rect id="SVGID_3_" x="101" y="278" width="409.92" height="237.84"/>
		</defs>
		<clipPath id="SVGID_4_">
			<use xlink:href="#SVGID_3_"  overflow="visible"/>
		</clipPath>
		<path clip-path="url(#SVGID_4_)" d="M328.375,415.682c-3.539,0-6.398-2.867-6.398-6.402c0-8.82-7.176-16-16-16
			c-8.829,0-16,7.18-16,16c0,3.535-2.864,6.402-6.403,6.402c-3.535,0-6.398-2.867-6.398-6.402c0-15.882,12.918-28.8,28.801-28.8
			c15.878,0,28.796,12.918,28.796,28.8C334.773,412.814,331.914,415.682,328.375,415.682L328.375,415.682z M328.375,415.682"/>
		<path clip-path="url(#SVGID_4_)" d="M485.176,412.479h-6.402c-2.012,0-3.91-0.945-5.117-2.559l-19.199-25.598
			c-1.457-1.941-1.688-4.535-0.605-6.703c1.086-2.172,3.297-3.539,5.723-3.539h32c3.535,0,6.402-2.867,6.402-6.398v-46.989
			c0-5.093-2.023-9.98-5.625-13.582l-18.102-18.105c-2.5-2.5-2.5-6.555,0-9.051c2.5-2.5,6.551-2.5,9.051,0l18.109,18.11
			c5.996,6,9.367,14.136,9.367,22.617v66.199C510.773,401.018,499.313,412.479,485.176,412.479L485.176,412.479z M485.176,412.479"
			/>
	</g>
	<path d="M209.977,514.881c-45.875,0-83.204-37.324-83.204-83.199c0-45.879,37.329-83.203,83.204-83.203
		s83.199,37.324,83.199,83.203C293.176,477.557,255.848,514.881,209.977,514.881L209.977,514.881z M209.977,361.279
		c-38.821,0-70.403,31.582-70.403,70.403c0,38.816,31.582,70.398,70.403,70.398c38.816,0,70.398-31.582,70.398-70.398
		C280.375,392.861,248.793,361.279,209.977,361.279L209.977,361.279z M209.977,361.279"/>
	<path d="M401.977,514.881c-45.875,0-83.203-37.324-83.203-83.199c0-45.879,37.328-83.203,83.203-83.203
		s83.199,37.324,83.199,83.203C485.176,477.557,447.848,514.881,401.977,514.881L401.977,514.881z M401.977,361.279
		c-38.82,0-70.402,31.582-70.402,70.403c0,38.816,31.582,70.398,70.402,70.398c38.816,0,70.398-31.582,70.398-70.398
		C472.375,392.861,440.793,361.279,401.977,361.279L401.977,361.279z M401.977,361.279"/>
	<path fill="#FFFFFF" d="M225.887,390.166c-14.117,0-25.598,11.485-25.598,25.602c0,14.117,11.481,25.602,25.598,25.602
		c14.117,0,25.601-11.484,25.601-25.602C251.488,401.651,240.004,390.166,225.887,390.166L225.887,390.166z M225.887,390.166"/>
</g>
</svg>
