<?xml version="1.0" encoding="utf-8"?>
<!-- Generator: Adobe Illustrator 16.0.0, SVG Export Plug-In . SVG Version: 6.00 Build 0)  -->
<!DOCTYPE svg PUBLIC "-//W3C//DTD SVG 1.1//EN" "http://www.w3.org/Graphics/SVG/1.1/DTD/svg11.dtd">
<svg version="1.1" id="Layer_1" xmlns="http://www.w3.org/2000/svg" xmlns:xlink="http://www.w3.org/1999/xlink" x="0px" y="0px"
	 width="612px" height="792px" viewBox="0 0 612 792" enable-background="new 0 0 612 792" xml:space="preserve">
<g>
	<path fill="#FF1A1A" d="M318.875,348.554l73.852-153.605c1.066-2.219,3.305-3.629,5.766-3.629h103.172
		c2.199,0,4.242,1.133,5.418,2.992c1.168,1.863,1.297,4.199,0.348,6.18l-97.91,203.66c-0.793,1.645-2.25,2.879-4.008,3.379
		c-0.574,0.168-1.168,0.25-1.762,0.25c-1.199,0-2.387-0.34-3.426-0.992l-79.105-50.051C318.473,355,317.469,351.48,318.875,348.554
		L318.875,348.554z M318.875,348.554"/>
	<g>
		<defs>
			<rect id="SVGID_1_" x="103" y="191" width="405.84" height="410.88"/>
		</defs>
		<clipPath id="SVGID_2_">
			<use xlink:href="#SVGID_1_"  overflow="visible"/>
		</clipPath>
		<path clip-path="url(#SVGID_2_)" fill="#0000E2" d="M454.316,191.32h47.348c2.199,0,4.242,1.133,5.418,2.992
			c1.168,1.863,1.297,4.199,0.348,6.18l-97.91,203.66c-0.793,1.645-2.25,2.879-4.008,3.379c-0.574,0.168-1.168,0.25-1.762,0.25
			c-1.199,0-2.387-0.34-3.426-0.992l-38.031-24.063L454.316,191.32z M454.316,191.32"/>
		<path clip-path="url(#SVGID_2_)" fill="#FF1A1A" d="M292.184,348.554l-73.848-153.605c-1.07-2.219-3.305-3.629-5.77-3.629H109.398
			c-2.199,0-4.246,1.133-5.418,2.992c-1.168,1.863-1.3,4.199-0.351,6.18l97.914,203.66c0.793,1.645,2.25,2.879,4.004,3.379
			c0.578,0.168,1.172,0.25,1.765,0.25c1.2,0,2.387-0.34,3.422-0.992l79.11-50.051C292.586,355,293.594,351.48,292.184,348.554
			L292.184,348.554z M292.184,348.554"/>
		<path clip-path="url(#SVGID_2_)" fill="#0000E2" d="M156.746,191.32h-47.348c-2.199,0-4.246,1.133-5.418,2.992
			c-1.168,1.863-1.3,4.199-0.351,6.18l97.914,203.66c0.793,1.645,2.25,2.879,4.004,3.379c0.578,0.168,1.172,0.25,1.765,0.25
			c1.2,0,2.387-0.34,3.422-0.992l38.032-24.063L156.746,191.32z M156.746,191.32"/>
	</g>
	<path fill="#FFCD00" d="M433.617,472.922c0,70.691-57.309,128-128,128s-128-57.309-128-128c0-70.696,57.309-128,128-128
		S433.617,402.226,433.617,472.922L433.617,472.922z M433.617,472.922"/>
	<path fill="#FF9100" d="M305.617,600.922c35.348,0,67.348-14.329,90.508-37.493L215.109,382.41
		c-23.164,23.164-37.492,55.164-37.492,90.512C177.617,543.613,234.926,600.922,305.617,600.922L305.617,600.922z M305.617,600.922"
		/>
	<path fill="#FFFFFF" d="M339.086,536.285c-2.102,0-4.215-0.504-6.164-1.531l-27.305-14.352l-27.308,14.352
		c-4.485,2.355-9.829,1.964-13.918-1.008c-4.106-2.985-6.118-7.938-5.262-12.935l5.215-30.401l-22.094-21.528
		c-3.633-3.542-4.914-8.738-3.344-13.558c1.567-4.824,5.656-8.277,10.672-9.008l30.527-4.435l13.657-27.66
		c2.238-4.543,6.781-7.367,11.847-7.371h0.008c5.074,0,9.617,2.824,11.863,7.371l13.648,27.66l30.52,4.435
		c5.023,0.73,9.113,4.184,10.68,9.008c1.57,4.819,0.289,10.016-3.344,13.555l-22.094,21.531l5.219,30.401
		c0.855,4.996-1.156,9.949-5.262,12.935C344.531,535.429,341.816,536.285,339.086,536.285L339.086,536.285z M251.184,459.715
		l24.5,23.878c1.507,1.469,2.195,3.59,1.839,5.664l-5.781,33.715l3.594,6.118l-2.977-5.665l30.282-15.918
		c1.863-0.984,4.089-0.984,5.949,0l30.281,15.918l6.934-1.531l-6.309,1.082l-5.785-33.719c-0.355-2.074,0.332-4.19,1.836-5.664
		l24.5-23.878l0.684-7.063l-0.918,6.336l-33.852-4.922c-2.086-0.302-3.887-1.609-4.82-3.5l-15.137-30.677
		c0,0.004-0.379,0.004-0.613,0h-0.157l-15.14,30.677c-0.934,1.891-2.735,3.198-4.821,3.5l-33.847,4.922l-4.707,5.312
		L251.184,459.715z M251.184,459.715"/>
	<path fill="#FFFFFF" d="M408.035,479.32c-1.668,0-3.332-0.707-4.551-1.855c-1.211-1.215-1.848-2.883-1.848-4.543
		c0-1.668,0.637-3.329,1.848-4.547c2.371-2.368,6.656-2.368,9.027,0c1.219,1.218,1.922,2.879,1.922,4.547
		c0,1.66-0.703,3.328-1.922,4.543C411.359,478.613,409.699,479.32,408.035,479.32L408.035,479.32z M408.035,479.32"/>
	<path fill="#FFFFFF" d="M305.637,376.922c-1.731,0-3.332-0.707-4.551-1.86c-1.211-1.215-1.852-2.879-1.852-4.543
		s0.641-3.328,1.852-4.543c2.367-2.367,6.656-2.367,9.023,0c1.219,1.215,1.926,2.879,1.926,4.543s-0.707,3.328-1.926,4.543
		C308.961,376.215,307.297,376.922,305.637,376.922L305.637,376.922z M305.637,376.922"/>
	<path fill="#FFFFFF" d="M233.184,406.933c-1.661,0-3.329-0.703-4.481-1.918c-1.219-1.151-1.918-2.815-1.918-4.479
		c0-1.728,0.699-3.396,1.918-4.543c2.309-2.371,6.656-2.371,9.027,0c1.211,1.215,1.856,2.816,1.856,4.543
		c0,1.664-0.645,3.328-1.856,4.479C236.512,406.229,234.91,406.933,233.184,406.933L233.184,406.933z M233.184,406.933"/>
	<path fill="#FFFFFF" d="M378.016,551.703c-1.66,0-3.332-0.642-4.543-1.856c-1.152-1.151-1.855-2.815-1.855-4.543
		c0-1.664,0.707-3.328,1.855-4.479c2.43-2.435,6.656-2.435,9.086,0c1.152,1.151,1.855,2.815,1.855,4.479
		c0,1.724-0.703,3.325-1.855,4.543C381.344,551.062,379.68,551.703,378.016,551.703L378.016,551.703z M378.016,551.703"/>
	<path fill="#FFFFFF" d="M378.016,406.933c-1.66,0-3.332-0.703-4.543-1.854c-1.152-1.215-1.855-2.879-1.855-4.543
		c0-1.728,0.707-3.396,1.855-4.543c2.367-2.371,6.656-2.371,9.086,0c1.152,1.148,1.855,2.816,1.855,4.543
		c0,1.664-0.703,3.328-1.855,4.543C381.344,406.229,379.68,406.933,378.016,406.933L378.016,406.933z M378.016,406.933"/>
	<path fill="#FFFFFF" d="M400.223,440.152c-1.661,0-3.324-0.703-4.543-1.923c-1.152-1.151-1.855-2.815-1.855-4.479
		c0-1.728,0.707-3.391,1.855-4.543c2.43-2.367,6.656-2.367,9.086,0c1.156,1.152,1.855,2.815,1.855,4.543
		c0,1.664-0.699,3.328-1.855,4.479C403.555,439.449,401.887,440.152,400.223,440.152L400.223,440.152z M400.223,440.152"/>
	<path fill="#FFFFFF" d="M266.398,384.726c-1.664,0-3.324-0.703-4.476-1.918c-1.219-1.152-1.922-2.816-1.922-4.48
		c0-1.664,0.703-3.328,1.922-4.547c2.363-2.367,6.656-2.367,9.019,0c1.219,1.219,1.856,2.816,1.856,4.547
		c0,1.664-0.637,3.328-1.856,4.543C269.73,384.023,268.129,384.726,266.398,384.726L266.398,384.726z M266.398,384.726"/>
	<path fill="#FFFFFF" d="M400.223,518.484c-1.661,0-3.324-0.638-4.543-1.855c-1.152-1.215-1.855-2.817-1.855-4.543
		c0-1.664,0.707-3.329,1.855-4.477c2.367-2.435,6.719-2.435,9.086,0c1.156,1.147,1.855,2.813,1.855,4.477
		c0,1.726-0.699,3.328-1.855,4.543C403.555,517.847,401.887,518.484,400.223,518.484L400.223,518.484z M400.223,518.484"/>
	<path fill="#FFFFFF" d="M344.797,384.726c-1.66,0-3.324-0.703-4.543-1.855c-1.148-1.215-1.855-2.879-1.855-4.543
		c0-1.731,0.707-3.391,1.855-4.547c2.371-2.367,6.656-2.367,9.086,0c1.156,1.219,1.859,2.816,1.859,4.547
		c0,1.664-0.703,3.328-1.859,4.543C348.129,384.023,346.469,384.726,344.797,384.726L344.797,384.726z M344.797,384.726"/>
	<path fill="#FFFFFF" d="M405.984,458.906c-1.73,0-3.391-0.707-4.543-1.859c-1.219-1.219-1.855-2.879-1.855-4.543
		s0.637-3.329,1.855-4.547c2.367-2.367,6.656-2.367,9.023,0c1.215,1.218,1.918,2.883,1.918,4.547s-0.703,3.324-1.918,4.543
		C409.313,458.199,407.648,458.906,405.984,458.906L405.984,458.906z M405.984,458.906"/>
	<path fill="#FFFFFF" d="M285.215,378.968c-1.731,0-3.328-0.703-4.543-1.855c-1.219-1.219-1.856-2.816-1.856-4.547
		c0-1.66,0.637-3.328,1.856-4.543c2.371-2.367,6.656-2.367,9.09,0c1.148,1.215,1.855,2.883,1.855,4.543
		c0,1.664-0.707,3.328-1.855,4.547C288.543,378.265,286.879,378.968,285.215,378.968L285.215,378.968z M285.215,378.968"/>
	<path fill="#FFFFFF" d="M391.012,535.828c-1.668,0-3.332-0.703-4.543-1.853c-1.156-1.219-1.859-2.815-1.859-4.547
		c0-1.664,0.703-3.324,1.859-4.543c2.367-2.367,6.715-2.367,9.086,0c1.148,1.219,1.855,2.879,1.855,4.543
		c0,1.728-0.707,3.328-1.855,4.547C394.336,535.125,392.672,535.828,391.012,535.828L391.012,535.828z M391.012,535.828"/>
	<path fill="#FFFFFF" d="M362.141,393.941c-1.66,0-3.324-0.703-4.543-1.855c-1.148-1.215-1.855-2.879-1.855-4.543
		c0-1.731,0.707-3.328,1.855-4.547c2.371-2.367,6.727-2.367,9.027,0c1.215,1.156,1.918,2.816,1.918,4.547
		c0,1.664-0.703,3.328-1.918,4.543C365.473,393.238,363.813,393.941,362.141,393.941L362.141,393.941z M362.141,393.941"/>
	<path fill="#FFFFFF" d="M390.5,422.039c-1.664,0-3.332-0.642-4.547-1.856c-1.156-1.151-1.855-2.815-1.855-4.543
		c0-1.664,0.699-3.328,1.855-4.547c2.434-2.367,6.656-2.367,9.09,0c1.211,1.219,1.855,2.883,1.855,4.547
		c0,1.728-0.645,3.388-1.855,4.543C393.824,421.397,392.223,422.039,390.5,422.039L390.5,422.039z M390.5,422.039"/>
	<path fill="#FFFFFF" d="M248.355,394.39c-1.73,0-3.332-0.64-4.546-1.854c-1.157-1.153-1.856-2.817-1.856-4.481
		c0-1.726,0.699-3.39,1.856-4.543c2.371-2.371,6.718-2.371,9.089,0c1.149,1.153,1.856,2.817,1.856,4.543
		c0,1.664-0.707,3.328-1.856,4.481C251.68,393.75,250.016,394.39,248.355,394.39L248.355,394.39z M248.355,394.39"/>
	<path fill="#FFFFFF" d="M406.109,498.84c-1.66,0-3.324-0.641-4.543-1.855c-1.148-1.22-1.855-2.816-1.855-4.548
		c0-1.659,0.707-3.327,1.855-4.543c2.434-2.366,6.656-2.366,9.086,0c1.219,1.216,1.859,2.884,1.859,4.543
		c0,1.731-0.641,3.328-1.859,4.548C409.441,498.199,407.844,498.84,406.109,498.84L406.109,498.84z M406.109,498.84"/>
	<path fill="#FFFFFF" d="M325.152,378.777c-1.73,0-3.328-0.641-4.543-1.855c-1.156-1.219-1.855-2.817-1.855-4.547
		c0-1.664,0.699-3.328,1.855-4.481c2.371-2.429,6.656-2.429,9.09,0c1.148,1.153,1.855,2.817,1.855,4.481
		c0,1.73-0.707,3.39-1.855,4.547C328.48,378.136,326.816,378.777,325.152,378.777L325.152,378.777z M325.152,378.777"/>
	<path fill="#FFCD00" d="M339.086,536.285c2.73,0,5.445-0.856,7.762-2.539c4.105-2.985,6.117-7.938,5.262-12.935l-0.289-1.687
		l-15.676-15.676l3.352,19.522l6.309-1.082l-6.934,1.532l-30.281-15.918c-1.859-0.981-4.086-0.981-5.949,0l-30.282,15.918
		l2.977,5.668l-3.594-6.118l5.781-33.715c0.356-2.078-0.332-4.195-1.839-5.667l-24.5-23.879l-4.469,4.586l4.707-5.313l33.851-4.918
		c0.407-0.06,0.789-0.188,1.172-0.32l-11.164-11.164l-25.703,3.734c-5.016,0.73-9.105,4.184-10.676,9.004
		c-1.566,4.823-0.285,10.016,3.344,13.559l22.094,21.531l-5.211,30.397c-0.856,4.996,1.156,9.953,5.262,12.935
		c4.086,2.973,9.429,3.362,13.918,1.012l27.308-14.356l27.305,14.356C334.875,535.781,336.984,536.285,339.086,536.285
		L339.086,536.285z M339.086,536.285"/>
	<path fill="#FFCD00" d="M203.234,479.32c-1.668,0-3.328-0.707-4.55-1.855c-1.149-1.215-1.848-2.883-1.848-4.543
		c0-1.668,0.699-3.329,1.848-4.547c2.371-2.368,6.656-2.368,9.027,0c1.219,1.218,1.926,2.879,1.926,4.547
		c0,1.66-0.707,3.328-1.926,4.543C206.562,478.613,204.898,479.32,203.234,479.32L203.234,479.32z M203.234,479.32"/>
	<path fill="#FFCD00" d="M305.637,581.718c-1.668,0-3.332-0.703-4.551-1.854c-1.211-1.216-1.852-2.879-1.852-4.543
		s0.641-3.328,1.852-4.543c2.437-2.371,6.656-2.371,9.023,0c1.219,1.215,1.926,2.879,1.926,4.543s-0.707,3.327-1.926,4.543
		C308.961,581.015,307.297,581.718,305.637,581.718L305.637,581.718z M305.637,581.718"/>
	<path fill="#FFCD00" d="M233.184,551.703c-1.661,0-3.329-0.642-4.481-1.856c-1.219-1.218-1.918-2.882-1.918-4.543
		c0-1.664,0.699-3.328,1.918-4.479c2.371-2.371,6.656-2.435,9.027,0c1.211,1.151,1.856,2.815,1.856,4.479
		c0,1.661-0.645,3.325-1.856,4.543C236.578,551.062,234.91,551.703,233.184,551.703L233.184,551.703z M233.184,551.703"/>
	<path fill="#FFCD00" d="M211.043,518.484c-1.731,0-3.395-0.638-4.543-1.855c-1.219-1.215-1.859-2.879-1.859-4.543
		s0.64-3.329,1.859-4.477c2.367-2.435,6.652-2.435,9.023,0c1.211,1.147,1.918,2.813,1.918,4.477s-0.707,3.328-1.918,4.543
		C214.367,517.847,212.703,518.484,211.043,518.484L211.043,518.484z M211.043,518.484"/>
	<path fill="#FFCD00" d="M344.797,573.91c-1.66,0-3.324-0.642-4.543-1.856c-1.148-1.147-1.855-2.815-1.855-4.543
		c0-1.664,0.707-3.328,1.855-4.546c2.43-2.368,6.656-2.368,9.086,0c1.156,1.218,1.859,2.882,1.859,4.546s-0.703,3.329-1.859,4.543
		C348.129,573.269,346.469,573.91,344.797,573.91L344.797,573.91z M344.797,573.91"/>
	<path fill="#FFCD00" d="M211.043,440.152c-1.731,0-3.395-0.703-4.543-1.923c-1.219-1.151-1.859-2.815-1.859-4.479
		c0-1.728,0.64-3.391,1.859-4.543c2.367-2.367,6.652-2.367,9.023,0c1.211,1.215,1.918,2.815,1.918,4.543
		c0,1.664-0.707,3.328-1.918,4.479C214.367,439.449,212.703,440.152,211.043,440.152L211.043,440.152z M211.043,440.152"/>
	<path fill="#FFCD00" d="M266.398,573.91c-1.664,0-3.324-0.642-4.476-1.856c-1.219-1.214-1.922-2.815-1.922-4.543
		c0-1.664,0.703-3.328,1.922-4.483c2.363-2.431,6.656-2.431,9.019,0c1.219,1.155,1.856,2.819,1.856,4.483
		c0,1.728-0.637,3.329-1.856,4.543C269.793,573.269,268.129,573.91,266.398,573.91L266.398,573.91z M266.398,573.91"/>
	<path fill="#FFCD00" d="M205.281,499.734c-1.664,0-3.328-0.707-4.547-1.855c-1.148-1.215-1.855-2.883-1.855-4.543
		c0-1.668,0.707-3.329,1.855-4.543c2.434-2.371,6.657-2.371,9.09,0c1.156,1.214,1.856,2.875,1.856,4.543
		c0,1.66-0.7,3.328-1.856,4.543C208.609,499.031,206.941,499.734,205.281,499.734L205.281,499.734z M205.281,499.734"/>
	<path fill="#FFCD00" d="M326.047,579.668c-1.723,0-3.395-0.703-4.543-1.856c-1.219-1.215-1.855-2.879-1.855-4.543
		c0-1.659,0.637-3.327,1.855-4.543c2.367-2.371,6.656-2.371,9.023,0c1.215,1.216,1.918,2.884,1.918,4.543
		c0,1.664-0.703,3.328-1.918,4.543C329.379,578.965,327.711,579.668,326.047,579.668L326.047,579.668z M326.047,579.668"/>
	<path fill="#FFCD00" d="M220.254,422.808c-1.723,0-3.387-0.703-4.543-1.854c-1.215-1.219-1.856-2.883-1.856-4.547
		c0-1.728,0.645-3.328,1.856-4.543c2.367-2.367,6.656-2.367,9.023,0c1.219,1.215,1.918,2.879,1.918,4.543s-0.699,3.328-1.918,4.547
		C223.586,422.104,221.922,422.808,220.254,422.808L220.254,422.808z M220.254,422.808"/>
	<path fill="#FFCD00" d="M249.125,564.695c-1.734,0-3.395-0.703-4.547-1.855c-1.219-1.215-1.855-2.817-1.855-4.543
		c0-1.668,0.636-3.329,1.855-4.485c2.363-2.43,6.656-2.43,9.02,0c1.218,1.153,1.925,2.817,1.925,4.485
		c0,1.726-0.707,3.328-1.925,4.543C252.449,563.992,250.785,564.695,249.125,564.695L249.125,564.695z M249.125,564.695"/>
	<path fill="#FFCD00" d="M220.703,536.597c-1.66,0-3.324-0.703-4.543-1.918c-1.148-1.151-1.855-2.815-1.855-4.479
		c0-1.728,0.707-3.328,1.855-4.543c2.434-2.371,6.719-2.371,9.086,0c1.219,1.215,1.859,2.815,1.859,4.543
		c0,1.664-0.64,3.328-1.859,4.479C224.035,535.894,222.438,536.597,220.703,536.597L220.703,536.597z M220.703,536.597"/>
	<path fill="#FFCD00" d="M362.91,564.183c-1.723,0-3.387-0.64-4.543-1.854c-1.215-1.153-1.855-2.817-1.855-4.547
		c0-1.66,0.645-3.328,1.855-4.478c2.305-2.371,6.656-2.433,9.023,0c1.219,1.149,1.918,2.817,1.918,4.478
		c0,1.729-0.699,3.394-1.918,4.547C366.242,563.543,364.578,564.183,362.91,564.183L362.91,564.183z M362.91,564.183"/>
	<path fill="#FFCD00" d="M205.086,459.797c-1.664,0-3.324-0.704-4.543-1.918c-1.152-1.153-1.859-2.817-1.859-4.481
		c0-1.726,0.707-3.327,1.859-4.543c2.367-2.37,6.723-2.37,9.094,0c1.211,1.216,1.847,2.817,1.847,4.543
		c0,1.664-0.636,3.328-1.847,4.481C208.418,459.093,206.754,459.797,205.086,459.797L205.086,459.797z M205.086,459.797"/>
	<path fill="#FFCD00" d="M286.047,579.863c-1.66,0-3.324-0.707-4.481-1.923c-1.211-1.147-1.855-2.815-1.855-4.476
		c0-1.73,0.644-3.395,1.855-4.543c2.372-2.372,6.657-2.372,9.028,0c1.215,1.148,1.855,2.813,1.855,4.543
		c0,1.66-0.64,3.328-1.855,4.476C289.441,579.156,287.781,579.863,286.047,579.863L286.047,579.863z M286.047,579.863"/>
	<path fill="#FFCD00" d="M228.699,396c-1.215,1.152-1.914,2.812-1.914,4.535c0,1.664,0.699,3.328,1.918,4.479
		c1.152,1.215,2.82,1.918,4.481,1.918c1.722,0,3.316-0.703,4.535-1.914L228.699,396z M228.699,396"/>
	<path fill="#FFCD00" d="M378.016,551.703c1.66,0,3.316-0.637,4.535-1.849l-9.051-9.051c-0.008,0.008-0.02,0.012-0.027,0.021
		c-1.152,1.151-1.855,2.815-1.855,4.479c0,1.724,0.707,3.392,1.855,4.543C374.684,551.062,376.355,551.703,378.016,551.703
		L378.016,551.703z M378.016,551.703"/>
</g>
</svg>
