<?xml version="1.0" encoding="utf-8"?>
<!-- Generator: Adobe Illustrator 16.0.0, SVG Export Plug-In . SVG Version: 6.00 Build 0)  -->
<!DOCTYPE svg PUBLIC "-//W3C//DTD SVG 1.1//EN" "http://www.w3.org/Graphics/SVG/1.1/DTD/svg11.dtd">
<svg version="1.1" id="Layer_1" xmlns="http://www.w3.org/2000/svg" xmlns:xlink="http://www.w3.org/1999/xlink" x="0px" y="0px"
	 width="612px" height="792px" viewBox="0 0 612 792" enable-background="new 0 0 612 792" xml:space="preserve">
<g>
	<path d="M371.219,382.262l-13.578-13.574c-2.5-2.5-6.547-2.5-9.047,0l-25.602,25.601c-2.5,2.5-2.5,6.551,0,9.051l13.574,13.574
		c2.495,2.493,5.777,3.743,9.051,3.743c3.281,0,6.563-1.25,9.059-3.743l16.535-16.543c2.418-2.414,3.758-5.625,3.758-9.046
		C374.969,387.899,373.637,384.68,371.219,382.262L371.219,382.262z M371.219,382.262"/>
	<path fill="#868491" d="M345.457,337.789c-2.195-0.527-4.477,0.114-6.051,1.692l-45.308,45.308c-1.575,1.567-2.219,3.844-1.7,6.004
		c0.512,2.164,2.114,3.907,4.227,4.602l30.891,12.47l34.652-34.649l-12.133-31.125C349.363,339.95,347.625,338.325,345.457,337.789
		L345.457,337.789z M345.457,337.789"/>
	<path fill="#5C546A" d="M296.625,395.395l30.895,12.47l17.199-17.201l-28.25-28.25l-22.371,22.375
		c-1.575,1.567-2.219,3.844-1.7,6.004C292.91,392.957,294.512,394.7,296.625,395.395L296.625,395.395z M296.625,395.395"/>
	<path d="M227.438,255.317l-18.067,18.066c-0.312,0.313-0.82,0.313-1.133,0l-44.218-44.215c-0.313-0.316-0.313-0.82,0-1.133
		l18.07-18.07c0.312-0.312,0.82-0.312,1.133,0l44.215,44.219C227.75,254.496,227.75,255.004,227.438,255.317L227.438,255.317z
		 M227.438,255.317"/>
	<path fill="#5C546A" d="M377.105,523h-27.801c-3.539,0-6.398-2.863-6.398-6.398c0-3.539,2.859-6.401,6.398-6.401h27.801
		c3.367,0,6.668-1.368,9.051-3.75l14.898-14.899c2.5-2.5,6.551-2.5,9.051,0s2.5,6.551,0,9.051L395.207,515.5
		C390.441,520.27,383.844,523,377.105,523L377.105,523z M377.105,523"/>
	<path d="M249.48,363c-1.703,6.957-2.574,14.176-2.574,21.555c0,39.896,26.203,73.777,62.301,85.353l-11.07,36.776
		c-51.895-16.34-89.633-64.906-89.633-122.129c0-11.668,1.609-23.23,4.715-34.352L249.48,363z M249.48,363"/>
	<g>
		<defs>
			<rect id="SVGID_1_" x="147" y="193" width="316.8" height="407.76"/>
		</defs>
		<clipPath id="SVGID_2_">
			<use xlink:href="#SVGID_1_"  overflow="visible"/>
		</clipPath>
		<path clip-path="url(#SVGID_2_)" d="M448.73,390.477l-18.102-18.102c-2.5-2.5-6.551-2.5-9.051,0l-89.047,89.051
			c-1.965,1.961-2.438,4.969-1.176,7.438l12.25,23.948c0.93,1.824,2.68,3.095,4.706,3.414c0.329,0.051,0.661,0.074,0.993,0.074
			c1.684,0,3.32-0.66,4.523-1.875l94.902-94.898C451.23,397.023,451.23,392.977,448.73,390.477L448.73,390.477z M448.73,390.477"/>
		<path clip-path="url(#SVGID_2_)" d="M461.531,454.477l-18.102-18.102c-2.5-2.5-6.551-2.5-9.051,0l-43.699,43.7
			c-2.5,2.5-2.5,6.55,0,9.05l18.098,18.102c1.254,1.25,2.891,1.875,4.527,1.875s3.273-0.625,4.523-1.875l43.699-43.703
			C464.031,461.023,464.031,456.977,461.531,454.477L461.531,454.477z M461.531,454.477"/>
	</g>
	<path fill="#B4B6BC" d="M323.703,459c-17.642,0-32,14.355-32,32v70.398c0,3.539,2.863,6.402,6.402,6.402
		c3.536,0,6.399-2.863,6.399-6.402h38.402c0,3.539,2.859,6.402,6.398,6.402s6.398-2.863,6.398-6.402V491
		C355.703,473.355,341.348,459,323.703,459L323.703,459z M323.703,459"/>
	<path fill="#B4B6BC" d="M348.449,339.477l-93.914-93.555c-7.48-7.469-19.656-7.484-27.148,0.004l-27.157,27.152
		c-3.625,3.629-5.625,8.45-5.625,13.579c0,5.128,2,9.949,5.625,13.574l10.149,10.148c2.5,2.5,6.551,2.5,9.051,0l41.703,41.703
		c-0.008,0.004-0.016,0.008-0.024,0.012c-2.484,2.508-2.472,6.563,0.039,9.051l32.969,32.711c1.246,1.238,2.875,1.859,4.508,1.859
		c1.637,0,3.273-0.625,4.523-1.875l45.309-45.308c1.199-1.2,1.875-2.832,1.875-4.532
		C350.332,342.301,349.648,340.668,348.449,339.477L348.449,339.477z M348.449,339.477"/>
	<path fill="#868491" d="M261.148,361.145l32.969,32.711c1.246,1.238,2.875,1.855,4.508,1.855c1.637,0,3.273-0.625,4.523-1.875
		l22.372-22.371L213.684,259.629l-13.454,13.449c-3.625,3.629-5.625,8.45-5.625,13.579c0,5.128,2,9.949,5.625,13.574l10.149,10.148
		c2.5,2.5,6.551,2.5,9.051,0l41.703,41.703c-0.008,0.004-0.016,0.008-0.02,0.012C258.625,354.602,258.637,358.657,261.148,361.145
		L261.148,361.145z M261.148,361.145"/>
	<path d="M368.504,555h-89.598c-14.121,0-25.601,11.48-25.601,25.602v12.797c0,3.539,2.863,6.402,6.398,6.402h128
		c3.539,0,6.402-2.863,6.402-6.402v-12.797C394.105,566.48,382.625,555,368.504,555L368.504,555z M368.504,555"/>
	<path fill="#5C546A" d="M278.906,331c0,21.207-17.191,38.399-38.402,38.399c-21.207,0-38.399-17.192-38.399-38.399
		s17.192-38.398,38.399-38.398C261.715,292.602,278.906,309.793,278.906,331L278.906,331z M278.906,331"/>
	<path fill="#868491" d="M259.707,331c0,10.606-8.598,19.2-19.203,19.2c-10.602,0-19.199-8.594-19.199-19.2
		c0-10.605,8.597-19.199,19.199-19.199C251.109,311.801,259.707,320.395,259.707,331L259.707,331z M259.707,331"/>
	<g>
		<defs>
			<rect id="SVGID_3_" x="147" y="193" width="316.8" height="407.76"/>
		</defs>
		<clipPath id="SVGID_4_">
			<use xlink:href="#SVGID_3_"  overflow="visible"/>
		</clipPath>
		<path clip-path="url(#SVGID_4_)" fill="#5C546A" d="M336.254,491c0,7.07-5.73,12.801-12.797,12.801
			c-7.07,0-12.801-5.73-12.801-12.801s5.73-12.8,12.801-12.8C330.523,478.2,336.254,483.93,336.254,491L336.254,491z M336.254,491"
			/>
		<path clip-path="url(#SVGID_4_)" fill="#868491" d="M194.129,212.922l-27.152,27.153c-2.5,2.5-6.551,2.5-9.051,0l-9.051-9.051
			c-2.5-2.5-2.5-6.551,0-9.051l27.152-27.152c2.5-2.5,6.551-2.5,9.051,0l9.051,9.05
			C196.629,206.371,196.629,210.422,194.129,212.922L194.129,212.922z M194.129,212.922"/>
		<path clip-path="url(#SVGID_4_)" fill="#5C546A" d="M162.453,208.399l-13.578,13.574c-2.5,2.5-2.5,6.551,0,9.051l9.051,9.051
			c2.5,2.5,6.551,2.5,9.051,0l13.578-13.579L162.453,208.399z M162.453,208.399"/>
	</g>
</g>
</svg>
