<?xml version="1.0" encoding="utf-8"?>
<!-- Generator: Adobe Illustrator 16.0.0, SVG Export Plug-In . SVG Version: 6.00 Build 0)  -->
<!DOCTYPE svg PUBLIC "-//W3C//DTD SVG 1.1//EN" "http://www.w3.org/Graphics/SVG/1.1/DTD/svg11.dtd">
<svg version="1.1" id="Layer_1" xmlns="http://www.w3.org/2000/svg" xmlns:xlink="http://www.w3.org/1999/xlink" x="0px" y="0px"
	 width="612px" height="792px" viewBox="0 0 612 792" enable-background="new 0 0 612 792" xml:space="preserve">
<g>
	<path d="M168.613,465.602c-2.418,0-4.738-1.375-5.82-3.719c-1.481-3.207-0.082-7.016,3.133-8.496l85.082-39.266
		c3.219-1.484,7.012-0.078,8.492,3.129s0.082,7.012-3.129,8.492l-85.082,39.27C170.418,465.414,169.508,465.602,168.613,465.602
		L168.613,465.602z M168.613,465.602"/>
	<path d="M265.242,361.469c-1.637,0-3.273-0.625-4.523-1.875l-56.367-56.368c-2.5-2.5-2.5-6.55,0-9.05s6.55-2.5,9.046,0
		l56.372,56.367c2.5,2.5,2.5,6.551,0,9.051C268.52,360.844,266.879,361.469,265.242,361.469L265.242,361.469z M265.242,361.469"/>
	<path d="M346.707,361.469c-1.637,0-3.277-0.625-4.527-1.875c-2.5-2.5-2.5-6.551,0-9.051l81.195-81.188c2.5-2.5,6.551-2.5,9.051,0
		s2.5,6.551,0,9.051l-81.195,81.188C349.98,360.844,348.344,361.469,346.707,361.469L346.707,361.469z M346.707,361.469"/>
	<path d="M460.676,556.898c-1.637,0-3.277-0.625-4.523-1.875L342.176,441.051c-2.5-2.5-2.5-6.551,0-9.051s6.551-2.5,9.051,0
		l113.973,113.977c2.5,2.5,2.5,6.551,0,9.051C463.949,556.273,462.313,556.898,460.676,556.898L460.676,556.898z M460.676,556.898"
		/>
	<path d="M316.445,517.398c-3.277,0-6.063-2.5-6.371-5.816l-5.262-57.844c-0.316-3.52,2.278-6.637,5.793-6.957
		c3.582-0.305,6.633,2.281,6.956,5.793l5.263,57.844c0.32,3.52-2.273,6.641-5.793,6.957
		C316.832,517.395,316.637,517.398,316.445,517.398L316.445,517.398z M316.445,517.398"/>
	<path fill="#FF1A30" d="M369.977,395.801c0,35.343-28.656,64-64,64c-35.348,0-64-28.656-64-64c0-35.348,28.652-64,64-64
		C341.32,331.801,369.977,360.453,369.977,395.801L369.977,395.801z M369.977,395.801"/>
	<path fill="#FF8C62" d="M344.199,379.801c0,12.371-10.027,22.398-22.398,22.398s-22.403-10.027-22.403-22.398
		c0-12.372,10.032-22.403,22.403-22.403S344.199,367.429,344.199,379.801L344.199,379.801z M344.199,379.801"/>
	<path fill="#FFF200" d="M177.625,472.512c0,21.16-17.152,38.313-38.313,38.313c-21.16,0-38.312-17.152-38.312-38.313
		s17.152-38.313,38.312-38.313C160.473,434.199,177.625,451.352,177.625,472.512L177.625,472.512z M177.625,472.512"/>
	<path fill="#EFD460" d="M162.195,462.934c0,7.406-6.004,13.41-13.41,13.41c-7.406,0-13.41-6.004-13.41-13.41
		s6.004-13.41,13.41-13.41C156.191,449.523,162.195,455.527,162.195,462.934L162.195,462.934z M162.195,462.934"/>
	<path fill="#06770B" d="M510.598,242.113c0,28.227-22.883,51.109-51.109,51.109c-28.23,0-51.113-22.882-51.113-51.109
		c0-28.23,22.883-51.113,51.113-51.113C487.715,191,510.598,213.883,510.598,242.113L510.598,242.113z M510.598,242.113"/>
	<path fill="#2DAD1F" d="M490.016,229.336c0,9.879-8.012,17.886-17.891,17.886s-17.891-8.007-17.891-17.886
		c0-9.883,8.012-17.891,17.891-17.891S490.016,219.453,490.016,229.336L490.016,229.336z M490.016,229.336"/>
	<path fill="#000AC1" d="M222.426,280.687c0,17.625-14.289,31.914-31.914,31.914s-31.91-14.289-31.91-31.914
		s14.285-31.91,31.91-31.91S222.426,263.062,222.426,280.687L222.426,280.687z M222.426,280.687"/>
	<path fill="#4F64DB" d="M209.574,272.711c0,6.168-5.004,11.168-11.172,11.168s-11.168-5-11.168-11.168
		c0-6.172,5-11.172,11.168-11.172S209.574,266.539,209.574,272.711L209.574,272.711z M209.574,272.711"/>
	<path fill="#FF6700" d="M510.426,568.688c0,17.625-14.289,31.91-31.914,31.91s-31.91-14.285-31.91-31.91
		s14.285-31.914,31.91-31.914S510.426,551.063,510.426,568.688L510.426,568.688z M510.426,568.688"/>
	<path fill="#F49C60" d="M497.574,560.711c0,6.168-5.004,11.168-11.172,11.168s-11.168-5-11.168-11.168
		c0-6.172,5-11.172,11.168-11.172S497.574,554.539,497.574,560.711L497.574,560.711z M497.574,560.711"/>
	<path fill="#7800CE" d="M350.598,536.688c0,17.625-14.286,31.91-31.91,31.91c-17.625,0-31.915-14.285-31.915-31.91
		s14.289-31.914,31.915-31.914C336.312,504.773,350.598,519.063,350.598,536.688L350.598,536.688z M350.598,536.688"/>
	<path fill="#A257EA" d="M337.746,528.711c0,6.168-5,11.168-11.168,11.168s-11.168-5-11.168-11.168c0-6.172,5-11.172,11.168-11.172
		S337.746,522.539,337.746,528.711L337.746,528.711z M337.746,528.711"/>
</g>
</svg>
