<?xml version="1.0" encoding="utf-8"?>
<!-- Generator: Adobe Illustrator 16.0.0, SVG Export Plug-In . SVG Version: 6.00 Build 0)  -->
<!DOCTYPE svg PUBLIC "-//W3C//DTD SVG 1.1//EN" "http://www.w3.org/Graphics/SVG/1.1/DTD/svg11.dtd">
<svg version="1.1" id="Layer_1" xmlns="http://www.w3.org/2000/svg" xmlns:xlink="http://www.w3.org/1999/xlink" x="0px" y="0px"
	 width="612px" height="792px" viewBox="0 0 612 792" enable-background="new 0 0 612 792" xml:space="preserve">
<g>
	<path d="M420.762,361.389c-0.004-1.824-0.785-3.563-2.148-4.777c-1.371-1.211-3.203-1.778-5-1.567l-217.425,25.598
		c-3.219,0.379-5.653,3.113-5.653,6.355V444.6c0,25.258,72.414,32,115.203,32c42.786,0,115.2-6.742,115.2-32v-0.012L420.762,361.389
		z M420.762,361.389"/>
	<g>
		<defs>
			<rect id="SVGID_1_" x="102" y="265" width="407.76" height="263.76"/>
		</defs>
		<clipPath id="SVGID_2_">
			<use xlink:href="#SVGID_1_"  overflow="visible"/>
		</clipPath>
		<path clip-path="url(#SVGID_2_)" d="M420.762,380.6h-115.2v96c0.059,0,0.118,0,0.176,0c41.668,0,111.403-6.398,115.024-30.063
			V380.6z M420.762,380.6"/>
		<path clip-path="url(#SVGID_2_)" d="M496.5,326.049l-163.781-56.152c-17.398-5.969-36.563-5.969-53.961,0L114.98,326.049
			c-7.878,2.703-12.98,9.828-12.98,18.164c0,8.332,5.102,15.457,12.98,18.16l163.778,56.152c8.699,2.984,17.836,4.473,26.98,4.473
			c9.145,0,18.282-1.488,26.981-4.473L496.5,362.373c7.883-2.703,12.977-9.828,12.977-18.16
			C509.477,335.877,504.383,328.752,496.5,326.049L496.5,326.049z M496.5,326.049"/>
	</g>
	<path fill="#232121" d="M427.164,482.998c-3.539,0-6.402-2.863-6.402-6.398v-83.625c0-2.734-1.738-5.168-4.324-6.055
		l-112.95-38.726c-3.343-1.145-5.125-4.786-3.98-8.129c1.148-3.344,4.781-5.133,8.129-3.977l112.949,38.727
		c7.762,2.66,12.976,9.957,12.976,18.16V476.6C433.562,480.135,430.699,482.998,427.164,482.998L427.164,482.998z M427.164,482.998"
		/>
	<path fill="#FFE671" d="M433.562,527.799h-12.8c-3.535,0-6.398-2.863-6.398-6.398v-38.402c0-7.066,5.73-12.797,12.801-12.797
		c7.066,0,12.797,5.73,12.797,12.797V521.4C439.961,524.936,437.098,527.799,433.562,527.799L433.562,527.799z M433.562,527.799"/>
	<path fill="#232121" d="M305.738,450.998c46.434,0,93.254-7.035,115.168-20.641l-0.035-17.516
		c-0.707,8.75-41.25,25.359-115.133,25.359c-74.539,0-115.199-16.914-115.199-25.602v17.738
		C212.438,443.955,259.281,450.998,305.738,450.998L305.738,450.998z M305.738,450.998"/>
	<path fill="#5C546A" d="M420.762,430.439c0.047-0.027,0.102-0.055,0.145-0.082l-0.035-17.516c-0.008,0.098-0.09,0.211-0.109,0.313
		V430.439z M420.762,430.439"/>
	<path fill="#232121" d="M305.562,438.198c-74.421-0.028-115.023-16.918-115.023-25.599v17.738
		c21.871,13.598,68.625,20.641,115.023,20.66V438.198z M305.562,438.198"/>
	<path fill="#232121" d="M331.336,342.201c0,7.067-11.461,12.797-25.598,12.797c-14.14,0-25.601-5.73-25.601-12.797
		c0-7.07,11.461-12.8,25.601-12.8C319.875,329.401,331.336,335.131,331.336,342.201L331.336,342.201z M331.336,342.201"/>
	<path fill="#FFCD00" d="M414.363,482.998V521.4c0,3.535,2.863,6.398,6.398,6.398h6.402v-57.598
		C420.094,470.201,414.363,475.932,414.363,482.998L414.363,482.998z M414.363,482.998"/>
</g>
</svg>
