<?xml version="1.0" encoding="utf-8"?>
<!-- Generator: Adobe Illustrator 16.0.0, SVG Export Plug-In . SVG Version: 6.00 Build 0)  -->
<!DOCTYPE svg PUBLIC "-//W3C//DTD SVG 1.1//EN" "http://www.w3.org/Graphics/SVG/1.1/DTD/svg11.dtd">
<svg version="1.1" id="Layer_1" xmlns="http://www.w3.org/2000/svg" xmlns:xlink="http://www.w3.org/1999/xlink" x="0px" y="0px"
	 width="612px" height="792px" viewBox="0 0 612 792" enable-background="new 0 0 612 792" xml:space="preserve">
<g>
	<path fill="#810C84" d="M459.574,191H177.973c-10.586,0-19.2,8.613-19.2,19.199v371.199c0,10.59,8.614,19.203,19.2,19.203h281.601
		c10.586,0,19.199-8.613,19.199-19.203V210.199C478.773,199.613,470.164,191,459.574,191L459.574,191z M459.574,191"/>
	<path fill="#FFF800" d="M197.176,191h-25.778c-10.586,0-19.199,8.613-19.199,19.199v371.199c0,10.59,8.613,19.203,19.199,19.203
		h25.778V191z M197.176,191"/>
	<path fill="#FFFF00" d="M401.973,456.602h-0.457c-0.055-0.219-0.066-0.438-0.137-0.656l-36.223-114.703
		c4.543-0.762,8.02-4.68,8.02-9.441c0-5.305-4.301-9.602-9.602-9.602h-51.199c-5.301,0-9.602,4.297-9.602,9.602
		c0,4.761,3.477,8.679,8.02,9.441l-36.227,114.703c-0.066,0.219-0.078,0.438-0.132,0.656h-0.461c-5.297,0-9.598,4.297-9.598,9.598
		c0,5.305,4.301,9.602,9.598,9.602h25.601c5.301,0,9.602-4.297,9.602-9.602c0-4.762-3.477-8.68-8.02-9.441l7.125-22.559h59.387
		l7.125,22.559c-4.543,0.762-8.02,4.68-8.02,9.441c0,5.305,4.301,9.602,9.602,9.602h25.598c5.301,0,9.602-4.297,9.602-9.602
		C411.574,460.898,407.273,456.602,401.973,456.602L401.973,456.602z M316.367,408.602l21.016-66.546
		c0.066-0.219,0.078-0.438,0.137-0.657h0.914c0.055,0.219,0.066,0.438,0.137,0.657l21.012,66.546H316.367z M316.367,408.602"/>
	<path d="M165.176,242.199h-25.778c-3.535,0-6.398-2.863-6.398-6.398c0-3.535,2.863-6.403,6.398-6.403h25.778
		c3.535,0,6.398,2.868,6.398,6.403C171.574,239.336,168.711,242.199,165.176,242.199L165.176,242.199z M165.176,242.199"/>
	<path d="M165.176,274.199h-25.778c-3.535,0-6.398-2.863-6.398-6.398c0-3.535,2.863-6.403,6.398-6.403h25.778
		c3.535,0,6.398,2.868,6.398,6.403C171.574,271.336,168.711,274.199,165.176,274.199L165.176,274.199z M165.176,274.199"/>
	<path d="M165.176,306.199h-25.778c-3.535,0-6.398-2.863-6.398-6.398c0-3.535,2.863-6.403,6.398-6.403h25.778
		c3.535,0,6.398,2.868,6.398,6.403C171.574,303.336,168.711,306.199,165.176,306.199L165.176,306.199z M165.176,306.199"/>
	<path d="M165.176,338.199h-25.778c-3.535,0-6.398-2.863-6.398-6.398c0-3.535,2.863-6.403,6.398-6.403h25.778
		c3.535,0,6.398,2.868,6.398,6.403C171.574,335.336,168.711,338.199,165.176,338.199L165.176,338.199z M165.176,338.199"/>
	<path d="M165.176,370.199h-25.778c-3.535,0-6.398-2.863-6.398-6.398c0-3.535,2.863-6.403,6.398-6.403h25.778
		c3.535,0,6.398,2.868,6.398,6.403C171.574,367.336,168.711,370.199,165.176,370.199L165.176,370.199z M165.176,370.199"/>
	<path d="M165.176,402.199h-25.778c-3.535,0-6.398-2.863-6.398-6.398c0-3.535,2.863-6.403,6.398-6.403h25.778
		c3.535,0,6.398,2.868,6.398,6.403C171.574,399.336,168.711,402.199,165.176,402.199L165.176,402.199z M165.176,402.199"/>
	<path d="M165.176,434.199h-25.778c-3.535,0-6.398-2.863-6.398-6.398s2.863-6.402,6.398-6.402h25.778
		c3.535,0,6.398,2.867,6.398,6.402S168.711,434.199,165.176,434.199L165.176,434.199z M165.176,434.199"/>
	<path d="M165.176,466.199h-25.778c-3.535,0-6.398-2.863-6.398-6.398s2.863-6.402,6.398-6.402h25.778
		c3.535,0,6.398,2.867,6.398,6.402S168.711,466.199,165.176,466.199L165.176,466.199z M165.176,466.199"/>
	<path d="M165.176,498.199h-25.778c-3.535,0-6.398-2.863-6.398-6.398s2.863-6.402,6.398-6.402h25.778
		c3.535,0,6.398,2.867,6.398,6.402S168.711,498.199,165.176,498.199L165.176,498.199z M165.176,498.199"/>
	<path d="M165.176,530.199h-25.778c-3.535,0-6.398-2.863-6.398-6.398s2.863-6.402,6.398-6.402h25.778
		c3.535,0,6.398,2.867,6.398,6.402S168.711,530.199,165.176,530.199L165.176,530.199z M165.176,530.199"/>
	<path d="M165.176,562.199h-25.778c-3.535,0-6.398-2.863-6.398-6.398s2.863-6.402,6.398-6.402h25.778
		c3.535,0,6.398,2.867,6.398,6.402S168.711,562.199,165.176,562.199L165.176,562.199z M165.176,562.199"/>
	<path fill="#3482AC" d="M197.176,587.801c-3.539,0-6.403-2.867-6.403-6.402V210.199c0-3.535,2.864-6.398,6.403-6.398
		c3.535,0,6.398,2.863,6.398,6.398v371.199C203.574,584.934,200.711,587.801,197.176,587.801L197.176,587.801z M197.176,587.801"/>
</g>
</svg>
