<?xml version="1.0" encoding="utf-8"?>
<!-- Generator: Adobe Illustrator 16.0.0, SVG Export Plug-In . SVG Version: 6.00 Build 0)  -->
<!DOCTYPE svg PUBLIC "-//W3C//DTD SVG 1.1//EN" "http://www.w3.org/Graphics/SVG/1.1/DTD/svg11.dtd">
<svg version="1.1" id="Layer_1" xmlns="http://www.w3.org/2000/svg" xmlns:xlink="http://www.w3.org/1999/xlink" x="0px" y="0px"
	 width="612px" height="792px" viewBox="0 0 612 792" enable-background="new 0 0 612 792" xml:space="preserve">
<g>
	<path fill="#1300C9" d="M484.602,291.359H126.199c-10.586,0-19.199,8.614-19.199,19.2v211.203c0,10.586,8.613,19.199,19.199,19.199
		h358.402c10.586,0,19.199-8.613,19.199-19.199V310.559C503.801,299.973,495.188,291.359,484.602,291.359L484.602,291.359z
		 M484.602,291.359"/>
	<rect x="286.199" y="508.961" fill="#E3001E" width="38.401" height="32"/>
	<g>
		<defs>
			<rect id="SVGID_1_" x="107" y="252" width="396.96" height="289.92"/>
		</defs>
		<clipPath id="SVGID_2_">
			<use xlink:href="#SVGID_1_"  overflow="visible"/>
		</clipPath>
		<path clip-path="url(#SVGID_2_)" fill="#E6BE8A" d="M478.375,489.762v19.199c0,3.535-2.867,6.398-6.398,6.398H139.176
			c-3.535,0-6.403-2.863-6.403-6.398v-19.199L171,470.559l153.602,6.402l128-6.402L478.375,489.762z M478.375,489.762"/>
		<path clip-path="url(#SVGID_2_)" fill="#FFEBB7" d="M141.754,498.598c52.59-21.711,112.066-20.391,163.82,3.961V272.16
			c-53.461-25.156-115.16-25.734-169-1.742c-2.316,1.035-3.801,3.379-3.801,5.914v216.414
			C132.773,497.367,137.48,500.359,141.754,498.598L141.754,498.598z M141.754,498.598"/>
		<path clip-path="url(#SVGID_2_)" fill="#FFEBB7" d="M305.574,502.559c51.754-24.352,111.23-25.672,163.82-3.961
			c4.273,1.762,8.98-1.23,8.98-5.852V276.332c0-2.535-1.484-4.879-3.801-5.914c-53.84-23.992-115.539-23.414-169,1.742V502.559z
			 M305.574,502.559"/>
	</g>
	<path d="M331.176,460.762c-2.727,0-5.25-1.75-6.105-4.484c-1.059-3.371,0.816-6.966,4.188-8.023
		c6.473-2.035,13.137-3.77,19.804-5.168c3.45-0.727,6.853,1.484,7.575,4.949c0.727,3.461-1.484,6.852-4.949,7.574
		c-6.262,1.316-12.52,2.949-18.594,4.859C332.457,460.668,331.805,460.762,331.176,460.762L331.176,460.762z M331.176,460.762"/>
	<path d="M452.773,460.762c-0.629,0-1.281-0.094-1.918-0.297c-24.148-7.582-49.18-10.422-74.375-8.418
		c-3.574,0.258-6.605-2.352-6.887-5.875c-0.273-3.524,2.352-6.605,5.875-6.887c26.887-2.113,53.512,0.895,79.227,8.969
		c3.366,1.058,5.242,4.652,4.188,8.023C458.023,459.012,455.5,460.762,452.773,460.762L452.773,460.762z M452.773,460.762"/>
	<path d="M452.773,435.09c-0.629,0-1.281-0.098-1.918-0.297c-38.523-12.102-79.234-12.102-117.762,0
		c-3.387,1.059-6.973-0.82-8.023-4.188c-1.059-3.375,0.816-6.968,4.188-8.026c41.035-12.887,84.398-12.887,125.438,0
		c3.366,1.059,5.242,4.651,4.188,8.026C458.023,433.34,455.5,435.09,452.773,435.09L452.773,435.09z M452.773,435.09"/>
	<path d="M331.176,409.562c-2.727,0-5.25-1.75-6.105-4.483c-1.059-3.371,0.816-6.965,4.188-8.023
		c23.554-7.395,48-10.543,72.621-9.383c3.527,0.168,6.258,3.164,6.09,6.695c-0.164,3.539-3.113,6.237-6.699,6.09
		c-23.109-1.09-46.063,1.867-68.176,8.809C332.457,409.465,331.805,409.562,331.176,409.562L331.176,409.562z M331.176,409.562"/>
	<path d="M452.773,409.562c-0.629,0-1.281-0.097-1.918-0.296c-8.086-2.539-16.43-4.579-24.797-6.051
		c-3.484-0.617-5.809-3.938-5.188-7.418c0.609-3.477,3.938-5.805,7.41-5.192c8.914,1.575,17.793,3.743,26.414,6.45
		c3.366,1.059,5.242,4.652,4.188,8.023C458.023,407.812,455.5,409.562,452.773,409.562L452.773,409.562z M452.773,409.562"/>
	<path d="M452.773,383.887c-0.629,0-1.281-0.094-1.918-0.297c-38.523-12.098-79.234-12.098-117.762,0
		c-3.387,1.055-6.973-0.82-8.023-4.188c-1.059-3.371,0.816-6.965,4.188-8.023c41.035-12.887,84.398-12.887,125.438,0
		c3.366,1.058,5.242,4.652,4.188,8.023C458.023,382.137,455.5,383.887,452.773,383.887L452.773,383.887z M452.773,383.887"/>
	<path d="M331.176,358.289c-2.727,0-5.25-1.75-6.105-4.484c-1.059-3.371,0.816-6.965,4.188-8.024
		c12.875-4.047,26.199-6.851,39.617-8.34c3.563-0.425,6.68,2.149,7.066,5.653c0.391,3.515-2.141,6.679-5.652,7.066
		c-12.594,1.402-25.113,4.035-37.195,7.832C332.457,358.191,331.805,358.289,331.176,358.289L331.176,358.289z M331.176,358.289"/>
	<path d="M452.773,358.289c-0.629,0-1.281-0.098-1.918-0.297c-18.066-5.68-36.828-8.711-55.773-9.008
		c-3.539-0.054-6.355-2.964-6.301-6.5c0.055-3.531,3.145-6.504,6.5-6.297c20.176,0.317,40.168,3.547,59.414,9.59
		c3.366,1.063,5.242,4.657,4.188,8.028C458.02,356.539,455.5,358.289,452.773,358.289L452.773,358.289z M452.773,358.289"/>
	<path d="M331.176,332.762c-2.727,0-5.25-1.75-6.105-4.485c-1.059-3.371,0.816-6.965,4.188-8.023
		c27.887-8.758,56.746-11.57,85.824-8.336c3.512,0.387,6.043,3.551,5.656,7.066c-0.391,3.508-3.488,6.11-7.07,5.653
		c-27.273-3.028-54.395-0.399-80.574,7.828C332.457,332.668,331.805,332.762,331.176,332.762L331.176,332.762z M331.176,332.762"/>
	<path d="M452.773,332.762c-0.629,0-1.281-0.094-1.918-0.297c-4.063-1.278-8.23-2.438-12.398-3.453
		c-3.43-0.836-5.539-4.297-4.699-7.735c0.836-3.433,4.273-5.531,7.738-4.703c4.43,1.082,8.867,2.321,13.199,3.68
		c3.366,1.058,5.242,4.652,4.188,8.023C458.023,331.012,455.5,332.762,452.773,332.762L452.773,332.762z M452.773,332.762"/>
	<path d="M331.176,307.09c-2.727,0-5.25-1.754-6.105-4.488c-1.059-3.375,0.816-6.965,4.191-8.024
		c4.402-1.379,8.84-2.613,13.195-3.672c3.41-0.844,6.891,1.27,7.73,4.703c0.836,3.438-1.277,6.899-4.707,7.735
		c-4.086,0.992-8.254,2.152-12.395,3.449C332.449,306.992,331.805,307.09,331.176,307.09L331.176,307.09z M331.176,307.09"/>
	<path d="M452.773,307.09c-0.629,0-1.281-0.098-1.918-0.297c-26.188-8.231-53.293-10.856-80.574-7.832
		c-3.539,0.43-6.68-2.149-7.07-5.652c-0.387-3.512,2.145-6.68,5.656-7.067c29.063-3.234,57.934-0.422,85.828,8.336
		c3.366,1.063,5.242,4.656,4.184,8.027C458.023,305.34,455.5,307.09,452.773,307.09L452.773,307.09z M452.773,307.09"/>
	<path d="M158.375,460.762c-2.723,0-5.25-1.75-6.105-4.484c-1.059-3.371,0.816-6.966,4.187-8.023
		c6.473-2.035,13.137-3.77,19.805-5.168c3.457-0.727,6.851,1.484,7.574,4.949c0.726,3.461-1.484,6.852-4.949,7.574
		c-6.262,1.316-12.52,2.949-18.594,4.859C159.656,460.668,159.008,460.762,158.375,460.762L158.375,460.762z M158.375,460.762"/>
	<path d="M279.977,460.762c-0.633,0-1.282-0.094-1.918-0.297c-24.145-7.582-49.184-10.422-74.379-8.418
		c-3.621,0.258-6.606-2.352-6.887-5.875c-0.273-3.524,2.352-6.605,5.875-6.887c26.891-2.113,53.508,0.895,79.227,8.969
		c3.367,1.058,5.242,4.652,4.187,8.023C285.227,459.012,282.699,460.762,279.977,460.762L279.977,460.762z M279.977,460.762"/>
	<path d="M279.977,435.09c-0.633,0-1.282-0.098-1.918-0.297c-38.528-12.102-79.239-12.102-117.766,0
		c-3.398,1.059-6.973-0.82-8.023-4.188c-1.055-3.375,0.82-6.968,4.187-8.026c41.039-12.887,84.398-12.887,125.438,0
		c3.367,1.059,5.242,4.651,4.187,8.026C285.227,433.34,282.699,435.09,279.977,435.09L279.977,435.09z M279.977,435.09"/>
	<path d="M158.375,409.562c-2.723,0-5.25-1.75-6.105-4.483c-1.059-3.371,0.816-6.965,4.187-8.023
		c23.555-7.395,48.016-10.543,72.625-9.383c3.523,0.168,6.254,3.164,6.086,6.695c-0.168,3.539-3.148,6.237-6.699,6.09
		c-23.114-1.09-46.063,1.867-68.176,8.809C159.656,409.465,159.008,409.562,158.375,409.562L158.375,409.562z M158.375,409.562"/>
	<path d="M279.977,409.562c-0.633,0-1.282-0.097-1.918-0.296c-8.09-2.539-16.434-4.579-24.801-6.051
		c-3.485-0.617-5.809-3.938-5.188-7.418c0.606-3.477,3.942-5.805,7.41-5.192c8.915,1.575,17.797,3.743,26.415,6.45
		c3.371,1.059,5.246,4.652,4.187,8.023C285.227,407.812,282.699,409.562,279.977,409.562L279.977,409.562z M279.977,409.562"/>
	<path d="M158.375,383.887c-2.723,0-5.25-1.75-6.105-4.485c-1.059-3.371,0.816-6.965,4.187-8.023
		c36.379-11.422,75.199-12.692,112.231-3.676c3.437,0.84,5.542,4.301,4.707,7.734c-0.84,3.434-4.321,5.524-7.731,4.704
		c-34.777-8.477-71.215-7.274-105.371,3.453C159.656,383.793,159.008,383.887,158.375,383.887L158.375,383.887z M158.375,383.887"/>
	<path d="M158.375,358.289c-2.723,0-5.25-1.75-6.105-4.484c-1.059-3.371,0.816-6.965,4.187-8.024
		c12.875-4.047,26.199-6.851,39.617-8.34c3.531-0.425,6.684,2.149,7.071,5.653c0.386,3.515-2.145,6.679-5.657,7.066
		c-12.593,1.402-25.113,4.035-37.195,7.832C159.656,358.191,159.008,358.289,158.375,358.289L158.375,358.289z M158.375,358.289"/>
	<path d="M267.18,354.723c-0.5,0-1.012-0.059-1.516-0.184c-14.187-3.453-28.789-5.328-43.383-5.555
		c-3.539-0.054-6.355-2.964-6.301-6.5c0.059-3.531,2.821-6.507,6.5-6.3c15.551,0.25,31.094,2.238,46.208,5.918
		c3.437,0.839,5.542,4.3,4.707,7.734C272.68,352.762,270.062,354.723,267.18,354.723L267.18,354.723z M267.18,354.723"/>
	<path d="M158.375,332.762c-2.723,0-5.25-1.75-6.105-4.485c-1.059-3.371,0.816-6.965,4.187-8.023
		c27.891-8.758,56.754-11.57,85.824-8.336c3.512,0.387,6.043,3.551,5.657,7.066c-0.387,3.508-3.512,6.11-7.071,5.653
		c-27.273-3.028-54.394-0.399-80.574,7.828C159.656,332.668,159.008,332.762,158.375,332.762L158.375,332.762z M158.375,332.762"/>
	<path d="M158.375,307.09c-2.723,0-5.25-1.754-6.105-4.488c-1.059-3.375,0.816-6.965,4.191-8.024
		c4.402-1.379,8.84-2.613,13.195-3.672c3.406-0.844,6.895,1.27,7.731,4.703c0.84,3.438-1.274,6.899-4.707,7.735
		c-4.086,0.992-8.254,2.152-12.391,3.449C159.648,306.992,159.008,307.09,158.375,307.09L158.375,307.09z M158.375,307.09"/>
	<path d="M267.18,303.52c-0.5,0-1.012-0.059-1.516-0.18c-22.371-5.449-45.309-6.914-68.184-4.379
		c-3.511,0.43-6.679-2.141-7.066-5.652c-0.387-3.516,2.145-6.68,5.656-7.067c24.356-2.715,48.797-1.137,72.618,4.66
		c3.437,0.836,5.542,4.297,4.707,7.735C272.68,301.559,270.062,303.52,267.18,303.52L267.18,303.52z M267.18,303.52"/>
	<path fill="#FFF800" d="M267.176,371.355c0,2.555,2.847,4.079,4.976,2.665l14.223-9.485l14.227,9.485
		c2.125,1.414,4.972-0.11,4.972-2.665v-98.664c0-2.527-1.472-4.863-3.785-5.89c-9.965-4.43-20.207-7.985-30.609-10.735
		c-2.028-0.535-4.024,1.036-4.024,3.133L267.176,371.355z M267.176,371.355"/>
</g>
</svg>
