<?xml version="1.0" encoding="utf-8"?>
<!-- Generator: Adobe Illustrator 16.0.0, SVG Export Plug-In . SVG Version: 6.00 Build 0)  -->
<!DOCTYPE svg PUBLIC "-//W3C//DTD SVG 1.1//EN" "http://www.w3.org/Graphics/SVG/1.1/DTD/svg11.dtd">
<svg version="1.1" id="Layer_1" xmlns="http://www.w3.org/2000/svg" xmlns:xlink="http://www.w3.org/1999/xlink" x="0px" y="0px"
	 width="612px" height="792px" viewBox="0 0 612 792" enable-background="new 0 0 612 792" xml:space="preserve">
<g>
	<g>
		<defs>
			<rect id="SVGID_1_" x="124" y="198" width="362.88" height="397.92"/>
		</defs>
		<clipPath id="SVGID_2_">
			<use xlink:href="#SVGID_1_"  overflow="visible"/>
		</clipPath>
		<path clip-path="url(#SVGID_2_)" fill="#E6BE94" d="M458.398,370.958c-37.578-42.82-76.797-52.777-76.797-100
			c0-51.465-43.469-90.933-119.542-63.457C180.488,236.962,124,308.025,124,396.561c0,109.573,88.828,198.397,198.398,198.397
			c18.023,0,35.484-2.402,52.082-6.902l-0.008-0.022C458.398,563.759,527.199,449.361,458.398,370.958L458.398,370.958z
			 M374,350.251c-11.602,14.844-43.734,6.164-56.137-14.84c-10.93-18.511-6.93-44.984,11.992-56.656
			c10.969-6.765,25.434-0.109,28.184,12.481c2.242,10.246,6.836,22.937,16.191,34.55C379.934,332.865,379.598,343.087,374,350.251
			L374,350.251z M374,350.251"/>
	</g>
	<path fill="#2800CE" d="M277.426,307.048c0,21.16-17.156,38.313-38.313,38.313c-21.16,0-38.312-17.153-38.312-38.313
		s17.152-38.312,38.312-38.312C260.27,268.736,277.426,285.888,277.426,307.048L277.426,307.048z M277.426,307.048"/>
	<path fill="#8888FF" d="M261.996,297.47c0,7.406-6.004,13.41-13.41,13.41c-7.406,0-13.41-6.004-13.41-13.41
		c0-7.406,6.004-13.41,13.41-13.41C255.992,284.06,261.996,290.064,261.996,297.47L261.996,297.47z M261.996,297.47"/>
	<path fill="#FFCD00" d="M239.023,403.048c0,21.16-17.152,38.313-38.312,38.313c-21.156,0-38.313-17.153-38.313-38.313
		s17.157-38.312,38.313-38.312C221.871,364.736,239.023,381.888,239.023,403.048L239.023,403.048z M239.023,403.048"/>
	<path fill="#FFE671" d="M223.594,393.47c0,7.406-6.004,13.41-13.406,13.41c-7.407,0-13.411-6.004-13.411-13.41
		c0-7.406,6.004-13.41,13.411-13.41C217.59,380.06,223.594,386.064,223.594,393.47L223.594,393.47z M223.594,393.47"/>
	<path fill="#FF0000" d="M283.648,492.474c0,21.156-17.152,38.313-38.312,38.313s-38.313-17.156-38.313-38.313
		c0-21.16,17.153-38.313,38.313-38.313S283.648,471.313,283.648,492.474L283.648,492.474z M283.648,492.474"/>
	<path fill="#FF8888" d="M268.219,482.896c0,7.406-6.004,13.406-13.41,13.406c-7.407,0-13.411-6-13.411-13.406
		c0-7.405,6.004-13.409,13.411-13.409C262.215,469.486,268.219,475.49,268.219,482.896L268.219,482.896z M268.219,482.896"/>
	<path fill="#008700" d="M379.824,524.65c0,21.155-17.152,38.308-38.313,38.308s-38.313-17.152-38.313-38.308
		c0-21.16,17.152-38.313,38.313-38.313S379.824,503.49,379.824,524.65L379.824,524.65z M379.824,524.65"/>
	<path fill="#80FF80" d="M364.395,515.068c0,7.405-6.004,13.409-13.41,13.409s-13.41-6.004-13.41-13.409
		c0-7.403,6.004-13.407,13.41-13.407S364.395,507.665,364.395,515.068L364.395,515.068z M364.395,515.068"/>
	<path fill="#83008E" d="M450.223,454.072c0,21.159-17.152,38.312-38.313,38.312c-21.156,0-38.309-17.152-38.309-38.312
		c0-21.157,17.152-38.313,38.309-38.313C433.07,415.759,450.223,432.915,450.223,454.072L450.223,454.072z M450.223,454.072"/>
	<path fill="#F64DFF" d="M434.793,444.493c0,7.407-6.004,13.411-13.406,13.411c-7.406,0-13.41-6.004-13.41-13.411
		c0-7.406,6.004-13.41,13.41-13.41C428.789,431.083,434.793,437.087,434.793,444.493L434.793,444.493z M434.793,444.493"/>
</g>
</svg>
