<?xml version="1.0" encoding="utf-8"?>
<!-- Generator: Adobe Illustrator 16.0.0, SVG Export Plug-In . SVG Version: 6.00 Build 0)  -->
<!DOCTYPE svg PUBLIC "-//W3C//DTD SVG 1.1//EN" "http://www.w3.org/Graphics/SVG/1.1/DTD/svg11.dtd">
<svg version="1.1" id="Layer_1" xmlns="http://www.w3.org/2000/svg" xmlns:xlink="http://www.w3.org/1999/xlink" x="0px" y="0px"
	 width="612px" height="792px" viewBox="0 0 612 792" enable-background="new 0 0 612 792" xml:space="preserve">
<g>
	<path d="M324.832,491.801h-64.066c-3.532,0-6.368,2.863-6.368,6.398c0,39.199,38.403,83.199,38.403,83.199s38.398-44,38.398-83.199
		C331.199,494.664,328.367,491.801,324.832,491.801L324.832,491.801z M324.832,491.801"/>
	<path d="M260.801,415h64c3.535,0,6.398-2.867,6.398-6.398v-172.8c0-3.535-2.863-6.403-6.398-6.403h-64
		c-3.535,0-6.403,2.868-6.403,6.403v172.8C254.398,412.133,257.266,415,260.801,415L260.801,415z M260.801,415"/>
	<path fill="#FF0000" d="M318.398,229.398v-25.597c0-7.071-5.73-12.801-12.796-12.801H280c-7.07,0-12.801,5.73-12.801,12.801v25.597
		H318.398z M318.398,229.398"/>
	<path fill="#FF0000" d="M318.398,466.199c7.07,0,12.801,5.73,12.801,12.801s-5.73,12.801-12.801,12.801h-51.199
		c-7.07,0-12.801-5.73-12.801-12.801s5.731-12.801,12.801-12.801H318.398z M318.398,466.199"/>
	<path fill="#F77777" d="M318.398,466.199h-25.773v25.602h25.773c7.07,0,12.801-5.73,12.801-12.801S325.469,466.199,318.398,466.199
		L318.398,466.199z M318.398,466.199"/>
	<path fill="#FF0000" d="M318.398,440.602c7.07,0,12.801,5.73,12.801,12.797c0,7.07-5.73,12.801-12.801,12.801h-51.199
		c-7.07,0-12.801-5.73-12.801-12.801c0-7.066,5.731-12.797,12.801-12.797H318.398z M318.398,440.602"/>
	<path fill="#F77777" d="M318.398,440.602h-25.773v25.598h25.773c7.07,0,12.801-5.73,12.801-12.801
		C331.199,446.332,325.469,440.602,318.398,440.602L318.398,440.602z M318.398,440.602"/>
	<path fill="#FF0000" d="M318.398,415c7.07,0,12.801,5.73,12.801,12.801s-5.73,12.801-12.801,12.801h-51.199
		c-7.07,0-12.801-5.73-12.801-12.801S260.129,415,267.199,415H318.398z M318.398,415"/>
	<path fill="#F77777" d="M318.398,415h-25.773v25.602h25.773c7.07,0,12.801-5.734,12.801-12.801
		C331.199,420.73,325.469,415,318.398,415L318.398,415z M318.398,415"/>
	<path d="M292.625,491.801h-31.859c-3.532,0-6.368,2.863-6.368,6.398c0,38.203,36.372,80.848,38.227,82.996V491.801z
		 M292.625,491.801"/>
	<path d="M292.625,229.398h-31.824c-3.535,0-6.403,2.868-6.403,6.403v172.8c0,3.531,2.868,6.398,6.403,6.398h31.824V229.398z
		 M292.625,229.398"/>
	<path fill="#5C546A" d="M356.801,389.398c-3.539,0-6.402-2.863-6.402-6.398V267.801c0-3.528-2.867-6.403-6.398-6.403h-89.602
		c-3.535,0-6.398-2.863-6.398-6.398c0-3.535,2.863-6.398,6.398-6.398H344c10.586,0,19.199,8.609,19.199,19.199V383
		C363.199,386.535,360.336,389.398,356.801,389.398L356.801,389.398z M356.801,389.398"/>
	<path fill="#FF0000" d="M305.602,191h-12.977v38.398h25.773v-25.597C318.398,196.73,312.668,191,305.602,191L305.602,191z
		 M305.602,191"/>
	<path fill="#5C546A" d="M286.398,594.199c0,3.535,2.864,6.402,6.403,6.402c3.535,0,6.398-2.867,6.398-6.402v-20.73h-12.801V594.199
		z M286.398,594.199"/>
</g>
</svg>
