<?xml version="1.0" encoding="utf-8"?>
<!-- Generator: Adobe Illustrator 16.0.0, SVG Export Plug-In . SVG Version: 6.00 Build 0)  -->
<!DOCTYPE svg PUBLIC "-//W3C//DTD SVG 1.1//EN" "http://www.w3.org/Graphics/SVG/1.1/DTD/svg11.dtd">
<svg version="1.1" id="Layer_1" xmlns="http://www.w3.org/2000/svg" xmlns:xlink="http://www.w3.org/1999/xlink" x="0px" y="0px"
	 width="612px" height="792px" viewBox="0 0 612 792" enable-background="new 0 0 612 792" xml:space="preserve">
<g>
	<path fill="#39B50B" d="M402.664,558.117c-14.266,0-30.34-3.012-47.766-9.074c-40.211-13.988-83.359-42.695-121.503-80.836
		c-38.145-38.145-66.852-81.293-80.84-121.508c-14.524-41.762-11.532-75.75,8.433-95.711c19.953-19.957,53.942-22.965,95.711-8.433
		c40.215,13.988,83.362,42.695,121.508,80.84c38.145,38.144,66.848,81.292,80.836,121.503c14.527,41.766,11.531,75.75-8.43,95.715
		C438.98,552.242,422.586,558.117,402.664,558.117L402.664,558.117z M208.926,246.242c-16.434,0-29.715,4.621-38.887,13.797
		c-16.309,16.297-18.219,45.586-5.394,82.453c13.367,38.426,40.992,79.855,77.8,116.664c36.805,36.805,78.235,64.43,116.661,77.801
		c36.875,12.816,66.152,10.906,82.456-5.395c16.306-16.301,18.22-45.586,5.396-82.457c-13.371-38.426-40.996-79.855-77.801-116.661
		c-36.809-36.808-78.238-64.433-116.664-77.8C236.367,249.039,221.695,246.242,208.926,246.242L208.926,246.242z M208.926,246.242"
		/>
	<path fill="#4A42E8" d="M208.938,558.117c-19.926,0-36.317-5.875-47.95-17.504c-19.961-19.965-22.957-53.949-8.429-95.715
		c13.984-40.211,42.691-83.363,80.836-121.503c38.144-38.145,81.292-66.852,121.503-80.84c41.77-14.532,75.758-11.524,95.715,8.433
		c19.961,19.961,22.957,53.949,8.43,95.711c-13.984,40.215-42.691,83.363-80.836,121.508
		c-38.146,38.145-81.293,66.848-121.508,80.836C239.273,555.105,223.199,558.117,208.938,558.117L208.938,558.117z M402.676,246.242
		c-12.777,0-27.445,2.797-43.57,8.403c-38.426,13.367-79.855,40.992-116.661,77.8c-36.808,36.805-64.433,78.235-77.8,116.661
		c-12.825,36.871-10.915,66.156,5.394,82.457c16.297,16.313,45.594,18.211,82.453,5.395c38.426-13.371,79.855-40.996,116.664-77.801
		c36.805-36.809,64.43-78.238,77.801-116.664c12.824-36.867,10.91-66.156-5.396-82.453
		C432.387,250.863,419.105,246.242,402.676,246.242L402.676,246.242z M402.676,246.242"/>
	<path d="M305.801,600.602c-57.418,0-102.403-89.957-102.403-204.8C203.398,280.957,248.383,191,305.801,191
		s102.398,89.957,102.398,204.801C408.199,510.645,363.219,600.602,305.801,600.602L305.801,600.602z M305.801,203.801
		c-48.571,0-89.602,87.926-89.602,192c0,104.074,41.031,192,89.602,192c48.566,0,89.598-87.926,89.598-192
		C395.398,291.727,354.367,203.801,305.801,203.801L305.801,203.801z M305.801,203.801"/>
	<path fill="#FFFF00" d="M350.426,395.887c0,24.695-20.02,44.71-44.715,44.71c-24.691,0-44.711-20.016-44.711-44.71
		c0-24.692,20.02-44.711,44.711-44.711C330.406,351.176,350.426,371.195,350.426,395.887L350.426,395.887z M350.426,395.887"/>
	<path fill="#FFFC8F" d="M332.418,384.711c0,8.641-7.008,15.648-15.648,15.648c-8.645,0-15.652-7.007-15.652-15.648
		c0-8.645,7.008-15.652,15.652-15.652C325.41,369.059,332.418,376.066,332.418,384.711L332.418,384.711z M332.418,384.711"/>
	<path fill="#9313AA" d="M305.801,498.199C190.957,498.199,101,453.219,101,395.801c0-57.418,89.957-102.403,204.801-102.403
		s204.801,44.985,204.801,102.403C510.602,453.219,420.645,498.199,305.801,498.199L305.801,498.199z M305.801,306.199
		c-104.074,0-192,41.031-192,89.602c0,48.566,87.926,89.597,192,89.597c104.074,0,192-41.031,192-89.597
		C497.801,347.23,409.875,306.199,305.801,306.199L305.801,306.199z M305.801,306.199"/>
</g>
</svg>
