<?xml version="1.0" encoding="utf-8"?>
<!-- Generator: Adobe Illustrator 16.0.0, SVG Export Plug-In . SVG Version: 6.00 Build 0)  -->
<!DOCTYPE svg PUBLIC "-//W3C//DTD SVG 1.1//EN" "http://www.w3.org/Graphics/SVG/1.1/DTD/svg11.dtd">
<svg version="1.1" id="Layer_1" xmlns="http://www.w3.org/2000/svg" xmlns:xlink="http://www.w3.org/1999/xlink" x="0px" y="0px"
	 width="612px" height="792px" viewBox="0 0 612 792" enable-background="new 0 0 612 792" xml:space="preserve">
<g>
	<path fill="#413ADB" d="M450.414,477.844l-60.039-11.219c-0.387-0.07-0.781-0.105-1.176-0.105H222.801
		c-0.395,0-0.789,0.035-1.176,0.105l-60.582,11.352C130.156,486.625,114,517.051,114,542.637v35.07
		c0,12.801,11.48,23.211,25.602,23.211h332.796c14.121,0,25.602-10.41,25.602-23.211v-35.07
		C498,517.051,481.844,486.625,450.414,477.844L450.414,477.844z M450.414,477.844"/>
	<path fill="#FC81F0" d="M337.02,600.918l-11.906-71.449c-0.512-3.086-3.184-5.351-6.313-5.351h-25.602
		c-3.129,0-5.801,2.265-6.313,5.351l-11.907,71.449H337.02z M337.02,600.918"/>
	<path fill="#413ADB" d="M293.199,524.118c-1.633,0-3.121,0.64-4.265,1.671l42.679,42.68l-3.621-21.723l-22.625-22.628H293.199z
		 M293.199,524.118"/>
	<path fill="#FFFFFF" d="M331.559,492.239c-0.008-3.532-2.871-6.388-6.402-6.388h-32c-2.426,0-4.636,1.367-5.722,3.535
		l-6.403,12.801c-0.449,0.895-0.679,1.884-0.676,2.888l0.047,12.647c0,10.582,8.61,19.195,19.2,19.195h12.8
		c10.586,0,19.199-8.613,19.199-19.211L331.559,492.239z M331.559,492.239"/>
	<path fill="#B4B6BC" d="M309.074,467.461l-57.554-32.129c-2.793-1.57-6.309-0.809-8.227,1.73l-24.156,32
		c-1.649,2.188-1.731,5.184-0.192,7.445l39.02,57.594c2.148,3.168,5.566,5.191,9.375,5.556c0.41,0.039,0.824,0.054,1.23,0.054
		c3.375,0,6.614-1.324,9.032-3.734c0.16-0.164,0.316-0.34,0.46-0.52l26.52-32.925c0.285-0.353,0.539-0.739,0.738-1.146l6.356-12.668
		c0.449-0.887,0.68-1.875,0.68-2.867v-12.801C312.355,470.73,311.102,468.594,309.074,467.461L309.074,467.461z M309.074,467.461"/>
	<path fill="#B4B6BC" d="M302.836,467.461l57.559-32.129c2.793-1.57,6.305-0.809,8.223,1.73l24.156,32
		c1.652,2.188,1.73,5.184,0.195,7.445l-39.02,57.594c-2.148,3.168-5.57,5.191-9.375,5.556c-0.414,0.039-0.824,0.054-1.23,0.054
		c-3.375,0-6.613-1.324-9.032-3.734c-0.163-0.164-0.319-0.34-0.464-0.52l-26.516-32.925c-0.289-0.353-0.539-0.739-0.738-1.146
		l-6.356-12.668c-0.449-0.887-0.679-1.875-0.679-2.867v-12.801C299.559,470.73,300.812,468.594,302.836,467.461L302.836,467.461z
		 M302.836,467.461"/>
	<path fill="#9B5B0D" d="M395.559,313.051l-12.625-12.801c0,0-43.375-11.734-134.579,0l-38.398,12.801v44.801
		c0,63.621,42.981,115.199,96,115.199c53.02,0,96-51.578,96-115.199v-44.801C400.301,314.903,395.559,313.051,395.559,313.051
		L395.559,313.051z M395.559,313.051"/>
	<path fill="#AEEFFF" d="M293.023,357.852c0,14.137-11.461,25.598-25.597,25.598c-14.141,0-25.602-11.461-25.602-25.598
		c0-14.141,11.461-25.602,25.602-25.602C281.562,332.25,293.023,343.711,293.023,357.852L293.023,357.852z M293.023,357.852"/>
	<path fill="#FFFFFF" d="M267.602,332.25c-7.028,0-13.383,2.836-18.008,7.418l36.188,36.188c4.582-4.625,7.418-10.981,7.418-18.004
		C293.199,343.711,281.738,332.25,267.602,332.25L267.602,332.25z M267.602,332.25"/>
	<path fill="#AEEFFF" d="M369.824,357.852c0,14.137-11.461,25.598-25.598,25.598c-14.141,0-25.602-11.461-25.602-25.598
		c0-14.141,11.461-25.602,25.602-25.602C358.363,332.25,369.824,343.711,369.824,357.852L369.824,357.852z M369.824,357.852"/>
	<path fill="#FFFFFF" d="M344.398,332.25c-7.023,0-13.379,2.836-18.004,7.418l36.188,36.188c4.582-4.625,7.418-10.981,7.418-18.004
		C370,343.711,358.539,332.25,344.398,332.25L344.398,332.25z M344.398,332.25"/>
	<path d="M318.934,364.25c-3.539,0-6.402-2.863-6.402-6.398c0-3.531-2.867-6.402-6.398-6.402c-3.531,0-6.403,2.871-6.403,6.402
		c0,3.535-2.859,6.398-6.398,6.398s-6.398-2.863-6.398-6.398c0-10.59,8.609-19.203,19.199-19.203
		c10.586,0,19.199,8.613,19.199,19.203C325.332,361.387,322.469,364.25,318.934,364.25L318.934,364.25z M318.934,364.25"/>
	<path d="M242.133,357.852h-32.176c-3.539,0-6.398-2.863-6.398-6.402c0-3.536,2.859-6.399,6.398-6.399h32.176
		c3.535,0,6.398,2.863,6.398,6.399C248.531,354.989,245.668,357.852,242.133,357.852L242.133,357.852z M242.133,357.852"/>
	<path d="M401.957,357.852h-31.824c-3.539,0-6.402-2.863-6.402-6.402c0-3.536,2.863-6.399,6.402-6.399h31.824
		c3.539,0,6.398,2.863,6.398,6.399C408.355,354.989,405.496,357.852,401.957,357.852L401.957,357.852z M401.957,357.852"/>
	<path fill="#231F20" d="M267.73,389.852c-17.64,0-32-14.359-32-32c0-17.645,14.36-32,32-32c17.645,0,32,14.355,32,32
		C299.73,375.493,285.375,389.852,267.73,389.852L267.73,389.852z M267.73,338.649c-10.585,0-19.199,8.613-19.199,19.203
		c0,10.586,8.614,19.199,19.199,19.199c10.59,0,19.204-8.613,19.204-19.199C286.934,347.262,278.32,338.649,267.73,338.649
		L267.73,338.649z M267.73,338.649"/>
	<path fill="#231F20" d="M344.531,389.852c-17.645,0-32-14.359-32-32c0-17.645,14.355-32,32-32s32,14.355,32,32
		C376.531,375.493,362.176,389.852,344.531,389.852L344.531,389.852z M344.531,338.649c-10.586,0-19.199,8.613-19.199,19.203
		c0,10.586,8.613,19.199,19.199,19.199c10.59,0,19.199-8.613,19.199-19.199C363.73,347.262,355.121,338.649,344.531,338.649
		L344.531,338.649z M344.531,338.649"/>
	<path d="M278.711,417.523c-3.469,0-6.875-1.12-9.68-4.566c-2.226-2.746-1.813-6.777,0.93-9.007c2.75-2.224,6.777-1.813,9.008,0.933
		c0.664,0.098,4.101-1.094,6.332-1.859c6.691-2.28,15.863-5.409,24.41,0.684c2.883,2.051,3.551,6.043,1.5,8.926
		c-2.047,2.867-6.043,3.543-8.922,1.5c-2.984-2.133-6.851-1.039-12.863,1.012C286.238,416.23,282.445,417.523,278.711,417.523
		L278.711,417.523z M278.711,417.523"/>
	<path d="M333.289,417.523c-3.728,0-7.527-1.293-10.715-2.379c-6.016-2.043-9.887-3.145-12.863-1.012
		c-2.875,2.055-6.875,1.375-8.922-1.5c-2.051-2.883-1.383-6.879,1.5-8.926c8.535-6.082,17.719-2.964,24.41-0.684
		c2.234,0.762,5.594,1.97,6.664,1.684c2.227-2.738,6.086-3.07,8.836-0.843c2.746,2.222,2.996,6.343,0.77,9.086
		C340.168,416.403,336.758,417.523,333.289,417.523L333.289,417.523z M333.289,417.523"/>
	<path d="M331.551,434.118c-0.215-3.375-3.008-6-6.387-6H286.84c-3.383,0-6.176,2.625-6.387,6
		c-0.121,1.914-2.687,47.203,20.652,74.925c1.215,1.446,3.008,2.278,4.895,2.278c1.887,0,3.684-0.832,4.895-2.278
		C334.238,481.321,331.668,436.032,331.551,434.118L331.551,434.118z M331.551,434.118"/>
	<g>
		<defs>
			<rect id="SVGID_1_" x="114" y="191" width="384" height="410.88"/>
		</defs>
		<clipPath id="SVGID_2_">
			<use xlink:href="#SVGID_1_"  overflow="visible"/>
		</clipPath>
		<path clip-path="url(#SVGID_2_)" d="M434,357.719c-3.539,0-6.398-2.863-6.398-6.398v-76.309c0-3.535,2.859-6.398,6.398-6.398
			s6.398,2.863,6.398,6.398v76.309C440.398,354.856,437.539,357.719,434,357.719L434,357.719z M434,357.719"/>
		<path clip-path="url(#SVGID_2_)" d="M454.801,239.68l-130.18-44.629c-14.094-4.84-29.641-4.84-43.746,0l-130.18,44.629
			c-6.808,2.34-11.199,8.488-11.199,15.684c0,7.195,4.391,13.343,11.199,15.679l63.657,21.828c0.668,0.223,1.367,0.344,2.074,0.344
			h0.082l179.176-2.238c0.676-0.008,1.348-0.125,1.992-0.344l57.125-19.59c6.805-2.336,11.199-8.484,11.199-15.679
			C466,248.168,461.605,242.02,454.801,239.68L454.801,239.68z M454.801,239.68"/>
	</g>
	<path d="M284.051,304.379c6.785-0.492,14.058-0.797,21.949-0.797c7.891,0,15.164,0.301,21.953,0.797
		c26.059,1.504,57.027,5.813,74.047,15.071v-51.2c0-21.988-49.762-32-96-32s-96,10.012-96,32v51.2
		C227.023,310.192,257.988,305.883,284.051,304.379L284.051,304.379z M284.051,304.379"/>
	<path fill="#303030" d="M306,271.711c-27.773,0-73.781,3.657-96,15.739v16.261c0-5.574,33.645-19.199,96-19.199
		c62.355,0,96,13.625,96,19.199V287.45C379.785,275.368,333.773,271.711,306,271.711L306,271.711z M306,271.711"/>
	<path d="M306,236.25c-0.016,0-0.031,0-0.043,0v67.332c0.016,0,0.027,0,0.043,0c7.891,0,15.164,0.301,21.953,0.797
		c26.059,1.504,57.023,5.813,74.047,15.071v-51.2C402,246.262,352.238,236.25,306,236.25L306,236.25z M306,236.25"/>
	<path fill="#303030" d="M305.957,271.715v12.797c0.016,0,0.027,0,0.043,0c62.355,0,96,13.625,96,19.199V287.45
		c-22.215-12.082-68.227-15.739-96-15.739C305.988,271.711,305.969,271.715,305.957,271.715L305.957,271.715z M305.957,271.715"/>
	<path fill="#FFE671" d="M440.355,396.25h-12.797c-3.535,0-6.402-2.867-6.402-6.398V364.25c0-7.07,5.73-12.8,12.801-12.8
		s12.801,5.73,12.801,12.8v25.602C446.758,393.383,443.891,396.25,440.355,396.25L440.355,396.25z M440.355,396.25"/>
	<path fill="#FFCD00" d="M421.156,364.25v25.602c0,3.531,2.867,6.398,6.402,6.398h6.398v-44.8
		C426.887,351.45,421.156,357.18,421.156,364.25L421.156,364.25z M421.156,364.25"/>
	<path fill="#B4B6BC" d="M178,558.129c0-13.582-5.395-26.601-14.996-36.207l-28.418-28.418C121.027,506.946,114,525.816,114,542.637
		v35.07c0,12.801,11.48,23.211,25.602,23.211h38.402v-42.789H178z M178,558.129"/>
	<path fill="#B4B6BC" d="M477.359,493.563L449,521.926c-9.602,9.603-14.996,22.625-14.996,36.203v42.789h38.398
		c14.117,0,25.598-10.41,25.598-23.211v-35.07C498,525.86,491.008,507.035,477.359,493.563L477.359,493.563z M477.359,493.563"/>
	<path fill="#413ADB" d="M284.578,543.328l-2.586,15.516l42.074,42.074h12.953l-1.027-6.172L284.578,543.328z M284.578,543.328"/>
	<path fill="#413ADB" d="M276.277,593.129l7.793,7.789h18.098l-23.305-23.304L276.277,593.129z M276.277,593.129"/>
</g>
</svg>
