<?xml version="1.0" encoding="utf-8"?>
<!-- Generator: Adobe Illustrator 16.0.0, SVG Export Plug-In . SVG Version: 6.00 Build 0)  -->
<!DOCTYPE svg PUBLIC "-//W3C//DTD SVG 1.1//EN" "http://www.w3.org/Graphics/SVG/1.1/DTD/svg11.dtd">
<svg version="1.1" id="Layer_1" xmlns="http://www.w3.org/2000/svg" xmlns:xlink="http://www.w3.org/1999/xlink" x="0px" y="0px"
	 width="612px" height="792px" viewBox="0 0 612 792" enable-background="new 0 0 612 792" xml:space="preserve">
<g>
	<path fill="#F9F20B" d="M504.199,390c0.199,0-8.613-12.801-19.199-12.801h-57.602c-0.16,0-0.293,0.082-0.453,0.094H421
		l6.574-32.094v-12.801c0-3.531-2.863-6.398-6.398-6.398H120.375c-10.605,0-19.199,8.598-19.199,19.199V422
		c0,10.604,8.594,19.199,19.199,19.199H357c0,3.534,2.867,6.402,6.398,6.402h89.426l0.016-6.402h25.934l19.027-12.802v12.767
		c0.059,0.004,0.109,0.035,0.172,0.035c3.539,0,6.402-2.863,6.402-6.398L504.199,390z M504.199,390"/>
	<path fill="#FF9100" d="M216.375,409.199c-17.672,0-32,14.327-32,32h64C248.375,423.526,234.047,409.199,216.375,409.199
		L216.375,409.199z M216.375,409.199"/>
	<path fill="#5D647F" d="M190.602,351.602v19.199c0,3.535,2.863,6.398,6.398,6.398h19.199c3.535,0,6.403-2.863,6.403-6.398v-19.199
		c0-3.536-2.868-6.403-6.403-6.403H197C193.465,345.199,190.602,348.066,190.602,351.602L190.602,351.602z M190.602,351.602"/>
	<path fill="#5D647F" d="M229,351.602v19.199c0,3.535,2.867,6.398,6.398,6.398h19.204c3.531,0,6.398-2.863,6.398-6.398v-19.199
		c0-3.536-2.867-6.403-6.398-6.403h-19.204C231.867,345.199,229,348.066,229,351.602L229,351.602z M229,351.602"/>
	<path fill="#5D647F" d="M152.199,351.602v19.199c0,3.535,2.867,6.398,6.403,6.398h19.199c3.535,0,6.398-2.863,6.398-6.398v-19.199
		c0-3.536-2.863-6.403-6.398-6.403h-19.199C155.066,345.199,152.199,348.066,152.199,351.602L152.199,351.602z M152.199,351.602"/>
	<path fill="#5D647F" d="M113.801,351.602v19.199c0,3.535,2.863,6.398,6.398,6.398h19.199c3.536,0,6.403-2.863,6.403-6.398v-19.199
		c0-3.536-2.867-6.403-6.403-6.403h-19.199C116.664,345.199,113.801,348.066,113.801,351.602L113.801,351.602z M113.801,351.602"/>
	<path fill="#5D647F" d="M267.398,351.602v19.199c0,3.535,2.868,6.398,6.403,6.398H293c3.535,0,6.398-2.863,6.398-6.398v-19.199
		c0-3.536-2.863-6.403-6.398-6.403h-19.199C270.266,345.199,267.398,348.066,267.398,351.602L267.398,351.602z M267.398,351.602"/>
	<path fill="#5D647F" d="M427.574,345.199h-76.973c-3.535,0-6.402,2.867-6.402,6.403v19.199c0,3.535,2.867,6.398,6.402,6.398h83.375
		C433.977,376.867,427.574,345.199,427.574,345.199L427.574,345.199z M427.574,345.199"/>
	<path fill="#5D647F" d="M305.801,351.602v19.199c0,3.535,2.863,6.398,6.398,6.398h19.199c3.535,0,6.402-2.863,6.402-6.398v-19.199
		c0-3.536-2.867-6.403-6.402-6.403h-19.199C308.664,345.199,305.801,348.066,305.801,351.602L305.801,351.602z M305.801,351.602"/>
	<path fill="#FF9100" d="M504.227,400.187h-6.426c-3.539,0-6.402,2.868-6.402,6.403c0,3.531,2.863,6.397,6.402,6.397h6.48
		L504.227,400.187z M504.227,400.187"/>
	<path d="M485.383,377.199h-51.582c0,7.071,5.73,12.801,12.801,12.801h57.598C502.434,381.223,494.672,377.199,485.383,377.199
		L485.383,377.199z M485.383,377.199"/>
	<path d="M101.176,390h277.16c4.172,0,7.551-2.867,7.551-6.398c0-3.536-3.379-6.403-7.551-6.403h-277.16V390z M101.176,390"/>
	<rect x="369.801" y="345.199" fill="#5C546A" width="51.199" height="102.402"/>
	<path d="M120.199,434.801c-7.07,0-12.801-5.731-12.801-12.801H101c0,10.604,8.598,19.199,19.199,19.199H357
		c0-3.668-3.082-6.591-6.746-6.391L120.199,434.801z M120.199,434.801"/>
	<path d="M241.977,441.199c0,14.141-11.461,25.602-25.602,25.602c-14.137,0-25.602-11.461-25.602-25.602
		c0-14.138,11.465-25.598,25.602-25.598C230.516,415.602,241.977,427.062,241.977,441.199L241.977,441.199z M241.977,441.199"/>
	<path fill="#868491" d="M229.176,441.199c0,7.07-5.731,12.801-12.801,12.801s-12.801-5.73-12.801-12.801
		s5.731-12.802,12.801-12.802S229.176,434.129,229.176,441.199L229.176,441.199z M229.176,441.199"/>
	<path fill="#FF9100" d="M490.336,433.422c-3.488-13.896-15.961-24.223-30.938-24.223c-17.672,0-32,14.327-32,32
		c0,2.195,0.227,4.332,0.645,6.402h24.781l0.016-6.402h25.934L490.336,433.422z M490.336,433.422"/>
	<path d="M504.375,422h-32.176c-3.535,0-6.398,2.867-6.398,6.397c0,3.536,2.863,6.403,6.398,6.403h12.977
		c-3.539,0-6.402,2.863-6.402,6.398c0,3.534,2.863,0,6.402,0h12.801c7.055,0,12.797-5.738,12.797-12.802
		C510.773,424.867,507.91,422,504.375,422L504.375,422z M504.375,422"/>
	<path d="M485,441.199c0,14.141-11.461,25.602-25.602,25.602c-14.137,0-25.598-11.461-25.598-25.602
		c0-14.138,11.461-25.598,25.598-25.598C473.539,415.602,485,427.062,485,441.199L485,441.199z M485,441.199"/>
	<path fill="#868491" d="M472.199,441.199c0,7.07-5.73,12.801-12.801,12.801c-7.066,0-12.797-5.73-12.797-12.801
		s5.73-12.802,12.797-12.802C466.469,428.397,472.199,434.129,472.199,441.199L472.199,441.199z M472.199,441.199"/>
	<path fill="#5D647F" d="M402.602,441.199h11.199c0.441,0,0.801-0.359,0.801-0.802v-88c0-0.441-0.359-0.796-0.801-0.796h-11.199
		c-0.441,0-0.801,0.355-0.801,0.796v88C401.801,440.844,402.16,441.199,402.602,441.199L402.602,441.199z M402.602,441.199"/>
	<path fill="#5D647F" d="M377,441.199h17.602c0.441,0,0.797-0.359,0.797-0.802v-88c0-0.441-0.355-0.796-0.797-0.796H377
		c-0.441,0-0.801,0.355-0.801,0.796v88C376.199,440.844,376.559,441.199,377,441.199L377,441.199z M377,441.199"/>
</g>
</svg>
