<?xml version="1.0" encoding="utf-8"?>
<!-- Generator: Adobe Illustrator 16.0.0, SVG Export Plug-In . SVG Version: 6.00 Build 0)  -->
<!DOCTYPE svg PUBLIC "-//W3C//DTD SVG 1.1//EN" "http://www.w3.org/Graphics/SVG/1.1/DTD/svg11.dtd">
<svg version="1.1" id="Layer_1" xmlns="http://www.w3.org/2000/svg" xmlns:xlink="http://www.w3.org/1999/xlink" x="0px" y="0px"
	 width="612px" height="792px" viewBox="0 0 612 792" enable-background="new 0 0 612 792" xml:space="preserve">
<g>
	<path fill="#E6BE94" d="M491.227,578.599H120.023V405.798h76.801l108.801-108.796l108.801,108.796h76.801V578.599z
		 M491.227,578.599"/>
	<rect x="267.227" y="501.798" fill="#912B07" width="76.797" height="76.801"/>
	<path fill="#4BB9EC" d="M342.426,476.201h-73.602c-0.883,0-1.597,0.715-1.597,1.597v24h76.796v-24
		C344.023,476.916,343.309,476.201,342.426,476.201L342.426,476.201z M342.426,476.201"/>
	<path fill="#FF0000" d="M364.695,245.798l10.43-15.648c1.305-1.961,1.43-4.488,0.316-6.57c-1.109-2.078-3.277-3.379-5.641-3.379
		h-64c-3.539,0-6.403,2.863-6.403,6.398v38.403c0,3.535,2.864,6.398,6.403,6.398h64c2.363,0,4.531-1.301,5.645-3.383
		s0.984-4.605-0.32-6.566L364.695,245.798z M364.695,245.798"/>
	<path fill="#39383A" d="M305.801,303.4c-3.539,0-6.403-2.863-6.403-6.398v-83.204c0-3.535,2.864-6.398,6.403-6.398
		c3.535,0,6.398,2.863,6.398,6.398v83.204C312.199,300.537,309.336,303.4,305.801,303.4L305.801,303.4z M305.801,303.4"/>
	<g>
		<defs>
			<rect id="SVGID_1_" x="101" y="207" width="409.92" height="378.96"/>
		</defs>
		<clipPath id="SVGID_2_">
			<use xlink:href="#SVGID_1_"  overflow="visible"/>
		</clipPath>
		<path clip-path="url(#SVGID_2_)" fill="#912B07" d="M331.711,326.552c0.988-2.394,3.328-3.953,5.914-3.953h121.602
			c2.188,0,4.223,1.121,5.398,2.965l44.801,70.398c1.258,1.978,1.332,4.469,0.211,6.521c-1.121,2.043-3.273,3.315-5.609,3.315h-96
			c-1.703,0-3.328-0.675-4.527-1.875l-70.398-70.398C331.27,331.693,330.719,328.943,331.711,326.552L331.711,326.552z
			 M331.711,326.552"/>
		<path clip-path="url(#SVGID_2_)" fill="#912B07" d="M279.711,326.552c-0.984-2.394-3.324-3.953-5.91-3.953H152.199
			c-2.187,0-4.222,1.121-5.398,2.965L102,395.962c-1.258,1.978-1.332,4.469-0.211,6.521c1.125,2.043,3.273,3.315,5.609,3.315h96
			c1.704,0,3.329-0.671,4.528-1.875l70.398-70.398C280.156,331.693,280.707,328.943,279.711,326.552L279.711,326.552z
			 M279.711,326.552"/>
	</g>
	<path fill="#E3001E" d="M414.512,412.111c-1.637,0-3.273-0.621-4.523-1.875L305.801,306.052L201.613,410.236
		c-2.5,2.5-6.551,2.5-9.051,0s-2.5-6.547,0-9.047l108.711-108.715c2.5-2.5,6.551-2.5,9.051,0l108.715,108.715
		c2.5,2.5,2.5,6.547,0,9.047C417.789,411.486,416.152,412.111,414.512,412.111L414.512,412.111z M414.512,412.111"/>
	<path fill="#FFEBB7" d="M344.199,405.798c0,21.211-17.191,38.403-38.398,38.403s-38.399-17.192-38.399-38.403
		c0-21.207,17.192-38.398,38.399-38.398S344.199,384.591,344.199,405.798L344.199,405.798z M344.199,405.798"/>
	<path fill="#5C546A" d="M305.801,380.201c-3.539,0-6.403,2.863-6.403,6.398V399.4h-12.796c-3.54,0-6.403,2.862-6.403,6.397
		c0,3.539,2.863,6.403,6.403,6.403h19.199c3.535,0,6.398-2.864,6.398-6.403v-19.199
		C312.199,383.064,309.336,380.201,305.801,380.201L305.801,380.201z M305.801,380.201"/>
	<path fill="#4BB9EC" d="M401.625,447.4c0-8.836-7.164-16-16-16s-16,7.164-16,16c0,1.098,0.113,2.164,0.324,3.198h-0.324v25.603h32
		v-25.603h-0.324C401.512,449.564,401.625,448.498,401.625,447.4L401.625,447.4z M401.625,447.4"/>
	<path fill="#7E5C62" d="M385.801,425.002c-12.352,0-22.402,10.046-22.402,22.398v28.801c0,3.535,2.863,6.397,6.402,6.397h32
		c3.535,0,6.398-2.862,6.398-6.397V447.4C408.199,435.048,398.152,425.002,385.801,425.002L385.801,425.002z M385.801,437.798
		c5.293,0,9.598,4.31,9.598,9.603v3.198h-19.199V447.4C376.199,442.107,380.508,437.798,385.801,437.798L385.801,437.798z
		 M376.199,469.798V463.4h19.199v6.397H376.199z M376.199,469.798"/>
	<rect x="209.801" y="508.201" fill="#4BB9EC" width="32" height="38.397"/>
	<path fill="#7E5C62" d="M241.801,501.798h-32c-3.539,0-6.403,2.864-6.403,6.403v38.397c0,3.539,2.864,6.403,6.403,6.403h32
		c3.535,0,6.398-2.864,6.398-6.403v-38.397C248.199,504.662,245.336,501.798,241.801,501.798L241.801,501.798z M235.398,514.599
		v6.403h-19.199v-6.403H235.398z M216.199,540.201v-6.403h19.199v6.403H216.199z M216.199,540.201"/>
	<rect x="152.027" y="508.201" fill="#4BB9EC" width="32" height="38.397"/>
	<path fill="#7E5C62" d="M184.023,501.798h-32c-3.535,0-6.398,2.864-6.398,6.403v38.397c0,3.539,2.863,6.403,6.398,6.403h32
		c3.539,0,6.403-2.864,6.403-6.403v-38.397C190.426,504.662,187.562,501.798,184.023,501.798L184.023,501.798z M177.625,514.599
		v6.403h-19.199v-6.403H177.625z M158.426,540.201v-6.403h19.199v6.403H158.426z M158.426,540.201"/>
	<rect x="427.398" y="508.201" fill="#4BB9EC" width="32" height="38.397"/>
	<path fill="#7E5C62" d="M459.398,501.798h-32c-3.535,0-6.398,2.864-6.398,6.403v38.397c0,3.539,2.863,6.403,6.398,6.403h32
		c3.539,0,6.402-2.864,6.402-6.403v-38.397C465.801,504.662,462.938,501.798,459.398,501.798L459.398,501.798z M453,514.599v6.403
		h-19.199v-6.403H453z M433.801,540.201v-6.403H453v6.403H433.801z M433.801,540.201"/>
	<rect x="369.625" y="508.201" fill="#4BB9EC" width="32" height="38.397"/>
	<path fill="#7E5C62" d="M401.625,501.798h-32c-3.539,0-6.398,2.864-6.398,6.403v38.397c0,3.539,2.859,6.403,6.398,6.403h32
		c3.539,0,6.398-2.864,6.398-6.403v-38.397C408.023,504.662,405.164,501.798,401.625,501.798L401.625,501.798z M395.227,514.599
		v6.403h-19.203v-6.403H395.227z M376.023,540.201v-6.403h19.203v6.403H376.023z M376.023,540.201"/>
	<path fill="#4BB9EC" d="M459.051,447.4c0-8.836-7.164-16-16-16s-16,7.164-16,16c0,1.098,0.113,2.164,0.32,3.198h-0.32v25.603h32
		v-25.603h-0.324C458.938,449.564,459.051,448.498,459.051,447.4L459.051,447.4z M459.051,447.4"/>
	<path fill="#7E5C62" d="M443.227,425.002c-12.352,0-22.402,10.046-22.402,22.398v28.801c0,3.535,2.863,6.397,6.402,6.397h32
		c3.535,0,6.398-2.862,6.398-6.397V447.4C465.625,435.048,455.574,425.002,443.227,425.002L443.227,425.002z M443.227,437.798
		c5.293,0,9.598,4.31,9.598,9.603v3.198h-19.199V447.4C433.625,442.107,437.93,437.798,443.227,437.798L443.227,437.798z
		 M433.625,469.798V463.4h19.199v6.397H433.625z M433.625,469.798"/>
	<path fill="#4BB9EC" d="M183.852,447.4c0-8.836-7.164-16-16-16s-16,7.164-16,16c0,1.098,0.113,2.164,0.32,3.198h-0.32v25.603h32
		v-25.603h-0.325C183.738,449.564,183.852,448.498,183.852,447.4L183.852,447.4z M183.852,447.4"/>
	<path fill="#7E5C62" d="M168.023,425.002c-12.347,0-22.398,10.046-22.398,22.398v28.801c0,3.535,2.863,6.397,6.398,6.397h32
		c3.539,0,6.403-2.862,6.403-6.397V447.4C190.426,435.048,180.375,425.002,168.023,425.002L168.023,425.002z M168.023,437.798
		c5.297,0,9.602,4.31,9.602,9.603v3.198h-19.199V447.4C158.426,442.107,162.73,437.798,168.023,437.798L168.023,437.798z
		 M158.426,469.798V463.4h19.199v6.397H158.426z M158.426,469.798"/>
	<path fill="#4BB9EC" d="M241.273,447.4c0-8.836-7.16-16-16-16c-8.835,0-16,7.164-16,16c0,1.098,0.114,2.164,0.325,3.198h-0.325
		v25.603h32v-25.603h-0.32C241.164,449.564,241.273,448.498,241.273,447.4L241.273,447.4z M241.273,447.4"/>
	<path fill="#7E5C62" d="M225.449,425.002c-12.347,0-22.398,10.046-22.398,22.398v28.801c0,3.535,2.863,6.397,6.398,6.397h32
		c3.539,0,6.403-2.862,6.403-6.397V447.4C247.852,435.048,237.801,425.002,225.449,425.002L225.449,425.002z M225.449,437.798
		c5.293,0,9.602,4.31,9.602,9.603v3.198h-19.199V447.4C215.852,442.107,220.156,437.798,225.449,437.798L225.449,437.798z
		 M215.852,469.798V463.4h19.199v6.397H215.852z M215.852,469.798"/>
	<path fill="#7E5C62" d="M305.801,450.599c-24.703,0-44.801-20.097-44.801-44.801c0-24.703,20.098-44.796,44.801-44.796
		c24.703,0,44.801,20.093,44.801,44.796C350.602,430.502,330.504,450.599,305.801,450.599L305.801,450.599z M305.801,373.798
		c-17.645,0-32,14.356-32,32c0,17.649,14.355,32,32,32s32-14.351,32-32C337.801,388.154,323.445,373.798,305.801,373.798
		L305.801,373.798z M305.801,373.798"/>
	<path fill="#7E5C62" d="M331.398,469.798h-51.199c-10.586,0-19.199,8.614-19.199,19.204v89.597c0,3.539,2.863,6.403,6.398,6.403
		c3.54,0,6.403-2.864,6.403-6.403v-70.397h25.426v70.397h12.796v-70.397h25.777v70.397c0,3.539,2.863,6.403,6.398,6.403
		c3.539,0,6.402-2.864,6.402-6.403v-89.597C350.602,478.412,341.988,469.798,331.398,469.798L331.398,469.798z M337.801,495.4h-64
		v-6.398c0-3.532,2.867-6.403,6.398-6.403h51.199c3.531,0,6.402,2.871,6.402,6.403V495.4z M337.801,495.4"/>
	<path fill="#5C546A" d="M504.199,585.002H107.398c-3.535,0-6.398-2.864-6.398-6.403c0-3.534,2.863-6.397,6.398-6.397h396.801
		c3.539,0,6.402,2.863,6.402,6.397C510.602,582.138,507.738,585.002,504.199,585.002L504.199,585.002z M504.199,585.002"/>
</g>
</svg>
