<?xml version="1.0" encoding="utf-8"?>
<!-- Generator: Adobe Illustrator 16.0.0, SVG Export Plug-In . SVG Version: 6.00 Build 0)  -->
<!DOCTYPE svg PUBLIC "-//W3C//DTD SVG 1.1//EN" "http://www.w3.org/Graphics/SVG/1.1/DTD/svg11.dtd">
<svg version="1.1" id="Layer_1" xmlns="http://www.w3.org/2000/svg" xmlns:xlink="http://www.w3.org/1999/xlink" x="0px" y="0px"
	 width="612px" height="792px" viewBox="0 0 612 792" enable-background="new 0 0 612 792" xml:space="preserve">
<g>
	<g>
		<defs>
			<rect id="SVGID_1_" x="126" y="191" width="358.8" height="410.88"/>
		</defs>
		<clipPath id="SVGID_2_">
			<use xlink:href="#SVGID_1_"  overflow="visible"/>
		</clipPath>
		<path clip-path="url(#SVGID_2_)" fill="#868491" d="M436.391,563.512c-0.754-11.383-4.832-22.187-11.781-31.246L280.91,345.188
			c13.207-20.309,12.375-46.945-2.543-66.395l-49.5-64.957c-9.656-12.586-24.277-20.691-40.109-22.242
			c-16.09-1.551-31.567,3.446-43.692,14.106c-22.648,19.925-25.5,54.929-6.507,79.683l48.402,63.524
			c14.937,19.476,40.469,27.168,63.484,19.66l176.52,229.851c1.238,1.614,3.133,2.5,5.074,2.5c0.758,0,1.52-0.132,2.258-0.414
			c2.645-0.992,4.316-3.597,4.133-6.41L436.391,563.512z M164.148,246.395c0.668-5.094,3.274-9.613,7.329-12.734
			c3.382-2.586,7.437-3.953,11.64-3.953c0.848,0,1.699,0.054,2.555,0.167c5.094,0.668,9.613,3.274,12.719,7.317l49.492,64.957
			c6.445,8.402,4.855,20.48-3.543,26.934c-8.406,6.429-20.488,4.843-26.906-3.532l-49.5-64.965
			C164.82,256.524,163.473,251.481,164.148,246.395L164.148,246.395z M164.148,246.395"/>
		<path clip-path="url(#SVGID_2_)" fill="#868491" d="M465.414,205.7c-12.117-10.66-27.609-15.657-43.684-14.106
			c-15.832,1.551-30.457,9.656-40.133,22.254l-49.461,64.934c-14.938,19.461-15.77,46.097-2.563,66.41l-24.375,31.726
			c-17.625,0.024-31.957,14.368-31.957,32c0,2.75,0.367,5.489,1.098,8.18L185.871,532.27c-6.949,9.056-11.023,19.859-11.781,31.242
			l-2.035,30.582c-0.188,2.813,1.484,5.418,4.129,6.414c0.738,0.282,1.5,0.41,2.257,0.41c1.942,0,3.836-0.89,5.075-2.5
			l120.961-157.515c0.257,0.012,0.507,0.015,0.765,0.015c17.641,0,32-14.355,32-32c0-3.063-0.434-6.074-1.297-8.984l24.09-31.363
			c23.043,7.512,48.555-0.188,63.504-19.676l48.371-63.5C490.914,260.625,488.066,225.618,465.414,205.7L465.414,205.7z
			 M442.547,260.586c-0.008,0.008-0.012,0.008-0.02,0.012l-49.461,64.934c-6.449,8.386-18.512,9.988-26.926,3.551
			c-4.055-3.122-6.66-7.637-7.336-12.731c-0.668-5.094,0.68-10.141,3.813-14.215l49.461-64.929c3.121-4.059,7.637-6.665,12.73-7.333
			c0.859-0.113,1.707-0.167,2.559-0.167c4.199,0,8.254,1.367,11.637,3.953c4.055,3.121,6.664,7.64,7.332,12.734
			C447.008,251.481,445.66,256.524,442.547,260.586L442.547,260.586z M442.547,260.586"/>
	</g>
	<path fill="#5C546A" d="M305.066,396.118c-7.054,0-12.8,5.746-12.8,12.8c0,7.055,5.746,12.801,12.8,12.801
		c7.055,0,12.801-5.746,12.801-12.801C317.867,401.864,312.121,396.118,305.066,396.118L305.066,396.118z M305.066,396.118"/>
</g>
</svg>
