<?xml version="1.0" encoding="utf-8"?>
<!-- Generator: Adobe Illustrator 16.0.0, SVG Export Plug-In . SVG Version: 6.00 Build 0)  -->
<!DOCTYPE svg PUBLIC "-//W3C//DTD SVG 1.1//EN" "http://www.w3.org/Graphics/SVG/1.1/DTD/svg11.dtd">
<svg version="1.1" id="Layer_1" xmlns="http://www.w3.org/2000/svg" xmlns:xlink="http://www.w3.org/1999/xlink" x="0px" y="0px"
	 width="612px" height="792px" viewBox="0 0 612 792" enable-background="new 0 0 612 792" xml:space="preserve">
<g>
	<rect x="260.625" y="440.921" fill="#FCB47E" width="89.602" height="83.199"/>
	<path fill="#4296D9" d="M331.199,525.675c-15.388,9.785-25.597,11.246-25.597,11.246s-10.211-1.461-25.598-11.243
		c0,0-9.246-23.425-6.578-20.757c2.664,2.664,32.176,0,32.176,0l25.421,6.398L331.199,525.675z M331.199,525.675"/>
	<path fill="#996459" d="M382.227,472.921l66.609,11.218c26.82,7.513,42.363,33.836,42.363,58.496v41.473
		c0,9.285-8.594,16.813-19.199,16.813H139.199c-10.601,0-19.199-7.528-19.199-16.813v-41.473c0-24.66,15.543-50.983,42.363-58.496
		l66.262-11.218l76.977,32L382.227,472.921z M382.227,472.921"/>
	<path fill="#750000" d="M198.863,477.96c0.098,0.203,0.098,0.437,0.219,0.632c48.656,78.465,96.023,88.84,101.262,89.758
		l4.144,0.731c0.367,0.07,0.739,0.101,1.114,0.101s0.742-0.03,1.113-0.101l4.145-0.731c5.234-0.918,52.605-11.293,101.262-89.758
		c0.113-0.183,0.109-0.41,0.207-0.604l-30.102-5.07l-76.625,32l-76.977-32L198.863,477.96z M198.863,477.96"/>
	<path fill="#4200F7" d="M248,440.921l-24.156,32l39.011,57.586c2.254,3.324,6.981,3.777,9.825,0.933l32.922-26.519L248,440.921z
		 M248,440.921"/>
	<path fill="#4200F7" d="M363.199,440.921l24.16,32l-39.016,57.586c-2.254,3.324-6.98,3.777-9.82,0.933l-32.921-26.519
		L363.199,440.921z M363.199,440.921"/>
	<path fill="#FFDCAD" d="M395.352,330.936l-12.949-30.816c0,0-56-30.934-147.203-19.199h-0.172
		c-16.371,20.66-25.601,46.039-25.601,76.796c0,63.625,42.98,115.204,96,115.204c53.02,0,96-51.579,96-115.204
		c0-10.324-1.238-20.281-3.363-29.8C396.406,329.768,395.352,330.936,395.352,330.936L395.352,330.936z M395.352,330.936"/>
	<path fill="#AEEFFF" d="M292.625,357.717c0,14.141-11.461,25.602-25.602,25.602c-14.136,0-25.597-11.461-25.597-25.602
		c0-14.136,11.461-25.597,25.597-25.597C281.164,332.12,292.625,343.581,292.625,357.717L292.625,357.717z M292.625,357.717"/>
	<path fill="#FFFFFF" d="M267.023,332.12c-7.023,0-13.378,2.836-18.003,7.418l36.187,36.187c4.582-4.625,7.418-10.98,7.418-18.008
		C292.625,343.581,281.164,332.12,267.023,332.12L267.023,332.12z M267.023,332.12"/>
	<path fill="#AEEFFF" d="M369.426,357.717c0,14.141-11.461,25.602-25.602,25.602c-14.137,0-25.598-11.461-25.598-25.602
		c0-14.136,11.461-25.597,25.598-25.597C357.965,332.12,369.426,343.581,369.426,357.717L369.426,357.717z M369.426,357.717"/>
	<g>
		<defs>
			<rect id="SVGID_1_" x="120" y="191" width="372" height="410.88"/>
		</defs>
		<clipPath id="SVGID_2_">
			<use xlink:href="#SVGID_1_"  overflow="visible"/>
		</clipPath>
		<path clip-path="url(#SVGID_2_)" fill="#FFFFFF" d="M344,332.12c-7.023,0-13.379,2.836-18.004,7.418l36.184,36.187
			c4.582-4.625,7.422-10.98,7.422-18.008C369.602,343.581,358.141,332.12,344,332.12L344,332.12z M344,332.12"/>
		<path clip-path="url(#SVGID_2_)" d="M407.457,207.94c-1.152-2.625-3.883-4.152-6.762-3.758
			c-16.039,2.321-35.484-1.613-56.051-5.738c-34.5-6.926-70.157-14.086-98.032,5.801c-0.406-0.082-0.832-0.125-1.269-0.125
			c-28.582,0-48.543,23.687-48.543,57.601c0,27.618,12.242,80.438,12.765,82.676c0.657,2.805,3.114,4.828,5.996,4.938
			c0.083,0.004,0.161,0.004,0.239,0.004c2.785,0,5.265-1.813,6.105-4.489l18.168-58.078c76.43-8.832,127.117,13.074,137.336,18
			l12.039,28.649c1.039,2.461,3.5,4.16,6.184,3.914c2.679-0.121,5-1.895,5.816-4.453
			C420.633,272.768,413.605,221.913,407.457,207.94L407.457,207.94z M407.457,207.94"/>
	</g>
	<path d="M318.398,364.12c-3.535,0-6.398-2.863-6.398-6.403c0-3.531-2.867-6.398-6.398-6.398c-3.532,0-6.403,2.867-6.403,6.398
		c0,3.54-2.863,6.403-6.398,6.403c-3.539,0-6.403-2.863-6.403-6.403c0-10.585,8.614-19.199,19.204-19.199
		c10.585,0,19.199,8.614,19.199,19.199C324.801,361.257,321.938,364.12,318.398,364.12L318.398,364.12z M318.398,364.12"/>
	<path d="M241.602,357.717h-32.176c-3.539,0-6.403-2.859-6.403-6.398s2.864-6.398,6.403-6.398h32.176
		c3.535,0,6.398,2.859,6.398,6.398S245.137,357.717,241.602,357.717L241.602,357.717z M241.602,357.717"/>
	<path d="M401.426,357.717h-31.824c-3.54,0-6.402-2.859-6.402-6.398s2.862-6.398,6.402-6.398h31.824
		c3.535,0,6.398,2.859,6.398,6.398S404.961,357.717,401.426,357.717L401.426,357.717z M401.426,357.717"/>
	<path fill="#414142" d="M267.199,389.717c-17.644,0-32-14.355-32-32c0-17.64,14.356-32,32-32c17.645,0,32,14.36,32,32
		C299.199,375.362,284.844,389.717,267.199,389.717L267.199,389.717z M267.199,338.518c-10.586,0-19.199,8.614-19.199,19.199
		c0,10.59,8.613,19.204,19.199,19.204c10.59,0,19.199-8.614,19.199-19.204C286.398,347.132,277.789,338.518,267.199,338.518
		L267.199,338.518z M267.199,338.518"/>
	<path fill="#414142" d="M344,389.717c-17.645,0-32-14.355-32-32c0-17.64,14.355-32,32-32s32,14.36,32,32
		C376,375.362,361.645,389.717,344,389.717L344,389.717z M344,338.518c-10.586,0-19.199,8.614-19.199,19.199
		c0,10.59,8.613,19.204,19.199,19.204s19.199-8.614,19.199-19.204C363.199,347.132,354.586,338.518,344,338.518L344,338.518z
		 M344,338.518"/>
	<path fill="#4200F7" d="M184,600.921v-42.797c0-15.387-5.992-29.848-16.867-40.723l-23.649-23.648
		c-3.39,2.656-6.457,5.656-9.152,8.949l23.75,23.75c8.461,8.461,13.117,19.711,13.117,31.676v42.793H184z M184,600.921"/>
	<path fill="#4200F7" d="M467.715,493.753l-23.645,23.648c-10.883,10.875-16.871,25.336-16.871,40.723v42.793H440v-42.793
		c0-11.961,4.656-23.211,13.117-31.676l23.75-23.75C474.172,499.409,471.109,496.409,467.715,493.753L467.715,493.753z
		 M467.715,493.753"/>
</g>
</svg>
