<?xml version="1.0" encoding="utf-8"?>
<!-- Generator: Adobe Illustrator 16.0.0, SVG Export Plug-In . SVG Version: 6.00 Build 0)  -->
<!DOCTYPE svg PUBLIC "-//W3C//DTD SVG 1.1//EN" "http://www.w3.org/Graphics/SVG/1.1/DTD/svg11.dtd">
<svg version="1.1" id="Layer_1" xmlns="http://www.w3.org/2000/svg" xmlns:xlink="http://www.w3.org/1999/xlink" x="0px" y="0px"
	 width="612px" height="792px" viewBox="0 0 612 792" enable-background="new 0 0 612 792" xml:space="preserve">
<g>
	<g>
		<defs>
			<rect id="SVGID_1_" x="229" y="191" width="153.84" height="410.88"/>
		</defs>
		<clipPath id="SVGID_2_">
			<use xlink:href="#SVGID_1_"  overflow="visible"/>
		</clipPath>
		<path clip-path="url(#SVGID_2_)" fill="#996459" d="M372.418,486.078c-0.898-1.582-2.438-2.703-4.215-3.078
			c-1.758-0.391-3.633,0.019-5.102,1.09c-1.215,0.878-2.34,1.367-3.461,1.484c-3.945,0.496-7.207-2.711-8.82-4.629
			c-3.355-3.988-5.68-9.896-6.387-16.207c-0.707-6.31,0.254-12.582,2.648-17.216c1.113-2.147,3.496-5.766,7.309-6.422
			c0.234-0.008,0.473-0.026,0.68-0.051c2.258-0.3,4.375-2.229,5.25-4.332c0.457-1.093,0.902-2.187,1.488-3.25
			c5.23-9.418,7.992-20.125,7.992-30.949c0-30.101-20.473-55.769-49.793-62.422c-0.461-0.097-0.938-0.152-1.414-0.152h-25.598
			c-0.476,0-0.949,0.055-1.418,0.152c-29.312,6.657-49.781,32.328-49.781,62.422c0,10.824,2.762,21.531,7.992,30.949
			c0.586,1.063,1.031,2.157,1.676,3.711c0.883,2.094,2.805,3.571,5.062,3.871c0.223,0.032,0.481,0.051,0.743,0.051
			c5.894,1.004,11.339,10.767,9.894,23.638c-0.707,6.312-3.031,12.219-6.387,16.207c-1.613,1.918-4.867,5.116-8.832,4.629
			c-1.113-0.117-2.242-0.613-3.461-1.492c-1.468-1.075-3.32-1.489-5.101-1.082c-1.781,0.382-3.313,1.5-4.219,3.074
			c-8.125,14.187-11.48,30.319-9.699,46.655c3.863,35.32,32.289,63.789,67.57,67.699c2.879,0.328,5.832,0.489,8.762,0.489
			c2.938,0,5.887-0.161,8.754-0.489c35.297-3.91,63.719-32.379,67.582-67.699C383.914,516.39,380.559,500.257,372.418,486.078
			L372.418,486.078z M372.418,486.078"/>
		<path clip-path="url(#SVGID_2_)" fill="#996459" d="M368.203,483c-1.758-0.391-3.633,0.019-5.102,1.09
			c-1.215,0.878-2.34,1.367-3.461,1.484c-3.945,0.496-7.207-2.711-8.82-4.629c-3.355-3.988-5.68-9.896-6.387-16.207
			c-0.707-6.31,0.254-12.582,2.648-17.216c1.113-2.147,3.496-5.766,7.309-6.422c0.234-0.008,0.473-0.026,0.68-0.051
			c2.258-0.3,4.375-2.229,5.25-4.332c0.457-1.093,0.902-2.187,1.488-3.25c5.23-9.418,7.992-20.125,7.992-30.949
			c0-30.101-20.473-55.769-49.793-62.422c-0.461-0.097-0.938-0.152-1.414-0.152h-12.973V600.91c0.059,0,0.117,0.008,0.176,0.008
			c2.938,0,5.887-0.164,8.754-0.489c35.293-3.91,63.719-32.379,67.582-67.699c1.781-16.344-1.574-32.476-9.711-46.655
			C371.52,484.496,369.98,483.375,368.203,483L368.203,483z M368.203,483"/>
	</g>
	<path fill="#F2F2F2" d="M305.793,530.519c-3.535,0-6.398-2.862-6.398-6.397v-89.603c0-3.534,2.863-6.397,6.398-6.397
		c3.539,0,6.402,2.863,6.402,6.397v89.603C312.195,527.656,309.332,530.519,305.793,530.519L305.793,530.519z M305.793,530.519"/>
	<path fill="#5C546A" d="M318.594,485.718h-25.598c-3.539,0-6.402-2.858-6.402-6.397s2.863-6.398,6.402-6.398h25.598
		c3.539,0,6.402,2.859,6.402,6.398S322.133,485.718,318.594,485.718L318.594,485.718z M318.594,485.718"/>
	<path fill="#5C546A" d="M318.59,248.703c-0.121-3.453-2.945-6.184-6.395-6.184h-12.8c-3.45,0-6.274,2.731-6.395,6.184
		L286.602,434.3c-0.063,1.731,0.586,3.418,1.793,4.665c1.207,1.25,2.863,1.957,4.601,1.957h25.598c1.738,0,3.395-0.707,4.602-1.957
		c1.207-1.247,1.855-2.934,1.793-4.665L318.59,248.703z M318.59,248.703"/>
	<path fill="#5C546A" d="M323.508,520.019c-1.215-1.457-3.012-2.301-4.914-2.301h-25.598c-1.902,0-3.703,0.844-4.914,2.301
		c-1.219,1.457-1.727,3.375-1.383,5.246l12.801,70.399c0.551,3.043,3.199,5.258,6.293,5.258s5.746-2.215,6.293-5.258l12.801-70.399
		C325.234,523.394,324.727,521.476,323.508,520.019L323.508,520.019z M323.508,520.019"/>
	<path fill="#5C546A" d="M292.996,216.922h-12.801c-3.539,0-6.402-2.864-6.402-6.403c0-3.535,2.863-6.398,6.402-6.398h12.801
		c3.535,0,6.399,2.863,6.399,6.398C299.395,214.058,296.531,216.922,292.996,216.922L292.996,216.922z M292.996,216.922"/>
	<path fill="#5C546A" d="M292.996,242.519h-12.801c-3.539,0-6.402-2.863-6.402-6.398c0-3.539,2.863-6.403,6.402-6.403h12.801
		c3.535,0,6.399,2.864,6.399,6.403C299.395,239.656,296.531,242.519,292.996,242.519L292.996,242.519z M292.996,242.519"/>
	<path fill="#5C546A" d="M331.395,216.922h-12.801c-3.535,0-6.398-2.864-6.398-6.403c0-3.535,2.863-6.398,6.398-6.398h12.801
		c3.539,0,6.398,2.863,6.398,6.398C337.793,214.058,334.934,216.922,331.395,216.922L331.395,216.922z M331.395,216.922"/>
	<path fill="#5C546A" d="M331.395,242.519h-12.801c-3.535,0-6.398-2.863-6.398-6.398c0-3.539,2.863-6.403,6.398-6.403h12.801
		c3.539,0,6.398,2.864,6.398,6.403C337.793,239.656,334.934,242.519,331.395,242.519L331.395,242.519z M331.395,242.519"/>
	<path fill="#996459" d="M305.793,191.32c-10.586,0-19.199,8.613-19.199,19.199v25.602c0,10.586,8.613,19.199,19.199,19.199
		c10.59,0,19.203-8.613,19.203-19.199v-25.602C324.996,199.933,316.383,191.32,305.793,191.32L305.793,191.32z M305.793,191.32"/>
</g>
</svg>
