<?xml version="1.0" encoding="utf-8"?>
<!-- Generator: Adobe Illustrator 16.0.0, SVG Export Plug-In . SVG Version: 6.00 Build 0)  -->
<!DOCTYPE svg PUBLIC "-//W3C//DTD SVG 1.1//EN" "http://www.w3.org/Graphics/SVG/1.1/DTD/svg11.dtd">
<svg version="1.1" id="Layer_1" xmlns="http://www.w3.org/2000/svg" xmlns:xlink="http://www.w3.org/1999/xlink" x="0px" y="0px"
	 width="612px" height="792px" viewBox="0 0 612 792" enable-background="new 0 0 612 792" xml:space="preserve">
<g>
	<path fill="#C4C0AE" d="M126.602,422.199c-14.122,0-25.602-11.48-25.602-25.598C101,382.48,112.48,371,126.602,371
		c2.378,0,4.734,0.324,6.992,0.969c3.398,0.969,5.375,4.508,4.406,7.906c-0.961,3.414-4.539,5.387-7.906,4.406
		c-1.125-0.32-2.301-0.48-3.492-0.48c-7.059,0-12.801,5.742-12.801,12.8c0,7.055,5.742,12.797,12.801,12.797
		c1.168,0,2.324-0.156,3.429-0.46c3.414-0.958,6.938,1.039,7.883,4.444c0.949,3.406-1.039,6.938-4.445,7.879
		C131.242,421.887,128.93,422.199,126.602,422.199L126.602,422.199z M126.602,422.199"/>
	<path d="M504.199,275H335.07c-3.535,0-6.402,2.867-6.402,6.398v4.801c0,5.301-4.297,9.602-9.598,9.602
		c-5.305,0-9.602-4.301-9.602-9.602v-4.801c0-3.531-2.867-6.398-6.399-6.398h-54.64c-68.118,0-123.992,54.082-124.555,120.551
		c-0.273,32.887,12.367,63.792,35.613,87.031c22.989,22.992,53.481,35.617,85.969,35.617c0.355,0,0.707-0.004,1.063-0.004
		c66.468-0.563,120.546-56.438,120.546-124.558V380.32c0-13.007,9.746-23.937,22.832-25.453l98.031-13.949
		c12.926-1.492,22.672-12.426,22.672-25.43v-34.09C510.602,277.867,507.734,275,504.199,275L504.199,275z M504.199,275"/>
	<path fill="#C4C0AE" d="M245.469,479.801c-45.875,0-83.199-37.323-83.199-83.199c0-45.875,37.324-83.203,83.199-83.203
		s83.199,37.329,83.199,83.203C328.668,442.478,291.344,479.801,245.469,479.801L245.469,479.801z M245.469,332.602
		c-35.293,0-64,28.707-64,64c0,35.29,28.707,64.001,64,64.001c35.293,0,64-28.711,64-64.001
		C309.469,361.309,280.762,332.602,245.469,332.602L245.469,332.602z M245.469,332.602"/>
	<path fill="#C4C0AE" d="M309.469,396.602c0,35.29-28.707,64.001-64,64.001v19.198c45.875,0,83.199-37.323,83.199-83.199
		c0-45.875-37.324-83.203-83.199-83.203v19.204C280.762,332.602,309.469,361.309,309.469,396.602L309.469,396.602z M309.469,396.602
		"/>
</g>
</svg>
